<svg width="375" height="65" viewBox="0 0 375 65" fill="none" xmlns="http://www.w3.org/2000/svg">
<path d="M375.5 9V8.5H375H218.025C214.43 8.5 210.973 7.13023 207.717 5.39254C201.888 2.2814 194.562 0.5 188 0.5H187C180.438 0.5 173.112 2.2814 167.283 5.39254C164.027 7.13024 160.57 8.5 156.975 8.5H0H-0.5V9V64V64.5H0H375H375.5V64V9Z" fill="url(#paint0_linear_17825_3932)"/>
<path d="M375.5 9V8.5H375H218.025C214.43 8.5 210.973 7.13023 207.717 5.39254C201.888 2.2814 194.562 0.5 188 0.5H187C180.438 0.5 173.112 2.2814 167.283 5.39254C164.027 7.13024 160.57 8.5 156.975 8.5H0H-0.5V9V64V64.5H0H375H375.5V64V9Z" fill="url(#paint1_linear_17825_3932)"/>
<path d="M375.5 9V8.5H375H218.025C214.43 8.5 210.973 7.13023 207.717 5.39254C201.888 2.2814 194.562 0.5 188 0.5H187C180.438 0.5 173.112 2.2814 167.283 5.39254C164.027 7.13024 160.57 8.5 156.975 8.5H0H-0.5V9V64V64.5H0H375H375.5V64V9Z" stroke="url(#paint2_linear_17825_3932)"/>
<defs>
<linearGradient id="paint0_linear_17825_3932" x1="162.412" y1="1" x2="162.334" y2="63.9999" gradientUnits="userSpaceOnUse">
<stop offset="1" stop-color="#2E3236"/>
</linearGradient>
<linearGradient id="paint1_linear_17825_3932" x1="241.5" y1="1" x2="245" y2="78.5" gradientUnits="userSpaceOnUse">
<stop offset="0.0175585" stop-color="#2E3236" stop-opacity="0"/>
<stop offset="1" stop-color="#45BCFF" stop-opacity="0.08"/>
</linearGradient>
<linearGradient id="paint2_linear_17825_3932" x1="0" y1="32.5" x2="375" y2="32.5" gradientUnits="userSpaceOnUse">
<stop stop-color="#3F4348"/>
<stop offset="0.496788" stop-color="#7C8996"/>
<stop offset="1" stop-color="#3F4348"/>
</linearGradient>
</defs>
</svg>
