<svg width="32" height="32" viewBox="0 0 32 32" fill="none" xmlns="http://www.w3.org/2000/svg">
<path d="M25.3023 11.5813H19.7209C19.3395 11.5813 19.0233 11.2651 19.0233 10.8837C19.0233 10.5023 19.3395 10.186 19.7209 10.186H25.3023C25.6837 10.186 26 10.5023 26 10.8837C26 11.2651 25.6837 11.5813 25.3023 11.5813Z" fill="#B0B6BF"/>
<path d="M10.4186 11.5813H6.69767C6.31628 11.5813 6 11.2651 6 10.8837C6 10.5023 6.31628 10.186 6.69767 10.186H10.4186C10.8 10.186 11.1163 10.5023 11.1163 10.8837C11.1163 11.2651 10.8 11.5813 10.4186 11.5813Z" fill="#B0B6BF"/>
<path d="M14.1395 14.8372C11.9628 14.8372 10.186 13.0604 10.186 10.8837C10.186 8.70692 11.9628 6.93018 14.1395 6.93018C16.3163 6.93018 18.093 8.70692 18.093 10.8837C18.093 13.0604 16.3163 14.8372 14.1395 14.8372ZM14.1395 8.32552C12.7256 8.32552 11.5814 9.46971 11.5814 10.8837C11.5814 12.2976 12.7256 13.4418 14.1395 13.4418C15.5535 13.4418 16.6977 12.2976 16.6977 10.8837C16.6977 9.46971 15.5535 8.32552 14.1395 8.32552Z" fill="#B0B6BF"/>
<path d="M25.3023 21.8139H21.5814C21.2 21.8139 20.8837 21.4976 20.8837 21.1162C20.8837 20.7348 21.2 20.4185 21.5814 20.4185H25.3023C25.6837 20.4185 26 20.7348 26 21.1162C26 21.4976 25.6837 21.8139 25.3023 21.8139Z" fill="#B0B6BF"/>
<path d="M12.2791 21.8139H6.69767C6.31628 21.8139 6 21.4976 6 21.1162C6 20.7348 6.31628 20.4185 6.69767 20.4185H12.2791C12.6605 20.4185 12.9767 20.7348 12.9767 21.1162C12.9767 21.4976 12.6605 21.8139 12.2791 21.8139Z" fill="#B0B6BF"/>
<path d="M17.8605 25.0697C15.6837 25.0697 13.907 23.293 13.907 21.1162C13.907 18.9395 15.6837 17.1627 17.8605 17.1627C20.0372 17.1627 21.814 18.9395 21.814 21.1162C21.814 23.293 20.0372 25.0697 17.8605 25.0697ZM17.8605 18.5581C16.4465 18.5581 15.3023 19.7023 15.3023 21.1162C15.3023 22.5302 16.4465 23.6744 17.8605 23.6744C19.2744 23.6744 20.4186 22.5302 20.4186 21.1162C20.4186 19.7023 19.2744 18.5581 17.8605 18.5581Z" fill="#B0B6BF"/>
</svg>
