<svg width="32" height="32" viewBox="0 0 32 32" fill="none" xmlns="http://www.w3.org/2000/svg">
<rect width="32" height="32" rx="16" fill="url(#paint0_linear_14644_22857)"/>
<path d="M22.4369 12.3262C22.3603 12.2541 22.2665 12.2002 22.1634 12.169C22.0603 12.1377 21.9507 12.1301 21.8438 12.1467C21.7376 12.1633 21.6372 12.2034 21.5507 12.2636C21.4642 12.3238 21.3941 12.4024 21.3461 12.493C21.1376 12.8323 20.8832 13.1449 20.5894 13.4228C20.5202 11.7369 19.8638 10.1191 18.7214 8.8184C18.0823 8.20108 17.3096 7.72014 16.4557 7.40814C15.6018 7.09614 14.6866 6.96035 13.7721 7.00999C13.6488 7.0103 13.5278 7.04207 13.4222 7.10192C13.3165 7.16178 13.2301 7.24747 13.1722 7.34987C13.1174 7.45015 13.0918 7.56222 13.0978 7.67481C13.1037 7.78739 13.1412 7.89651 13.2063 7.99115C13.3017 8.12582 15.3742 11.127 13.0086 13.8268C12.4086 13.3843 11.7269 12.6853 11.7269 12.1403C11.726 11.9967 11.6739 11.8575 11.5789 11.7451C11.4839 11.6327 11.3516 11.5535 11.2031 11.5202C11.0546 11.4869 10.8985 11.5015 10.7599 11.5616C10.6212 11.6217 10.508 11.7239 10.4384 11.8517C9.50725 13.7528 9.01691 15.8186 9 17.9118C9 23.4397 13.3699 24.8761 13.5539 24.9659C13.6861 25.0081 13.8288 25.0112 13.9628 24.9747C14.0969 24.9382 14.2158 24.8639 14.3035 24.7618C14.3912 24.6597 14.4435 24.5348 14.4533 24.4038C14.4631 24.2729 14.43 24.1423 14.3584 24.0296C13.7117 22.9373 13.4559 21.6781 13.6289 20.4385C14.0489 21.2045 14.6739 21.8544 15.4423 22.3238C15.5869 22.414 15.7626 22.4489 15.9336 22.4215C16.1045 22.3941 16.258 22.3064 16.3627 22.1763C17.3054 20.8788 17.7524 19.3189 17.6307 17.7515C18.3465 18.7839 18.8919 20.7142 17.8897 24.1643C17.8638 24.2586 17.8611 24.3573 17.8818 24.4527C17.9025 24.5482 17.9461 24.638 18.0091 24.7153C18.0722 24.7925 18.1532 24.8553 18.2459 24.8987C18.3386 24.9421 18.4406 24.9651 18.5442 24.9659C18.6052 24.9752 18.6673 24.9752 18.7283 24.9659C20.2922 24.4734 21.6474 23.5229 22.5956 22.2536C23.5439 20.9843 24.0353 19.4628 23.998 17.9118C23.998 13.9166 22.5937 12.4801 22.4369 12.3262Z" fill="white"/>
<defs>
<linearGradient id="paint0_linear_14644_22857" x1="16" y1="-1.26669e-08" x2="16.2998" y2="35.5" gradientUnits="userSpaceOnUse">
<stop stop-color="#FFC90A"/>
<stop offset="0.749049" stop-color="#FF0000"/>
</linearGradient>
</defs>
</svg>
