<svg width="32" height="32" viewBox="0 0 32 32" fill="none" xmlns="http://www.w3.org/2000/svg">
<rect width="32" height="32" rx="16" fill="url(#paint0_linear_4525_5668)"/>
<path d="M23.5661 9.36419C23.2461 9.02415 22.792 8.82811 22.324 8.82811H20.8338C20.8398 8.56007 20.8438 8.28406 20.8438 8H11.2326C11.2326 8.28402 11.2366 8.56007 11.2426 8.82811H9.74244C9.27437 8.82811 8.82033 9.02415 8.50029 9.36419C8.17623 9.70626 8.00824 10.1743 8.03621 10.6484C8.30425 15.1169 10.6105 17.9212 14.267 18.3373L13.5589 20.8016C12.7168 20.8016 12.0347 21.4837 12.0347 22.3258V24.002H20.0437V22.3258C20.0437 21.4837 19.3616 20.8016 18.5195 20.8016L17.8114 18.3373C21.4599 17.9173 23.7641 15.1149 24.0302 10.6484C24.0582 10.1763 23.8902 9.70826 23.5661 9.36419ZM9.63442 10.5523C9.63242 10.5084 9.65043 10.4783 9.66641 10.4623C9.69641 10.4303 9.73243 10.4303 9.74244 10.4303H11.3186C11.5567 13.5767 12.2508 15.3609 12.9249 16.3691C10.3585 15.2929 9.74642 12.4186 9.63442 10.5523ZM19.1516 16.3631C19.8257 15.3529 20.5178 13.5707 20.7558 10.4283H22.326C22.338 10.4283 22.372 10.4283 22.402 10.4603C22.418 10.4764 22.436 10.5064 22.434 10.5503C22.32 12.4166 21.7099 15.2829 19.1516 16.3631Z" fill="white"/>
<defs>
<linearGradient id="paint0_linear_4525_5668" x1="16" y1="0" x2="16" y2="32" gradientUnits="userSpaceOnUse">
<stop stop-color="#11C6FF"/>
<stop offset="1" stop-color="#5600C4"/>
</linearGradient>
</defs>
</svg>
