<svg width="29" height="28" viewBox="0 0 29 28" fill="none" xmlns="http://www.w3.org/2000/svg">
<g clip-path="url(#clip0_14644_22807)">
<path d="M15.3936 13.2414C16.2082 13.149 20.7444 9.79064 21.4191 9.18188C21.7148 8.80729 26.3456 11.9172 26.4168 12.2775C26.5757 13.0807 26.4211 17.695 25.8694 19.3835C25.8526 19.4107 25.825 19.447 25.7874 19.4915C25.7874 19.4924 25.7861 19.4928 25.7853 19.4937C25.3363 20.0251 23.5068 21.6954 22.1064 22.6044C22.1055 22.6053 22.1042 22.6057 22.1033 22.6062C21.597 22.9354 21.1472 23.1648 20.8389 23.2037C20.8087 23.2072 20.7798 23.2128 20.753 23.2097C17.8896 22.8727 16.0368 21.046 15.6353 20.6956C15.596 20.6611 15.5649 20.5716 15.5395 20.4368V20.4355C15.3776 19.5567 15.4846 16.7661 15.4825 14.901C15.4825 14.8988 15.4825 14.8971 15.4825 14.8953C15.4825 14.1055 15.4618 13.4821 15.394 13.2419L15.3936 13.2414Z" fill="url(#paint0_radial_14644_22807)"/>
<path d="M19.4266 26.5961C18.7298 27.0273 14.991 28.2547 13.104 27.9212C11.2171 27.5872 8.72105 26.1774 8.50175 25.7073C8.28288 25.2368 8.52808 22.6199 8.83199 22.1528C9.95008 22.0962 14.1612 21.0675 15.4801 20.594C16.0512 21.2058 19.1641 23.5177 20.7532 23.2096C21.484 23.0679 19.4266 26.5961 19.4266 26.5961Z" fill="url(#paint1_radial_14644_22807)"/>
<path d="M12.3252 0.1849C13.524 -0.012548 14.7565 -0.0544571 15.9929 0.0717021C17.2284 0.198293 18.4682 0.492953 19.6817 0.969074C21.1101 1.52945 22.3949 2.29893 23.5142 3.22957L23.7586 3.7368C23.5846 3.65341 21.2668 2.98071 20.0663 3.48362C19.8457 3.05329 15.0479 1.04339 13.4791 1.35706C13.2641 0.864086 12.3476 0.200886 12.3252 0.184468V0.1849Z" fill="url(#paint2_radial_14644_22807)"/>
<path d="M23.5146 3.22949C25.4473 4.835 26.887 6.91835 27.7249 9.22897L27.2026 8.61632C26.7679 7.35343 25.0286 4.82592 23.759 3.73672L23.5146 3.22949Z" fill="url(#paint3_linear_14644_22807)"/>
<path d="M27.7251 9.22886C28.8458 12.3172 28.8902 15.8099 27.5982 19.1086C27.3629 19.7091 27.0909 20.2846 26.7844 20.8325L26.5548 20.8243C26.5548 20.8243 26.1978 19.6171 25.8701 19.3834C26.4218 17.6949 26.5764 13.081 26.4175 12.2774C26.6998 11.676 27.5688 9.68079 27.2032 8.61621L27.7255 9.22886H27.7251Z" fill="url(#paint4_radial_14644_22807)"/>
<path d="M6.67924 2.44849C5.44373 3.48109 4.41501 4.63208 4.52941 4.96173C4.24233 5.15313 3.39017 5.88589 2.60449 6.76425C3.65782 5.01315 5.05823 3.55627 6.67924 2.44849Z" fill="url(#paint5_radial_14644_22807)"/>
<path d="M22.3763 25.6262C21.0243 26.063 19.4266 26.5962 19.4266 26.5962C19.4266 26.5962 16.9003 27.7217 13.9756 27.9878C16.981 28.1135 19.9247 27.2741 22.3763 25.6262Z" fill="url(#paint6_radial_14644_22807)"/>
<path d="M1.46464 15.4966C1.20864 15.9101 1.01352 16.6484 1.03942 17.6344C1.79143 20.4285 3.76944 23.226 6.05439 25.0998C7.10642 25.6243 8.17141 26.0205 8.50252 25.725C8.50252 25.725 8.41791 22.5857 8.83276 22.1523C8.32293 21.6736 5.21906 17.1492 4.93674 16.3365C4.28661 16.4251 1.90237 16.1822 1.46507 15.4966H1.46464Z" fill="url(#paint7_radial_14644_22807)"/>
<path d="M1.52661 8.88595C1.80203 8.183 2.12839 7.51462 2.49878 6.88382C2.53418 6.84407 2.56958 6.80346 2.60455 6.76414C3.39023 5.88578 4.24239 5.15302 4.52946 4.96162C5.06303 4.60604 8.43757 3.91476 8.16518 4.79355C7.89278 5.67235 8.29641 10.2361 8.42635 10.6336C8.31066 10.7239 7.79867 11.4135 7.19905 12.2987C7.19775 12.3005 7.19689 12.3026 7.1956 12.3043C6.264 13.6817 5.12347 15.5309 4.93655 16.3363C4.5722 16.4516 3.61859 16.3635 2.78499 16.1366C2.21214 15.9815 1.6954 15.7608 1.46445 15.4963C1.10873 15.069 0.984836 13.4082 0.977929 11.8719C0.978361 11.8706 0.977929 11.8684 0.977929 11.8667C0.975771 11.4463 0.982678 11.0358 0.99606 10.6617C0.99606 10.6617 0.99606 10.6608 0.99606 10.6604C0.99606 10.6595 0.99606 10.6582 0.99606 10.6565C0.997787 10.6047 0.999945 10.5541 1.0021 10.504C1.1424 9.96133 1.31594 9.42126 1.52618 8.88552L1.52661 8.88595Z" fill="url(#paint8_radial_14644_22807)"/>
<path d="M8.16508 4.79409C8.3602 4.22075 12.6262 1.46556 13.4796 1.35754C15.048 1.04387 19.8462 3.05335 20.0668 3.4841C20.2538 3.98572 21.2549 7.49355 21.4198 9.18244C20.745 9.7912 16.2088 13.1495 15.3942 13.242C14.3068 13.1262 8.79319 10.7102 8.42668 10.6346C8.29675 10.2375 7.89354 5.67331 8.16551 4.79452L8.16508 4.79409Z" fill="url(#paint9_radial_14644_22807)"/>
<g style="mix-blend-mode:soft-light">
<path d="M27.7252 9.22948L27.2028 8.6164C27.5689 9.68097 26.6999 11.6762 26.4171 12.2776C26.3459 11.9173 21.7151 8.80736 21.4194 9.18195C21.2545 7.49349 20.2539 3.98523 20.0665 3.48362C21.267 2.98028 23.5848 3.65341 23.7588 3.7368L23.5144 3.22957C22.3955 2.29936 21.1103 1.52988 19.6819 0.969074C18.4684 0.492953 17.2286 0.198293 15.9931 0.0717021C14.7567 -0.0544571 13.5242 -0.012548 12.3254 0.1849C12.3478 0.201318 13.2643 0.864518 13.4793 1.35749C12.6259 1.46507 8.35987 4.2207 8.16474 4.79403C8.43714 3.91524 5.0626 4.60652 4.52903 4.9621C4.41506 4.63244 5.44379 3.48102 6.67886 2.44885C5.05742 3.55663 3.65701 5.01395 2.60411 6.76462C2.56915 6.80394 2.53375 6.84412 2.49835 6.8843C2.12796 7.51509 1.8016 8.18348 1.52618 8.88643C1.31638 9.42217 1.14284 9.96224 1.0021 10.5049C0.999945 10.555 0.997787 10.6056 0.99606 10.6574C0.99606 10.6591 0.99606 10.6613 0.99606 10.6613V10.6626C0.982678 11.0368 0.975771 11.4472 0.977929 11.8676C0.977929 11.8693 0.977929 11.871 0.977929 11.8728C0.984836 13.4096 1.10873 15.07 1.46445 15.4973C1.69497 15.7621 2.21171 15.9829 2.78499 16.1376C2.78845 16.1384 2.7919 16.1393 2.79535 16.1402C2.18839 16.0002 1.65051 15.7889 1.46445 15.4973C1.20845 15.9107 1.01333 16.6491 1.03923 17.6351C1.79124 20.4291 3.76925 23.2267 6.0542 25.1005C7.10623 25.625 8.17122 26.0212 8.50233 25.7257C8.50233 25.7257 8.50233 25.7187 8.5019 25.7058L8.50276 25.7075C8.72163 26.178 11.2181 27.5874 13.105 27.9213C13.4141 27.9762 13.7733 27.9887 14.1605 27.9697C14.0997 27.9762 14.0384 27.9823 13.977 27.9879C16.9825 28.1136 19.9262 27.2741 22.3778 25.6263C21.0257 26.0631 19.428 26.5962 19.428 26.5962C19.428 26.5962 21.3599 23.2837 20.8146 23.2072C20.8233 23.2059 20.8315 23.2051 20.8405 23.2038C21.1488 23.1649 21.5986 22.9355 22.105 22.6062C22.105 22.6062 22.1071 22.6054 22.108 22.6045C23.5084 21.695 25.3379 20.0247 25.7869 19.4937C25.7877 19.4929 25.789 19.4916 25.789 19.4916C25.827 19.4471 25.8542 19.4108 25.871 19.3836C26.1987 19.6173 26.5557 20.8245 26.5557 20.8245L26.7854 20.8331C27.0914 20.2853 27.3634 19.7098 27.5991 19.1088C28.8916 15.8101 28.8467 12.3174 27.726 9.22948H27.7252ZM15.4806 20.5937C14.1618 21.0668 9.95065 22.096 8.83257 22.1526C8.74321 22.29 8.65903 22.6132 8.58996 23.0128C8.64047 22.6011 8.71731 22.2727 8.83257 22.1526C8.32274 21.6739 5.21888 17.1494 4.93655 16.3367C5.12347 15.5318 6.264 13.6822 7.19559 12.3048C7.19689 12.3031 7.19775 12.3009 7.19905 12.2992C7.79867 11.4135 8.31066 10.7244 8.42635 10.6341C8.79286 10.7097 14.3064 13.1257 15.3939 13.2415C15.4616 13.4817 15.4819 14.1056 15.4824 14.895C15.4824 14.8967 15.4824 14.8984 15.4824 14.9006C15.4845 16.7662 15.3775 19.5564 15.5402 20.4352V20.4365C15.5652 20.5713 15.5963 20.6607 15.6356 20.6953C16.0371 21.0457 17.8895 22.8724 20.7533 23.2094C19.1647 23.5174 16.0518 21.2051 15.4806 20.5937Z" fill="#E2A302"/>
</g>
<path d="M7.19593 12.3049C7.19593 12.3049 7.19808 12.301 7.19938 12.2993C7.81238 11.3471 8.33344 10.6147 8.42668 10.6342C8.79319 10.7098 14.754 13.09 15.3942 13.2416C15.3994 13.3284 15.4387 13.9955 15.4827 14.8951C15.4827 14.8968 15.4827 14.8985 15.4827 14.9007C15.5746 16.7909 15.6869 19.7055 15.5405 20.4353V20.4366C15.5241 20.5174 15.5038 20.5714 15.481 20.5934C15.1503 20.9062 9.45066 22.3687 8.83334 22.1522C8.21515 21.9358 5.02236 16.9322 4.92479 16.4513C4.92004 16.4258 4.92393 16.3869 4.93731 16.336C5.07891 15.7786 6.24663 13.7791 7.19636 12.304L7.19593 12.3049Z" fill="url(#paint10_linear_14644_22807)"/>
<path style="mix-blend-mode:overlay" d="M7.19593 12.3049C7.19593 12.3049 7.19808 12.301 7.19938 12.2993C7.81238 11.3471 8.33344 10.6147 8.42668 10.6342C8.79319 10.7098 14.754 13.09 15.3942 13.2416C15.3994 13.3284 15.4387 13.9955 15.4827 14.8951C15.4827 14.8968 15.4827 14.8985 15.4827 14.9007C15.5746 16.7909 15.6869 19.7055 15.5405 20.4353V20.4366C15.5241 20.5174 15.5038 20.5714 15.481 20.5934C15.1503 20.9062 9.45066 22.3687 8.83334 22.1522C8.21515 21.9358 5.02236 16.9322 4.92479 16.4513C4.92004 16.4258 4.92393 16.3869 4.93731 16.336C5.07891 15.7786 6.24663 13.7791 7.19636 12.304L7.19593 12.3049Z" fill="url(#paint11_linear_14644_22807)"/>
<path d="M20.0664 3.48353C21.2669 2.98019 23.5847 3.65332 23.7587 3.73671C25.0287 4.82591 26.7676 7.35342 27.2023 8.6163C27.5684 9.68088 26.7978 11.6554 26.5155 12.2568C26.4628 12.3695 26.4304 12.4331 26.4304 12.4331C26.0531 12.004 22.1273 9.44541 21.4193 9.18186C21.2544 7.4934 20.2538 3.98514 20.0664 3.48353Z" fill="url(#paint12_linear_14644_22807)"/>
<path style="mix-blend-mode:overlay" d="M20.0664 3.48353C21.2669 2.98019 23.5847 3.65332 23.7587 3.73671C25.0287 4.82591 26.7676 7.35342 27.2023 8.6163C27.5684 9.68088 26.7978 11.6554 26.5155 12.2568C26.4628 12.3695 26.4304 12.4331 26.4304 12.4331C26.0531 12.004 22.1273 9.44541 21.4193 9.18186C21.2544 7.4934 20.2538 3.98514 20.0664 3.48353Z" fill="url(#paint13_linear_14644_22807)"/>
<path d="M9.47315 27.0308C10.6676 27.4995 11.8872 27.7912 13.1041 27.9212C11.6333 27.4243 8.89338 26.4198 8.50184 25.7074C8.2044 26.0422 6.96113 25.5363 6.05371 25.1003C7.07294 25.8832 8.21692 26.5382 9.47315 27.0312V27.0308Z" fill="url(#paint14_linear_14644_22807)"/>
<path d="M20.7531 23.21C20.7747 23.2074 20.7976 23.2044 20.8213 23.1997C21.1434 23.1418 21.5966 22.9206 22.1039 22.6065C22.1047 22.6065 22.106 22.6056 22.1069 22.6047C23.4374 21.7799 25.1348 20.317 25.7858 19.494C25.7866 19.4931 25.7875 19.4927 25.7879 19.4918C25.8177 19.4542 25.8449 19.4184 25.87 19.3838C26.1976 19.6175 26.7484 20.9007 26.7484 20.9007L26.3185 21.6097C26.1851 21.8167 26.0465 22.0184 25.9036 22.2163C25.832 22.3153 25.759 22.4129 25.6856 22.5101C25.6489 22.5585 25.6118 22.6065 25.5738 22.6544C25.5367 22.7019 25.4983 22.7495 25.4603 22.7966C25.4223 22.8437 25.3843 22.8908 25.3454 22.9374C25.288 23.0074 25.2293 23.0765 25.1702 23.1452C25.0856 23.2429 25.001 23.3392 24.9142 23.4338C24.8753 23.477 24.8365 23.519 24.7968 23.5609C24.7696 23.5902 24.7424 23.6192 24.7147 23.6477C24.3517 24.0292 23.9701 24.3878 23.5699 24.7231C23.5237 24.7615 23.4779 24.7996 23.4318 24.8376C23.386 24.8752 23.3394 24.9128 23.2927 24.9499C23.2461 24.9871 23.1995 25.0234 23.1524 25.0597C23.1054 25.0959 23.0583 25.1322 23.0104 25.1685C22.9154 25.2398 22.82 25.3102 22.7229 25.3794C22.6012 25.4666 22.4781 25.5518 22.3538 25.6347C22.334 25.6481 22.3141 25.6615 22.2934 25.6753C22.2895 25.6779 22.2865 25.6801 22.2826 25.6827C20.962 26.272 19.5288 26.6686 19.4269 26.5978C19.2715 26.4885 20.0188 25.4446 20.7535 23.2113L20.7531 23.21Z" fill="url(#paint15_linear_14644_22807)"/>
<path d="M1.03944 17.6346C1.11931 16.856 1.27817 15.9733 1.46466 15.4968C0.858997 14.9571 0.947925 12.0438 1.03038 10.5251C0.408742 12.9399 0.411763 15.3451 1.03944 17.635V17.6346Z" fill="url(#paint16_linear_14644_22807)"/>
<path d="M6.67984 2.44847C6.73251 2.41261 6.78604 2.37631 6.83871 2.34132C6.89224 2.30589 6.94577 2.27089 6.9993 2.23633C7.05326 2.20133 7.10722 2.1672 7.16118 2.1335C7.32393 2.03154 7.4884 1.93346 7.65504 1.83884C7.71418 1.80514 7.77375 1.77187 7.83333 1.73904C7.8834 1.71139 7.93391 1.68373 7.98485 1.65695C7.99003 1.65436 7.99564 1.65133 8.00082 1.64831C8.04701 1.62368 8.09277 1.59948 8.1394 1.57572C8.15105 1.56924 8.16357 1.56319 8.17523 1.55671C8.22703 1.53036 8.27883 1.504 8.33064 1.47808C8.38805 1.44913 8.44503 1.42148 8.50245 1.39383C8.55986 1.36618 8.61814 1.33896 8.67556 1.31131C8.79168 1.25816 8.90781 1.20589 9.02436 1.1549C9.08264 1.12984 9.14179 1.10435 9.20006 1.08016C9.25921 1.05553 9.31835 1.03134 9.37706 1.00757C9.43663 0.984242 9.49577 0.96048 9.55492 0.937581C9.61492 0.91425 9.67406 0.892215 9.73407 0.870181C9.82386 0.836913 9.91365 0.804509 10.0043 0.772969C10.0941 0.741861 10.1852 0.711186 10.2763 0.681806C10.6562 0.559103 11.0408 0.451954 11.4306 0.361223C11.586 0.325363 11.7427 0.292095 11.8994 0.260555C11.978 0.245001 12.057 0.230744 12.1356 0.216486C12.1986 0.205685 12.2621 0.194451 12.3255 0.184082C12.348 0.2005 13.2644 0.8637 13.4794 1.35667C12.626 1.46425 8.35999 4.21988 8.16487 4.79321C7.235 4.6057 4.83738 4.88999 4.52915 4.96128C4.41519 4.63163 5.44391 3.48021 6.67898 2.44803L6.67984 2.44847Z" fill="url(#paint17_linear_14644_22807)"/>
<path style="mix-blend-mode:overlay" d="M6.67984 2.44847C6.73251 2.41261 6.78604 2.37631 6.83871 2.34132C6.89224 2.30589 6.94577 2.27089 6.9993 2.23633C7.05326 2.20133 7.10722 2.1672 7.16118 2.1335C7.32393 2.03154 7.4884 1.93346 7.65504 1.83884C7.71418 1.80514 7.77375 1.77187 7.83333 1.73904C7.8834 1.71139 7.93391 1.68373 7.98485 1.65695C7.99003 1.65436 7.99564 1.65133 8.00082 1.64831C8.04701 1.62368 8.09277 1.59948 8.1394 1.57572C8.15105 1.56924 8.16357 1.56319 8.17523 1.55671C8.22703 1.53036 8.27883 1.504 8.33064 1.47808C8.38805 1.44913 8.44503 1.42148 8.50245 1.39383C8.55986 1.36618 8.61814 1.33896 8.67556 1.31131C8.79168 1.25816 8.90781 1.20589 9.02437 1.1549C9.08264 1.12984 9.14179 1.10435 9.20006 1.08016C9.25921 1.05553 9.31835 1.03134 9.37706 1.00757C9.43663 0.984242 9.49577 0.96048 9.55492 0.937581C9.61492 0.91425 9.67406 0.892215 9.73407 0.870181C9.82386 0.836913 9.91365 0.804509 10.0043 0.772969C10.0941 0.741861 10.1852 0.711186 10.2763 0.681806C10.6562 0.559103 11.0408 0.451954 11.4306 0.361223C11.586 0.325363 11.7427 0.292095 11.8994 0.260555C11.978 0.245001 12.057 0.230744 12.1356 0.216486C12.1986 0.205685 12.2621 0.194451 12.3255 0.184082C12.348 0.2005 13.2644 0.8637 13.4794 1.35667C12.626 1.46425 8.35999 4.21988 8.16487 4.79321C7.235 4.6057 4.83738 4.88999 4.52915 4.96128C4.41519 4.63163 5.44391 3.48021 6.67898 2.44804L6.67984 2.44847Z" fill="url(#paint18_linear_14644_22807)"/>
<path d="M8.50255 25.7069C8.4188 25.15 8.50255 23.0459 8.7892 22.1317C9.33356 22.3477 13.8352 21.3255 15.54 20.4368C16.2614 21.7731 19.3717 23.1812 20.7536 23.2097C19.0877 23.5389 16.1875 22.025 15.4515 20.8031C13.7096 21.5782 10.44 22.4346 9.02361 22.435C8.68645 23.6862 8.55004 24.9197 8.50212 25.7069H8.50255Z" fill="#F1F2F2"/>
<path d="M12.3252 0.185059C12.816 0.632665 13.2659 1.11959 13.4515 1.35894C14.8476 1.4082 17.4671 2.26366 20.0913 3.55031C21.6407 3.17486 23.7586 3.73696 23.7586 3.73696C23.7586 3.73696 22.0365 2.99988 20.0663 3.4099C18.8727 2.61406 15.0816 1.12434 13.505 1.25612C13.3552 1.04484 12.9101 0.45898 12.3252 0.185059Z" fill="white"/>
<path d="M4.93679 16.3369C4.27846 16.8951 1.34166 16.4043 1.46469 15.4966C2.29656 16.1507 4.60569 16.3741 4.93679 16.3369Z" fill="#F1F2F2"/>
<path d="M8.42618 10.634C7.74152 8.9058 7.8965 5.46883 7.67331 5.25108C7.45013 5.03332 6.00612 4.70885 4.5293 4.96203C5.39441 4.74687 7.45747 4.45394 8.16501 4.79396C8.24487 4.23402 12.6887 1.36736 13.4796 1.35742C10.7366 2.63068 8.55353 4.48807 8.36445 4.86525C8.17537 5.24243 7.9496 9.2778 8.42618 10.634Z" fill="white"/>
<path d="M25.8701 19.3828C26.2293 16.4932 26.4425 14.1822 26.4309 12.4324C27.2999 13.398 26.4309 19.5755 25.8701 19.3828Z" fill="#EFEFEF"/>
<path d="M26.4302 12.4332C24.561 10.9314 21.357 9.3406 21.357 9.3406C21.357 9.3406 16.696 12.934 15.3936 13.2416C17.5602 12.088 21.0431 9.10513 21.0431 9.10513C21.0431 9.10513 20.9736 6.49813 20.0662 3.48413C21.0608 6.01207 21.4562 9.08698 21.4562 9.08698C21.4562 9.08698 25.3264 11.1401 26.4298 12.4332H26.4302Z" fill="#CEC08E"/>
<path d="M26.4302 12.4332C24.561 10.9314 21.464 9.49009 21.464 9.49009C21.464 9.49009 16.8652 13.2416 15.3936 13.2416C16.7301 12.8104 21.319 9.22308 21.319 9.22308C21.319 9.22308 20.832 5.50354 20.0662 3.48413C21.0608 6.01207 21.4562 9.08698 21.4562 9.08698C21.4562 9.08698 25.3264 11.1401 26.4298 12.4332H26.4302Z" fill="white"/>
<path d="M20.0667 3.48363C19.8672 3.14404 15.8046 1.25424 13.4795 1.35707C16.2229 1.47761 19.6147 3.20582 20.0667 3.48363Z" fill="white"/>
<path d="M25.8701 19.3828C26.2296 16.4932 26.443 14.1822 26.4314 12.4324C26.7493 13.3125 26.4145 18.0948 25.8701 19.3828Z" fill="#CEC08E"/>
<path d="M8.50292 25.7069C8.35873 25.5259 8.43255 23.1047 8.78956 22.1317C9.33393 22.3477 13.8356 21.3255 15.5404 20.4368C16.2617 21.7731 19.3721 23.1812 20.7539 23.2097C19.1191 23.3847 16.2345 21.8314 15.4985 20.6096C13.7566 21.3847 10.3294 22.2808 8.91346 22.2816C8.57631 23.5329 8.55084 24.9202 8.50292 25.7069Z" fill="#CEC08E"/>
<path d="M4.93695 16.3369C4.9227 16.546 1.9764 16.4043 1.46484 15.4966C2.29672 16.1507 4.60584 16.3741 4.93695 16.3369Z" fill="#CEC08E"/>
<path d="M8.42618 10.634C7.79246 8.79995 8.18918 5.18886 7.966 4.97111C7.74282 4.75335 6.00698 4.60084 4.5293 4.96203C5.39441 4.74687 7.42509 4.43925 8.16501 4.79396C8.28502 4.12774 12.6887 1.36736 13.4796 1.35742C10.7366 2.63068 8.51209 4.32346 8.35236 4.7136C8.15724 5.18972 7.9496 9.27737 8.42618 10.634Z" fill="url(#paint19_linear_14644_22807)"/>
<path d="M12.3252 0.185059C12.8933 0.581682 13.2801 1.04916 13.4791 1.35765C14.8415 1.24661 17.4019 2.04288 20.0663 3.48421C21.667 3.04481 23.7586 3.73739 23.7586 3.73739C23.7586 3.73739 22.0365 3.00031 20.0663 3.41033C18.8727 2.61449 15.0816 1.12477 13.505 1.25655C13.3552 1.04527 12.9101 0.459412 12.3252 0.185491V0.185059Z" fill="#CEC08E"/>
<path d="M20.7537 23.2097C20.4217 24.3425 19.7807 25.56 19.4271 26.5961C18.3375 27.1647 14.9043 27.9873 13.9766 27.9873C14.9328 27.8162 17.6451 27.3189 19.3524 26.5602C19.6555 25.8568 20.1955 24.578 20.7537 23.2092V23.2097Z" fill="#CEC08E"/>
<path d="M4.93663 16.3367C5.00181 17.0513 8.16612 21.8056 8.78905 22.1318C8.08841 22.3927 4.47169 17.0232 4.93663 16.3367Z" fill="#F1F2F2"/>
<g style="mix-blend-mode:overlay" opacity="0.8">
<path opacity="0.5" d="M5.2959 16.3365C5.33346 15.8435 8.2163 11.3221 8.58885 11.0806C9.01579 11.3052 14.7504 13.3134 14.9939 13.5571C15.2373 13.8008 15.2373 15.2434 15.2373 15.2434C15.2373 15.2434 15.0228 14.1222 14.7461 13.8414C14.4698 13.5601 9.07493 11.4314 8.64238 11.6565C8.20378 11.8846 6.43772 14.6251 5.2959 16.336V16.3365Z" fill="url(#paint20_linear_14644_22807)"/>
<path d="M4.91449 4.60645C6.43319 2.44835 10.0728 0.941784 12.0266 0.496338C9.38165 0.764642 5.95056 2.71406 4.91406 4.60602L4.91449 4.60645Z" fill="url(#paint21_linear_14644_22807)"/>
<path opacity="0.5" d="M21.6766 8.83507C21.5911 7.66939 20.8054 4.47567 20.457 3.73686C21.5229 3.42362 23.6835 3.97146 23.6835 3.97146L25.0062 5.28922L23.6835 4.0946C23.4504 3.9369 21.3515 3.75889 20.8559 3.93344C20.9543 4.3724 21.6317 7.50262 21.6761 8.83507H21.6766Z" fill="url(#paint22_linear_14644_22807)"/>
<path d="M19.7871 26.2378C20.1774 25.4744 20.6712 24.2236 20.9056 23.4489C22.3773 22.8402 24.7196 21.0299 25.8705 19.7285C26.0726 20.0984 26.335 20.4366 26.335 20.4366C26.335 20.4366 26.0389 20.2068 25.8705 20.0383C24.913 21.2999 21.804 23.5453 21.0308 23.7138C20.8508 24.2854 20.4036 25.3391 19.7871 26.2378Z" fill="url(#paint23_linear_14644_22807)"/>
</g>
<path d="M27.203 8.61621C27.8479 9.58185 26.7065 12.3072 26.4307 12.433C26.7916 11.5896 27.5276 9.68165 27.203 8.61621Z" fill="#E2E2E2"/>
</g>
<defs>
<radialGradient id="paint0_radial_14644_22807" cx="0" cy="0" r="1" gradientUnits="userSpaceOnUse" gradientTransform="translate(17.2097 12.6297) scale(10.4828 10.4915)">
<stop stop-color="#F2F2F2"/>
<stop offset="0.19" stop-color="#EDEDED"/>
<stop offset="0.41" stop-color="#DEDEDE"/>
<stop offset="0.65" stop-color="#C7C7C7"/>
<stop offset="0.9" stop-color="#A6A6A6"/>
<stop offset="0.99" stop-color="#999999"/>
</radialGradient>
<radialGradient id="paint1_radial_14644_22807" cx="0" cy="0" r="1" gradientUnits="userSpaceOnUse" gradientTransform="translate(15.5983 9.07808) scale(16.6612 16.675)">
<stop stop-color="#F2F2F2"/>
<stop offset="0.29" stop-color="#EFEFEF"/>
<stop offset="0.46" stop-color="#E7E7E7"/>
<stop offset="0.6" stop-color="#D8D8D8"/>
<stop offset="0.72" stop-color="#C4C4C4"/>
<stop offset="0.83" stop-color="#AAAAAA"/>
<stop offset="0.94" stop-color="#8B8B8B"/>
<stop offset="1" stop-color="#737373"/>
</radialGradient>
<radialGradient id="paint2_radial_14644_22807" cx="0" cy="0" r="1" gradientUnits="userSpaceOnUse" gradientTransform="translate(16.668 -9.72724) scale(15.4874 15.5003)">
<stop offset="0.62" stop-color="#FAFAFA"/>
<stop offset="0.68" stop-color="#F5F5F5"/>
<stop offset="0.74" stop-color="#E7E7E7"/>
<stop offset="0.81" stop-color="#D0D0D0"/>
<stop offset="0.88" stop-color="#B0B0B0"/>
<stop offset="0.95" stop-color="#888888"/>
<stop offset="1" stop-color="#666666"/>
</radialGradient>
<linearGradient id="paint3_linear_14644_22807" x1="23.607" y1="1.60973" x2="36.6795" y2="1.60973" gradientUnits="userSpaceOnUse">
<stop offset="0.91" stop-color="#F2D7A2"/>
</linearGradient>
<radialGradient id="paint4_radial_14644_22807" cx="0" cy="0" r="1" gradientUnits="userSpaceOnUse" gradientTransform="translate(19.2895 14.3079) rotate(-158.574) scale(11.7995 11.8067)">
<stop offset="0.47" stop-color="#F2F2F2"/>
<stop offset="0.85" stop-color="#666666"/>
</radialGradient>
<radialGradient id="paint5_radial_14644_22807" cx="0" cy="0" r="1" gradientUnits="userSpaceOnUse" gradientTransform="translate(1.19545 1.82547) scale(5.1026 5.10686)">
<stop offset="0.79" stop-color="white"/>
<stop offset="0.8" stop-color="#F9F9F9"/>
<stop offset="0.86" stop-color="#CFCFCF"/>
<stop offset="0.92" stop-color="#B1B1B1"/>
<stop offset="0.97" stop-color="#9F9F9F"/>
<stop offset="1" stop-color="#999999"/>
</radialGradient>
<radialGradient id="paint6_radial_14644_22807" cx="0" cy="0" r="1" gradientUnits="userSpaceOnUse" gradientTransform="translate(16.024 19.008) scale(9.23045 9.23813)">
<stop offset="0.33" stop-color="#CCCCCC"/>
<stop offset="0.57" stop-color="#C9C9C9"/>
<stop offset="0.68" stop-color="#C2C2C2"/>
<stop offset="0.76" stop-color="#B6B6B6"/>
<stop offset="0.82" stop-color="#A4A4A4"/>
<stop offset="0.88" stop-color="#8D8D8D"/>
<stop offset="0.94" stop-color="#707070"/>
<stop offset="0.98" stop-color="#4F4F4F"/>
<stop offset="1" stop-color="#404040"/>
</radialGradient>
<radialGradient id="paint7_radial_14644_22807" cx="0" cy="0" r="1" gradientUnits="userSpaceOnUse" gradientTransform="translate(12.1369 11.5792) scale(13.0742 13.0851)">
<stop stop-color="#F5F5F5"/>
<stop offset="0.29" stop-color="#F2F2F2"/>
<stop offset="0.46" stop-color="#EAEAEA"/>
<stop offset="0.59" stop-color="#DCDCDC"/>
<stop offset="0.7" stop-color="#C9C9C9"/>
<stop offset="0.8" stop-color="#AFAFAF"/>
<stop offset="0.9" stop-color="#909090"/>
<stop offset="0.99" stop-color="#6C6C6C"/>
<stop offset="1" stop-color="#666666"/>
</radialGradient>
<radialGradient id="paint8_radial_14644_22807" cx="0" cy="0" r="1" gradientUnits="userSpaceOnUse" gradientTransform="translate(3.4403 6.10137) scale(9.65092 9.65895)">
<stop stop-color="#FAFAFA"/>
<stop offset="0.22" stop-color="#F6F6F6"/>
<stop offset="0.42" stop-color="#EBEBEB"/>
<stop offset="0.61" stop-color="#D9D9D9"/>
<stop offset="0.79" stop-color="#BFBFBF"/>
<stop offset="0.97" stop-color="#9E9E9E"/>
<stop offset="1" stop-color="#999999"/>
</radialGradient>
<radialGradient id="paint9_radial_14644_22807" cx="0" cy="0" r="1" gradientUnits="userSpaceOnUse" gradientTransform="translate(14.0374 -5.75101) scale(19.3813 19.3974)">
<stop offset="0.15" stop-color="#F7F7F7"/>
<stop offset="0.54" stop-color="#F5F5F5"/>
<stop offset="0.68" stop-color="#EEEEEE"/>
<stop offset="0.78" stop-color="#E2E2E2"/>
<stop offset="0.86" stop-color="#D1D1D1"/>
<stop offset="0.92" stop-color="#BBBBBB"/>
<stop offset="0.98" stop-color="#A1A1A1"/>
<stop offset="1" stop-color="#999999"/>
</radialGradient>
<linearGradient id="paint10_linear_14644_22807" x1="11.0666" y1="10.5001" x2="3.77338" y2="27.7077" gradientUnits="userSpaceOnUse">
<stop stop-color="#D0C3AA"/>
<stop offset="1" stop-color="#C2B29B"/>
</linearGradient>
<linearGradient id="paint11_linear_14644_22807" x1="12.3332" y1="5.33333" x2="8.9979" y2="21.3329" gradientUnits="userSpaceOnUse">
<stop stop-color="#FFFFFB"/>
<stop offset="1" stop-color="#86692A"/>
</linearGradient>
<linearGradient id="paint12_linear_14644_22807" x1="26.7818" y1="12.1868" x2="20.3926" y2="3.50489" gradientUnits="userSpaceOnUse">
<stop stop-color="#D2BF9A"/>
<stop offset="1" stop-color="#D2B771"/>
</linearGradient>
<linearGradient id="paint13_linear_14644_22807" x1="33.0159" y1="15.8575" x2="13.1017" y2="-2.06438" gradientUnits="userSpaceOnUse">
<stop stop-color="#FFFFFB" stop-opacity="0"/>
<stop offset="1" stop-color="white"/>
</linearGradient>
<linearGradient id="paint14_linear_14644_22807" x1="6.94947" y1="22.9284" x2="10.3402" y2="27.54" gradientUnits="userSpaceOnUse">
<stop stop-color="#EBD395"/>
<stop offset="1" stop-color="#E2D2B2"/>
</linearGradient>
<linearGradient id="paint15_linear_14644_22807" x1="26.9686" y1="25.7341" x2="22.0735" y2="22.6305" gradientUnits="userSpaceOnUse">
<stop stop-color="#D2C8AF"/>
<stop offset="1" stop-color="#DBD5C6"/>
</linearGradient>
<linearGradient id="paint16_linear_14644_22807" x1="0.566309" y1="14.0796" x2="1.46466" y2="14.0796" gradientUnits="userSpaceOnUse">
<stop stop-color="#E2C182"/>
<stop offset="1" stop-color="#EAE4D4"/>
</linearGradient>
<linearGradient id="paint17_linear_14644_22807" x1="-2.75281" y1="5.39454" x2="25.4697" y2="9.77218" gradientUnits="userSpaceOnUse">
<stop stop-color="#D8C49D"/>
<stop offset="0.93" stop-color="#BAA377"/>
</linearGradient>
<linearGradient id="paint18_linear_14644_22807" x1="12.256" y1="4.62817" x2="4.49087" y2="0.466847" gradientUnits="userSpaceOnUse">
<stop stop-color="#FFFFFB" stop-opacity="0"/>
<stop offset="1" stop-color="white"/>
</linearGradient>
<linearGradient id="paint19_linear_14644_22807" x1="10.2971" y1="5.73022" x2="5.87428" y2="3.94365" gradientUnits="userSpaceOnUse">
<stop stop-color="#C9B991"/>
<stop offset="1" stop-color="#DFD5C1"/>
</linearGradient>
<linearGradient id="paint20_linear_14644_22807" x1="9.74276" y1="9.58523" x2="10.4601" y2="17.7876" gradientUnits="userSpaceOnUse">
<stop stop-color="white"/>
<stop offset="1" stop-color="#FFA800"/>
</linearGradient>
<linearGradient id="paint21_linear_14644_22807" x1="7.81719" y1="1.32242" x2="8.40074" y2="2.4177" gradientUnits="userSpaceOnUse">
<stop stop-color="white"/>
<stop offset="1" stop-color="#FFA800"/>
</linearGradient>
<linearGradient id="paint22_linear_14644_22807" x1="20.3249" y1="3.83709" x2="22.6893" y2="6.36047" gradientUnits="userSpaceOnUse">
<stop stop-color="white"/>
<stop offset="1" stop-color="#FF8A00"/>
</linearGradient>
<linearGradient id="paint23_linear_14644_22807" x1="21.0196" y1="20.2042" x2="23.0146" y2="23.2612" gradientUnits="userSpaceOnUse">
<stop stop-color="white"/>
<stop offset="1" stop-color="#FFA800"/>
</linearGradient>
<clipPath id="clip0_14644_22807">
<rect width="28" height="28" fill="white" transform="translate(0.566406)"/>
</clipPath>
</defs>
</svg>
