<svg xmlns="http://www.w3.org/2000/svg" width="25" height="24" viewBox="0 0 25 24" fill="none">
  <rect x="11.75" y="2.25" width="6.75" height="7.5" fill="#3F4B5D"/>
  <path d="M18.8319 2.25H17.1015V7.93168C17.1015 8.33086 16.6855 8.52823 16.3632 8.02704L15.2202 6.2529L14.0773 8.02704C13.7527 8.52602 13.3389 8.33086 13.3389 7.93168V2.25H7.53734C6.13489 2.25366 5 3.35767 5 4.71827V19.2884C5.00377 20.6464 6.13757 21.7463 7.53734 21.75H18.8342C19.1431 21.7495 19.4392 21.6299 19.6571 21.4173C19.8762 21.2059 19.9995 20.9187 20 20.619V3.38323C19.9987 2.75785 19.4765 2.25122 18.8319 2.25ZM19.0491 18.8227L8.02652 18.836C7.78627 18.8521 7.59511 19.0376 7.57854 19.2706C7.56019 19.5284 7.76078 19.7518 8.02652 19.7696H19.0491L19.0468 20.6301C19.0469 20.6814 19.0264 20.7307 18.9896 20.7676C18.9516 20.8032 18.9008 20.8231 18.8479 20.823H7.53734C6.66938 20.823 5.96579 20.1404 5.96579 19.2984C5.96579 18.4563 6.66938 17.7737 7.53734 17.7737H18.8479C18.9585 17.7749 19.0478 17.8616 19.0491 17.9689V18.8227Z" fill="url(#paint0_radial_20748_60459)"/>
  <defs>
    <radialGradient id="paint0_radial_20748_60459" cx="0" cy="0" r="1" gradientUnits="userSpaceOnUse" gradientTransform="translate(11.0577 3.32721) rotate(87.2857) scale(30.4571 23.4648)">
      <stop stop-color="#D6EBFF"/>
      <stop offset="0.75787" stop-color="#718EAB"/>
    </radialGradient>
  </defs>
</svg>
