<svg xmlns="http://www.w3.org/2000/svg" width="24" height="25" viewBox="0 0 24 25" fill="none">
  <path
    d="M12.5 3.22559C17.7469 3.22559 22 7.47873 22 12.7256C22 17.9724 17.7469 22.2256 12.5 22.2256C10.7693 22.2283 9.07101 21.7557 7.59041 20.8595L4.71001 21.7069C4.54463 21.7555 4.3692 21.7587 4.20215 21.7161C4.03511 21.6736 3.88262 21.5868 3.76073 21.4649C3.63883 21.343 3.55203 21.1905 3.50944 21.0234C3.46685 20.8564 3.47005 20.681 3.51871 20.5156L4.36611 17.6352C3.47031 16.1544 2.9978 14.4563 3.00001 12.7256C3.00001 7.47873 7.25316 3.22559 12.5 3.22559ZM9.17501 11.3006C8.79707 11.3006 8.43462 11.4507 8.16738 11.718C7.90014 11.9852 7.75001 12.3476 7.75001 12.7256C7.75001 13.1035 7.90014 13.466 8.16738 13.7332C8.43462 14.0004 8.79707 14.1506 9.17501 14.1506C9.55294 14.1506 9.91539 14.0004 10.1826 13.7332C10.4499 13.466 10.6 13.1035 10.6 12.7256C10.6 12.3476 10.4499 11.9852 10.1826 11.718C9.91539 11.4507 9.55294 11.3006 9.17501 11.3006ZM15.825 11.3006C15.4471 11.3006 15.0846 11.4507 14.8174 11.718C14.5501 11.9852 14.4 12.3476 14.4 12.7256C14.4 13.1035 14.5501 13.466 14.8174 13.7332C15.0846 14.0004 15.4471 14.1506 15.825 14.1506C16.2029 14.1506 16.5654 14.0004 16.8326 13.7332C17.0999 13.466 17.25 13.1035 17.25 12.7256C17.25 12.3476 17.0999 11.9852 16.8326 11.718C16.5654 11.4507 16.2029 11.3006 15.825 11.3006Z"
    fill="url(#paint0_radial_20748_60509)" />
  <defs>
    <radialGradient id="paint0_radial_20748_60509" cx="0" cy="0" r="1" gradientUnits="userSpaceOnUse"
      gradientTransform="translate(10.6731 4.27518) rotate(86.4733) scale(29.6991)">
      <stop stop-color="#D6EBFF" />
      <stop offset="0.75787" stop-color="#718EAB" />
    </radialGradient>
  </defs>
</svg>
