<svg width="29" height="28" viewBox="0 0 29 28" fill="none" xmlns="http://www.w3.org/2000/svg">
    <path d="M3.39214 18.6181C2.37155 18.6181 1.54492 17.7915 1.54492 16.7709V15.8473C1.54492 14.8267 2.37155 14.0001 3.39214 14.0001H9.35128C9.10098 14.8821 8.95782 15.8094 8.95782 16.7709C8.95782 17.4027 9.0234 18.0178 9.13423 18.6181H3.39214ZM5.23937 7.5348H14.9096C15.8461 7.10625 16.8565 6.81346 17.9196 6.68785C18.1062 6.39876 18.2179 6.05703 18.2179 5.68758V4.76397C18.2179 3.74338 17.3913 2.91675 16.3707 2.91675H5.23937C4.21878 2.91675 3.39214 3.74338 3.39214 4.76397V5.68758C3.39214 6.70817 4.21878 7.5348 5.23937 7.5348ZM5.23937 13.0765H9.66346C10.3987 11.2025 11.6705 9.6 13.2942 8.45842H5.23937C4.21878 8.45842 3.39214 9.28505 3.39214 10.3056V11.2292C3.39214 12.2498 4.21878 13.0765 5.23937 13.0765ZM5.23937 19.5417C4.21878 19.5417 3.39214 20.3684 3.39214 21.389V22.3126C3.39214 23.3332 4.21878 24.1598 5.23937 24.1598H12.1655C10.8466 22.9175 9.86019 21.3317 9.35128 19.5417H5.23937ZM27.43 16.7709C27.43 21.3539 23.7005 25.0834 19.1175 25.0834C14.5346 25.0834 10.805 21.3539 10.805 16.7709C10.805 12.188 14.5346 8.45842 19.1175 8.45842C23.7005 8.45842 27.43 12.188 27.43 16.7709ZM18.1939 15.3855C18.1939 15.1306 18.4008 14.9237 18.6557 14.9237H20.9103C21.4201 14.9237 21.8339 14.5099 21.8339 14.0001C21.8339 13.4902 21.4201 13.0765 20.9103 13.0765H20.0412V12.1529C20.0412 11.643 19.6274 11.2292 19.1175 11.2292C18.6077 11.2292 18.1939 11.643 18.1939 12.1529V13.0765C18.1939 13.0931 18.2022 13.106 18.2032 13.1227C17.1466 13.3342 16.3467 14.2679 16.3467 15.3855C16.3467 16.6582 17.383 17.6945 18.6557 17.6945H19.5249C19.7798 17.6945 19.9867 17.9014 19.9867 18.197C19.9867 18.4519 19.7798 18.6588 19.5249 18.6588H17.2703C16.7605 18.6588 16.3467 19.0726 16.3467 19.5824C16.3467 20.0922 16.7605 20.506 17.2703 20.506H18.1939V21.389C18.1939 21.8988 18.6077 22.3126 19.1175 22.3126C19.6274 22.3126 20.0412 21.8988 20.0412 21.389V20.4654C20.0412 20.458 20.0375 20.4515 20.0365 20.4441C21.0636 20.2095 21.8339 19.2878 21.8339 18.1563C21.8339 16.8836 20.7976 15.8473 19.5249 15.8473H18.6557C18.4008 15.8473 18.1939 15.6404 18.1939 15.3855Z" fill="white"/>
</svg>
