
<svg xmlns="http://www.w3.org/2000/svg" width="24" height="25" viewBox="0 0 24 25" fill="none">
  <path d="M3 14.0553V6.04044C3 4.69727 4.08691 3.61035 5.43009 3.61035H8.48759C9.00895 3.61035 9.48614 3.86662 9.77775 4.29961L11.0237 6.16416C11.0679 6.22601 11.1298 6.26136 11.2093 6.26136H17.8015C19.0651 6.26136 20.099 7.2334 20.205 8.47053H7.39184C5.70403 8.47053 4.21063 9.61047 3.76879 11.2364L3 14.0465V14.0553ZM21.6808 10.4058C21.3892 10.017 20.9385 9.79604 20.4525 9.79604H7.39184C6.29609 9.79604 5.33289 10.5295 5.05011 11.5899L3.06186 18.889C2.93814 19.3573 3.02651 19.8434 3.32696 20.2322C3.61857 20.621 4.06924 20.8419 4.55526 20.8419H17.6159C18.7116 20.8419 19.6748 20.1085 19.9576 19.0481L21.9459 11.7489C22.0696 11.2806 21.9812 10.7857 21.6808 10.4058Z" fill="url(#paint0_radial_20748_60480)"/>
  <defs>
    <radialGradient id="paint0_radial_20748_60480" cx="0" cy="0" r="1" gradientUnits="userSpaceOnUse" gradientTransform="translate(10.6731 4.56225) rotate(86.1124) scale(26.9458 29.6869)">
      <stop stop-color="#D6EBFF"/>
      <stop offset="0.75787" stop-color="#718EAB"/>
    </radialGradient>
  </defs>
</svg>
