<svg xmlns="http://www.w3.org/2000/svg" width="24" height="24" viewBox="0 0 24 24" fill="none">
  <path d="M2.82129 21.75H13.1807C13.4962 21.75 13.752 21.4943 13.752 21.1787V20.5693C13.752 19.9382 13.2405 19.4268 12.6094 19.4268V18.7437C12.6094 17.8393 11.8736 17.1035 10.9692 17.1035H5.03281C4.12841 17.1035 3.39258 17.8393 3.39258 18.7437V19.4268C2.76148 19.4268 2.25 19.9382 2.25 20.5693V21.1787C2.25 21.4941 2.50589 21.75 2.82129 21.75Z" fill="url(#paint0_radial_20748_60466)"/>
  <path d="M9.40026 14.8315C9.77993 15.3354 10.4964 15.4361 11.0003 15.0563C11.5044 14.6766 11.6049 13.9601 11.2253 13.4561L7.7871 8.89366C7.40729 8.38961 6.69094 8.28904 6.18705 8.66871C5.683 9.04853 5.58228 9.76487 5.9621 10.2689L9.40026 14.8315Z" fill="url(#paint1_radial_20748_60466)"/>
  <path d="M17.6127 8.64281C17.9925 9.14671 18.7089 9.24743 19.2129 8.86761C19.7168 8.48794 19.8175 7.7716 19.4377 7.26755L15.9996 2.70511C15.6199 2.20107 14.9034 2.10035 14.3995 2.48017C13.8956 2.85998 13.7949 3.57633 14.1747 4.08037L17.6127 8.64281Z" fill="url(#paint2_radial_20748_60466)"/>
  <path d="M15.1066 11.9619C15.951 11.3256 16.585 10.5355 16.9814 9.70356L12.9809 4.39472C12.0719 4.54662 11.1378 4.93804 10.2932 5.57449C9.44874 6.2108 8.81482 7.00094 8.41834 7.83273L12.4189 13.1419C13.3279 12.99 14.262 12.5984 15.1066 11.9619Z" fill="url(#paint3_radial_20748_60466)"/>
  <path d="M16.6492 12.1107C16.3832 12.3818 16.1031 12.6417 15.7942 12.8745C15.4852 13.1072 15.1581 13.3049 14.8244 13.486L15.5693 14.4746L17.3943 13.0995L16.6492 12.1107Z" fill="url(#paint4_radial_20748_60466)"/>
  <path d="M18.0819 14.0119L16.2569 15.387L19.6951 19.9496C20.0749 20.4536 20.7912 20.5542 21.2951 20.1745C21.7992 19.7947 21.8998 19.0784 21.5201 18.5743L18.0819 14.0119Z" fill="url(#paint5_radial_20748_60466)"/>
  <defs>
    <radialGradient id="paint0_radial_20748_60466" cx="0" cy="0" r="1" gradientUnits="userSpaceOnUse" gradientTransform="translate(6.89503 17.3602) rotate(81.3257) scale(7.3331 17.8069)">
      <stop stop-color="#D6EBFF"/>
      <stop offset="0.75787" stop-color="#718EAB"/>
    </radialGradient>
    <radialGradient id="paint1_radial_20748_60466" cx="0" cy="0" r="1" gradientUnits="userSpaceOnUse" gradientTransform="translate(12.2008 3.25289) rotate(86.8874) scale(28.3658 25.0488)">
      <stop stop-color="#D6EBFF"/>
      <stop offset="0.75787" stop-color="#718EAB"/>
    </radialGradient>
    <radialGradient id="paint2_radial_20748_60466" cx="0" cy="0" r="1" gradientUnits="userSpaceOnUse" gradientTransform="translate(12.2008 3.25289) rotate(86.8874) scale(28.3658 25.0488)">
      <stop stop-color="#D6EBFF"/>
      <stop offset="0.75787" stop-color="#718EAB"/>
    </radialGradient>
    <radialGradient id="paint3_radial_20748_60466" cx="0" cy="0" r="1" gradientUnits="userSpaceOnUse" gradientTransform="translate(12.2008 3.25289) rotate(86.8874) scale(28.3658 25.0488)">
      <stop stop-color="#D6EBFF"/>
      <stop offset="0.75787" stop-color="#718EAB"/>
    </radialGradient>
    <radialGradient id="paint4_radial_20748_60466" cx="0" cy="0" r="1" gradientUnits="userSpaceOnUse" gradientTransform="translate(12.2008 3.25289) rotate(86.8874) scale(28.3658 25.0488)">
      <stop stop-color="#D6EBFF"/>
      <stop offset="0.75787" stop-color="#718EAB"/>
    </radialGradient>
    <radialGradient id="paint5_radial_20748_60466" cx="0" cy="0" r="1" gradientUnits="userSpaceOnUse" gradientTransform="translate(12.2008 3.25289) rotate(86.8874) scale(28.3658 25.0488)">
      <stop stop-color="#D6EBFF"/>
      <stop offset="0.75787" stop-color="#718EAB"/>
    </radialGradient>
  </defs>
</svg>
