<svg xmlns="http://www.w3.org/2000/svg" width="24" height="25" viewBox="0 0 24 25" fill="none">
  <path
    d="M22 12.2246C22 13.7682 21.7845 15.3969 21.3948 16.9774C21.3876 17.0113 21.3887 17.045 21.3805 17.0778C21.362 17.1517 21.3374 17.2226 21.3179 17.2964C21.2892 17.4072 21.2543 17.5137 21.2235 17.6245C21.1271 17.9763 21.0358 18.3301 20.924 18.6706L20.441 20.2349C20.0677 21.4441 18.9478 22.2246 17.7427 22.2246C17.4699 22.2246 17.1939 22.1845 16.9211 22.1014L15.9303 21.7989C15.4729 21.6594 15.0955 21.3486 14.8698 20.924C14.6452 20.5004 14.5978 20.0153 14.7394 19.5568L16.2616 14.5784C16.4021 14.1189 16.7119 13.7425 17.1365 13.5179C17.5621 13.2933 18.0503 13.2472 18.5047 13.3877L19.4707 13.6842C19.7958 13.7837 20.0862 13.9435 20.3426 14.1394C20.4144 13.4932 20.4615 12.8502 20.4615 12.2256C20.4615 7.55995 16.6656 3.76405 12 3.76405C7.33436 3.76405 3.53846 7.55995 3.53846 12.2256C3.53846 12.8502 3.58561 13.4922 3.6574 14.1384C3.91381 13.9425 4.20417 13.7827 4.5293 13.6832L5.49534 13.3867C5.95073 13.2452 6.43892 13.2913 6.86353 13.5169C7.28712 13.7415 7.59792 14.1179 7.73843 14.5773L9.26062 19.5578C9.40216 20.0153 9.35477 20.5014 9.13016 20.925C8.90452 21.3496 8.52717 21.6594 8.06871 21.7999L7.07888 22.1026C6.80606 22.1867 6.53013 22.2256 6.25731 22.2256C5.05218 22.2256 3.93233 21.4451 3.55899 20.2359L3.07397 18.6636C2.9632 18.3283 2.86967 17.9681 2.77224 17.6132C2.74352 17.5065 2.70876 17.4052 2.68209 17.2964C2.6626 17.2216 2.63795 17.1537 2.61949 17.0789C2.61129 17.045 2.6124 17.0123 2.60522 16.9784C2.21547 15.399 2 13.7692 2 12.2256C2 6.71174 6.48615 2.22559 12 2.22559C17.5138 2.22559 22 6.71074 22 12.2246Z"
    fill="url(#paint0_radial_20748_60515)" />
  <defs>
    <radialGradient id="paint0_radial_20748_60515" cx="0" cy="0" r="1" gradientUnits="userSpaceOnUse"
      gradientTransform="translate(10.0769 3.33042) rotate(86.4733) scale(31.2622)">
      <stop stop-color="#D6EBFF" />
      <stop offset="0.75787" stop-color="#718EAB" />
    </radialGradient>
  </defs>
</svg>
