<svg width="24" height="24" viewBox="0 0 24 24" fill="none" xmlns="http://www.w3.org/2000/svg">
    <path d="M12.0009 18.7501C11.5909 18.7501 11.2509 18.4101 11.2509 18.0001V15.0001C11.2509 14.5901 11.5909 14.2501 12.0009 14.2501C12.4109 14.2501 12.7509 14.5901 12.7509 15.0001V18.0001C12.7509 18.4101 12.4109 18.7501 12.0009 18.7501Z" fill="#E9ECF2"/>
    <path d="M17.6009 22.5601H6.40094C4.58094 22.5601 2.92094 21.1601 2.62094 19.3701L1.29094 11.4001C1.07094 10.1601 1.68094 8.57007 2.67094 7.78007L9.60094 2.23007C10.9409 1.15007 13.0509 1.16007 14.4009 2.24007L21.3309 7.78007C22.3109 8.57007 22.9109 10.1601 22.7109 11.4001L21.3809 19.3601C21.0809 21.1301 19.3809 22.5601 17.6009 22.5601ZM11.9909 2.93007C11.4609 2.93007 10.9309 3.09007 10.5409 3.40007L3.61094 8.96007C3.05094 9.41007 2.65094 10.4501 2.77094 11.1601L4.10094 19.1201C4.28094 20.1701 5.33094 21.0601 6.40094 21.0601H17.6009C18.6709 21.0601 19.7209 20.1701 19.9009 19.1101L21.2309 11.1501C21.3409 10.4501 20.9409 9.39007 20.3909 8.95007L13.4609 3.41007C13.0609 3.09007 12.5209 2.93007 11.9909 2.93007Z" fill="#E9ECF2"/>
</svg>
