<svg width="29" height="28" viewBox="0 0 29 28" fill="none" xmlns="http://www.w3.org/2000/svg">
    <path d="M14.812 2.8125C8.73771 2.8125 3.8125 7.73771 3.8125 13.812C3.8125 19.8864 8.73771 24.8125 14.812 24.8125C20.8864 24.8125 25.8125 19.8864 25.8125 13.812C25.8125 7.73771 20.8864 2.8125 14.812 2.8125ZM17.1019 19.8603C16.5357 20.0838 16.085 20.2533 15.747 20.3706C15.4099 20.4879 15.0178 20.5466 14.5718 20.5466C13.8864 20.5466 13.3528 20.379 12.9729 20.0447C12.5929 19.7104 12.4039 19.2867 12.4039 18.7717C12.4039 18.5715 12.4179 18.3666 12.4458 18.158C12.4747 17.9494 12.5203 17.7148 12.5827 17.4512L13.2914 14.9481C13.3537 14.7079 13.4078 14.4797 13.4506 14.2674C13.4934 14.0532 13.5139 13.8567 13.5139 13.6779C13.5139 13.3595 13.4478 13.136 13.3165 13.0103C13.1833 12.8845 12.9328 12.8231 12.5594 12.8231C12.3769 12.8231 12.1888 12.8501 11.996 12.9069C11.8051 12.9656 11.6394 13.0186 11.5034 13.0708L11.6906 12.2997C12.1543 12.1107 12.5985 11.9487 13.0222 11.8146C13.4459 11.6786 13.8464 11.6116 14.2235 11.6116C14.9042 11.6116 15.4294 11.7773 15.7991 12.1051C16.167 12.4338 16.3523 12.8613 16.3523 13.3865C16.3523 13.4954 16.3392 13.6873 16.3141 13.961C16.2889 14.2357 16.2415 14.4862 16.1725 14.7162L15.4676 17.2119C15.4099 17.4121 15.3587 17.6412 15.3121 17.8973C15.2665 18.1534 15.2441 18.3489 15.2441 18.4802C15.2441 18.8117 15.3177 19.038 15.4667 19.1582C15.6138 19.2783 15.8718 19.3388 16.2368 19.3388C16.4091 19.3388 16.6018 19.3081 16.8197 19.2485C17.0358 19.1889 17.1922 19.1358 17.2909 19.0902L17.1019 19.8603ZM16.9771 9.73051C16.6484 10.0359 16.2526 10.1887 15.7898 10.1887C15.3279 10.1887 14.9294 10.0359 14.5979 9.73051C14.2682 9.42507 14.1015 9.05352 14.1015 8.61957C14.1015 8.18655 14.2691 7.81407 14.5979 7.50583C14.9294 7.19667 15.3279 7.04302 15.7898 7.04302C16.2526 7.04302 16.6493 7.19667 16.9771 7.50583C17.3058 7.81407 17.4707 8.18655 17.4707 8.61957C17.4707 9.05445 17.3058 9.42507 16.9771 9.73051Z" fill="white"/>
</svg>
