<svg xmlns="http://www.w3.org/2000/svg" width="24" height="24" viewBox="0 0 24 24" fill="none">
  <path d="M18.5 21H16.8333C16.7239 21.0001 16.6155 20.9761 16.5144 20.9295C16.4132 20.8828 16.3213 20.8144 16.2439 20.7282C16.1665 20.6419 16.1052 20.5396 16.0633 20.4269C16.0214 20.3142 15.9999 20.1934 16 20.0714V8.92857C15.9999 8.80661 16.0214 8.68583 16.0633 8.57314C16.1052 8.46045 16.1665 8.35806 16.2439 8.27182C16.3213 8.18558 16.4132 8.11718 16.5144 8.07054C16.6155 8.0239 16.7239 7.99993 16.8333 8H20.1667C20.2761 7.99993 20.3845 8.0239 20.4856 8.07054C20.5868 8.11718 20.6787 8.18558 20.7561 8.27182C20.8335 8.35806 20.8948 8.46045 20.9367 8.57314C20.9785 8.68583 21.0001 8.80661 21 8.92857V18.2143C20.9993 18.9529 20.7357 19.6609 20.267 20.1832C19.7983 20.7054 19.1628 20.9992 18.5 21ZM17.6667 19.1429H18.5C18.721 19.1427 18.9328 19.0448 19.0891 18.8707C19.2453 18.6966 19.3332 18.4605 19.3333 18.2143V9.85714H17.6667V19.1429Z" fill="url(#paint0_radial_20748_60486)"/>
  <path d="M15.25 3H4.75C4.28606 3.00062 3.84129 3.19046 3.51323 3.52789C3.18517 3.86532 3.0006 4.3228 3 4.8V18.3C3.00076 19.0158 3.27757 19.7021 3.76968 20.2083C4.2618 20.7145 4.92904 20.9992 5.625 21H16.125C16.2399 21.0001 16.3537 20.9768 16.4599 20.9316C16.5661 20.8864 16.6626 20.8201 16.7439 20.7365C16.8251 20.653 16.8896 20.5537 16.9335 20.4445C16.9775 20.3353 17.0001 20.2182 17 20.1V4.8C16.9994 4.3228 16.8148 3.86532 16.4868 3.52789C16.1587 3.19046 15.7139 3.00062 15.25 3ZM6.9375 6.6H9.5625C9.79456 6.6 10.0171 6.69482 10.1812 6.8636C10.3453 7.03239 10.4375 7.2613 10.4375 7.5C10.4375 7.73869 10.3453 7.96761 10.1812 8.1364C10.0171 8.30518 9.79456 8.4 9.5625 8.4H6.9375C6.70544 8.4 6.48288 8.30518 6.31878 8.1364C6.15469 7.96761 6.0625 7.73869 6.0625 7.5C6.0625 7.2613 6.15469 7.03239 6.31878 6.8636C6.48288 6.69482 6.70544 6.6 6.9375 6.6ZM13.0625 17.85H6.9375C6.70544 17.85 6.48288 17.7552 6.31878 17.5864C6.15469 17.4176 6.0625 17.1887 6.0625 16.95C6.0625 16.7113 6.15469 16.4824 6.31878 16.3136C6.48288 16.1448 6.70544 16.05 6.9375 16.05H13.0625C13.2946 16.05 13.5171 16.1448 13.6812 16.3136C13.8453 16.4824 13.9375 16.7113 13.9375 16.95C13.9375 17.1887 13.8453 17.4176 13.6812 17.5864C13.5171 17.7552 13.2946 17.85 13.0625 17.85ZM13.0625 14.7H6.9375C6.70544 14.7 6.48288 14.6052 6.31878 14.4364C6.15469 14.2676 6.0625 14.0387 6.0625 13.8C6.0625 13.5613 6.15469 13.3324 6.31878 13.1636C6.48288 12.9948 6.70544 12.9 6.9375 12.9H13.0625C13.2946 12.9 13.5171 12.9948 13.6812 13.1636C13.8453 13.3324 13.9375 13.5613 13.9375 13.8C13.9375 14.0387 13.8453 14.2676 13.6812 14.4364C13.5171 14.6052 13.2946 14.7 13.0625 14.7ZM13.0625 11.55H6.9375C6.70544 11.55 6.48288 11.4552 6.31878 11.2864C6.15469 11.1176 6.0625 10.8887 6.0625 10.65C6.0625 10.4113 6.15469 10.1824 6.31878 10.0136C6.48288 9.84482 6.70544 9.75 6.9375 9.75H13.0625C13.2946 9.75 13.5171 9.84482 13.6812 10.0136C13.8453 10.1824 13.9375 10.4113 13.9375 10.65C13.9375 10.8887 13.8453 11.1176 13.6812 11.2864C13.5171 11.4552 13.2946 11.55 13.0625 11.55Z" fill="url(#paint1_radial_20748_60486)"/>
  <defs>
    <radialGradient id="paint0_radial_20748_60486" cx="0" cy="0" r="1" gradientUnits="userSpaceOnUse" gradientTransform="translate(18.0192 8.71814) rotate(88.6421) scale(20.2876 7.82817)">
      <stop stop-color="#D6EBFF"/>
      <stop offset="0.75787" stop-color="#718EAB"/>
    </radialGradient>
    <radialGradient id="paint1_radial_20748_60486" cx="0" cy="0" r="1" gradientUnits="userSpaceOnUse" gradientTransform="translate(8.65385 3.99435) rotate(87.2556) scale(28.1149 21.8999)">
      <stop stop-color="#D6EBFF"/>
      <stop offset="0.75787" stop-color="#718EAB"/>
    </radialGradient>
  </defs>
</svg>
