<svg version="1.1" xmlns="http://www.w3.org/2000/svg" xmlns:xlink="http://www.w3.org/1999/xlink" enable-background="new 0 0 0 0" xml:space="preserve" x="0px" y="0px" style="user-select: none; z-index: 1001;" transform="scale(0.9)" viewBox="0 0 24 24" fill="rgba(244,233,233,1)" id="playButton-live-XpjSI-X3Chu"><defs><radialGradient id="hoverTransparencyRadial"><stop offset="0%" stop-color="rgba(244,233,233,1)"></stop><stop offset="30%" stop-color="rgba(244,233,233,1)"></stop><stop stop-opacity="1" offset="70%" stop-color="rgba(244,233,233,1)"></stop><stop offset="100%" stop-color="rgba(244,233,233,1)" stop-opacity="0"></stop></radialGradient><linearGradient id="hoverTransparencyHorizontal"><stop offset="0%" stop-color="rgba(244,233,233,1)"></stop><stop offset="80%" stop-color="rgba(244,233,233,1)"></stop><stop offset="90%" stop-color="rgba(244,233,233,1)" stop-opacity="0.1"></stop><stop offset="100%" stop-color="rgba(244,233,233,1)" stop-opacity="0"></stop></linearGradient><linearGradient id="hoverTransparencyVertical" x1="0" y1="0" x2="0" y2="1"><stop offset="0%" stop-color="rgba(244,233,233,1)"></stop><stop offset="10%" stop-color="rgba(244,233,233,1)"></stop><stop stop-opacity="0.15" offset="90%" stop-color="rgba(244,233,233,1)"></stop><stop offset="100%" stop-color="rgba(244,233,233,1)" stop-opacity="0"></stop></linearGradient></defs><rect x="1" y="1" width="22" height="22" rx="4" ry="4" fill="url(#hoverTransparencyVertical)" opacity="0"></rect><path d="M10.8 15.9l4.67-3.5c.27-.2.27-.6 0-.8L10.8 8.1c-.33-.25-.8-.01-.8.4v7c0 .41.47.65.8.4zM12 2C6.48 2 2 6.48 2 12s4.48 10 10 10 10-4.48 10-10S17.52 2 12 2zm0 18c-4.41 0-8-3.59-8-8s3.59-8 8-8 8 3.59 8 8-3.59 8-8 8z"></path></svg>
