<svg xmlns="http://www.w3.org/2000/svg" width="25" height="24" viewBox="0 0 25 24" fill="none">
  <path d="M13.9198 9.70513L11.933 12.0897L11.6794 11.7853C11.3409 11.379 10.7921 11.379 10.4541 11.7853C10.1156 12.1916 10.1156 12.8496 10.4541 13.2559L11.3207 14.296C11.4899 14.4992 11.7118 14.6004 11.9336 14.6004C12.1555 14.6004 12.3773 14.4985 12.5466 14.296L15.1463 11.1758C15.4848 10.7695 15.4848 10.1108 15.1463 9.70513C14.8077 9.29881 14.2589 9.29881 13.921 9.70513H13.9198Z" fill="url(#paint0_radial_20748_60473)"/>
  <path d="M19.9996 5.35835C16.6784 5.35835 13.2368 2.42729 13.2028 2.39796C12.974 2.20068 12.6252 2.20068 12.3968 2.39796C12.3624 2.42767 8.9296 5.35835 5.6 5.35835C5.2688 5.35835 5 5.61429 5 5.92964V12.7713C5 18.3135 9.3296 20.5282 12.586 21.7123C12.6548 21.7374 12.7276 21.75 12.8 21.75C12.8724 21.75 12.9452 21.7374 13.014 21.7123C17.58 20.0525 20.6 17.4635 20.6 12.7713V5.92964C20.6 5.61429 20.3312 5.35835 20 5.35835H19.9996ZM12.7996 15.9987C10.4836 15.9987 8.5996 14.2049 8.5996 11.9997C8.5996 9.79456 10.4836 8.00073 12.7996 8.00073C15.1156 8.00073 16.9996 9.79456 16.9996 11.9997C16.9996 14.2049 15.1156 15.9987 12.7996 15.9987Z" fill="url(#paint1_radial_20748_60473)"/>
  <defs>
    <radialGradient id="paint0_radial_20748_60473" cx="0" cy="0" r="1" gradientUnits="userSpaceOnUse" gradientTransform="translate(12.3002 9.68765) rotate(86.4733) scale(8.12816)">
      <stop stop-color="#D6EBFF"/>
      <stop offset="0.75787" stop-color="#718EAB"/>
    </radialGradient>
    <radialGradient id="paint1_radial_20748_60473" cx="0" cy="0" r="1" gradientUnits="userSpaceOnUse" gradientTransform="translate(11.3 3.32721) rotate(87.1773) scale(30.4598 24.4011)">
      <stop stop-color="#D6EBFF"/>
      <stop offset="0.75787" stop-color="#718EAB"/>
    </radialGradient>
  </defs>
</svg>
