<svg xmlns="http://www.w3.org/2000/svg" width="24" height="25" viewBox="0 0 24 25" fill="none">
  <path
    d="M19.1624 3.28877L4.5922 6.56658C1.11106 7.34953 1.14549 11.8132 4.63886 12.5532L9.17124 13.5131C9.28346 13.5371 9.40236 13.5071 9.48347 13.4331L14.748 8.69544C15.0702 8.40546 15.6034 8.40546 15.9256 8.69544C16.2478 8.98542 16.2478 9.46539 15.9256 9.75537L10.6589 14.4951C10.5778 14.568 10.5435 14.675 10.5702 14.776L11.6357 18.8508C12.458 21.9946 17.4178 22.0256 18.2878 18.8928L21.9302 5.78062C22.3468 4.27471 20.8324 2.9128 19.1624 3.28877Z"
    fill="url(#paint0_radial_20748_60497)" />
  <defs>
    <radialGradient id="paint0_radial_20748_60497" cx="0" cy="0" r="1" gradientUnits="userSpaceOnUse"
      gradientTransform="translate(10.0769 4.21994) rotate(86.0826) scale(28.1484 31.2483)">
      <stop stop-color="#D6EBFF" />
      <stop offset="0.75787" stop-color="#718EAB" />
    </radialGradient>
  </defs>
</svg>
