<svg width="24" height="24" viewBox="0 0 24 24" fill="none" xmlns="http://www.w3.org/2000/svg">
  <path d="M11.6196 8.71875L11.4717 8.3092C11.3945 8.09558 11.4478 7.85648 11.6085 7.69595C11.7691 7.53528 12.0081 7.48203 12.2219 7.55908L13.7981 8.12839L15.0864 7.18173C15.2632 7.05158 15.4982 7.03143 15.6948 7.12939C15.8913 7.22736 16.0166 7.42694 16.0193 7.64667L16.0324 8.71875H19.0703C20.0396 8.71875 20.8281 9.50733 20.8281 10.4766C20.8281 10.7997 21.091 11.0625 21.4141 11.0625C21.4421 11.0625 21.4702 11.0634 21.498 11.0646L21.8283 10.7343C21.9384 10.6244 22 10.4753 22 10.32C22 10.1645 21.9384 10.0156 21.8283 9.90558C21.1431 9.22031 21.1431 8.10504 21.8283 7.41977C22.0572 7.19089 22.0572 6.81995 21.8283 6.59106L17.4089 2.17166C17.2991 2.0618 17.1501 2 16.9947 2C16.8392 2 16.6902 2.0618 16.5804 2.17166C15.895 2.85709 14.7798 2.85709 14.0944 2.17166C13.9846 2.0618 13.8355 2 13.6801 2C13.5247 2 13.3756 2.0618 13.2657 2.17166L6.71863 8.71875H11.6196Z" fill="#E6E6E6"/>
  <path d="M14.2285 15.2602L13.9141 14.59L13.5996 15.2602C13.5164 15.437 13.3507 15.5609 13.1577 15.5904L12.3954 15.7068L12.9662 16.292C13.0962 16.425 13.1551 16.612 13.1252 16.7954L12.9967 17.5832L13.6306 17.2327C13.7187 17.184 13.8164 17.1596 13.9141 17.1596C14.0117 17.1596 14.1094 17.184 14.1976 17.2327L14.8314 17.5832L14.7029 16.7954C14.673 16.612 14.7319 16.425 14.8619 16.292L15.4328 15.7068L14.6704 15.5904C14.4774 15.5608 14.3117 15.437 14.2285 15.2602Z" fill="#E6E6E6"/>
  <path d="M21.4141 12.2344C20.4448 12.2344 19.6562 11.4458 19.6562 10.4766C19.6562 10.1529 19.394 9.89062 19.0703 9.89062H4.92969C4.60605 9.89062 4.34375 10.1529 4.34375 10.4766C4.34375 11.4458 3.55518 12.2344 2.58594 12.2344C2.2623 12.2344 2 12.4967 2 12.8203V19.0703C2 19.3939 2.2623 19.6562 2.58594 19.6562C3.55518 19.6562 4.34375 20.4448 4.34375 21.4141C4.34375 21.7377 4.60605 22 4.92969 22H19.0703C19.394 22 19.6562 21.7377 19.6562 21.4141C19.6562 20.4448 20.4448 19.6562 21.4141 19.6562C21.7377 19.6562 22 19.3939 22 19.0703V12.8203C22 12.4967 21.7377 12.2344 21.4141 12.2344ZM8.25 20.2812C8.25 20.6049 7.9877 20.8672 7.66406 20.8672C7.34042 20.8672 7.07812 20.6049 7.07812 20.2812V19.8516C7.07812 19.5279 7.34042 19.2656 7.66406 19.2656C7.9877 19.2656 8.25 19.5279 8.25 19.8516V20.2812ZM8.25 17.5469C8.25 17.8705 7.9877 18.1328 7.66406 18.1328C7.34042 18.1328 7.07812 17.8705 7.07812 17.5469V17.1172C7.07812 16.7935 7.34042 16.5312 7.66406 16.5312C7.9877 16.5312 8.25 16.7935 8.25 17.1172V17.5469ZM8.25 14.8125C8.25 15.1361 7.9877 15.3984 7.66406 15.3984C7.34042 15.3984 7.07812 15.1361 7.07812 14.8125V14.3828C7.07812 14.0592 7.34042 13.7969 7.66406 13.7969C7.9877 13.7969 8.25 14.0592 8.25 14.3828V14.8125ZM8.25 12.0781C8.25 12.4018 7.9877 12.6641 7.66406 12.6641C7.34042 12.6641 7.07812 12.4018 7.07812 12.0781V11.6484C7.07812 11.3248 7.34042 11.0625 7.66406 11.0625C7.9877 11.0625 8.25 11.3248 8.25 11.6484V12.0781ZM17.0677 15.709L15.9072 16.8987L16.1823 18.5854C16.2184 18.8068 16.1249 19.0294 15.9415 19.1587C15.8406 19.2296 15.7225 19.2656 15.604 19.2656C15.5066 19.2656 15.409 19.2414 15.3205 19.1925L13.9141 18.4149L12.5075 19.1925C12.3113 19.301 12.0702 19.2879 11.8866 19.1587C11.7032 19.0294 11.6097 18.8068 11.6458 18.5854L11.921 16.8987L10.7604 15.709C10.607 15.5518 10.5544 15.322 10.6241 15.1139C10.6938 14.9056 10.8741 14.7538 11.0912 14.7206L12.6715 14.4791L13.3837 12.9621C13.4803 12.7564 13.6869 12.625 13.9141 12.625C14.1413 12.625 14.3479 12.7564 14.4445 12.9619L15.1566 14.4791L16.7369 14.7206C16.9541 14.7538 17.1343 14.9056 17.204 15.1137C17.2737 15.3221 17.2211 15.5518 17.0677 15.709Z" fill="#E6E6E6"/>
</svg>

