<svg width="24" height="24" viewBox="0 0 24 24" fill="none" xmlns="http://www.w3.org/2000/svg">
<g id="icon/deposit">
<path id="Vector" d="M12 2C6.48578 2 2 6.48578 2 12C2 17.5142 6.48578 22 12 22C17.5142 22 22 17.5142 22 12C22 6.48578 17.5142 2 12 2ZM16.375 12.8333H12.8333V16.375C12.8333 16.8351 12.4601 17.2083 12 17.2083C11.5399 17.2083 11.1667 16.8351 11.1667 16.375V12.8333H7.625C7.16495 12.8333 6.79172 12.4601 6.79172 12C6.79172 11.5399 7.16495 11.1667 7.625 11.1667H11.1667V7.625C11.1667 7.16495 11.5399 6.79172 12 6.79172C12.4601 6.79172 12.8333 7.16495 12.8333 7.625V11.1667H16.375C16.8351 11.1667 17.2083 11.5399 17.2083 12C17.2083 12.4601 16.8351 12.8333 16.375 12.8333Z" fill="#CCCCCC"/>
</g>
</svg>
