<svg width="24" height="24" viewBox="0 0 24 24" fill="none" xmlns="http://www.w3.org/2000/svg">
<g id="Icon/ One88 - &#196;&#144;K khuy&#225;&#186;&#191;n m&#195;&#163;i">
<path id="Vector" d="M21.6766 13.4546L20.9159 12.3318C20.7792 12.1303 20.7792 11.8698 20.9159 11.668L21.6769 10.5447C22.3697 9.52024 21.9009 8.14794 20.7186 7.71396L19.4165 7.23479C19.1825 7.14869 19.0228 6.93776 19.0099 6.6976L18.9382 5.36004C18.8733 4.14384 17.6581 3.29423 16.4304 3.60978L15.084 3.95763C14.8429 4.01989 14.5836 3.93977 14.4265 3.75259L13.5496 2.7108C12.7516 1.76218 11.2455 1.76374 10.4499 2.71146L9.57297 3.75267C9.41591 3.93989 9.15705 4.0204 8.91593 3.9577L7.56956 3.61009C6.3452 3.29333 5.12637 4.14235 5.06134 5.36011L4.98968 6.69792C4.97687 6.93803 4.81757 7.14881 4.58352 7.23486L3.2814 7.71365C2.09767 8.14904 1.63035 9.52195 2.3235 10.5457L3.08359 11.6676C3.22032 11.8694 3.22032 12.1304 3.08404 12.3318L2.3235 13.4546C1.63067 14.476 2.09694 15.8514 3.2814 16.2862L4.58352 16.7651C4.81757 16.8514 4.97687 17.0622 4.98968 17.3023L5.06134 18.6401C5.12624 19.8561 6.34247 20.7062 7.56956 20.3901L8.91593 20.0421C9.15664 19.98 9.41501 20.06 9.57341 20.2478L10.4499 21.289C11.2464 22.2357 12.7501 22.2381 13.5501 21.2894L14.4266 20.2478C14.5846 20.06 14.8425 19.9805 15.0837 20.0421L16.4313 20.3906C17.6535 20.7052 18.8732 19.8596 18.9382 18.6401L19.0099 17.3027C19.0227 17.0622 19.1824 16.8514 19.4165 16.7651L20.7186 16.2866C21.902 15.8514 22.3698 14.4783 21.6766 13.4546ZM9.25128 8.48239C10.0008 8.48239 10.6105 9.06801 10.6105 9.78789C10.6105 10.5078 10.0008 11.0934 9.25128 11.0934C8.50176 11.0934 7.8921 10.5078 7.8921 9.78789C7.8921 9.06801 8.5018 8.48239 9.25128 8.48239ZM14.235 15.8803C13.4855 15.8803 12.8758 15.2947 12.8758 14.5748C12.8758 13.8549 13.4855 13.2693 14.235 13.2693C14.9845 13.2693 15.5942 13.8549 15.5942 14.5748C15.5942 15.2947 14.9845 15.8803 14.235 15.8803ZM15.3951 9.59668L9.05221 15.6891C8.78673 15.944 8.3567 15.944 8.09121 15.6891C7.82577 15.4341 7.82577 15.021 8.09121 14.766L14.4341 8.67364C14.6995 8.41868 15.1297 8.41868 15.3951 8.67364C15.6606 8.9286 15.6606 9.34168 15.3951 9.59668Z" fill="#CCCCCC"/>
</g>
</svg>
