<svg width="100" height="100" viewBox="0 0 100 100" fill="none" xmlns="http://www.w3.org/2000/svg">
<path fill-rule="evenodd" clip-rule="evenodd" d="M80.9219 43.152V38.5879C80.9219 37.3457 80.4281 36.1535 79.5484 35.2738C78.6687 34.3957 77.4766 33.9004 76.2344 33.9004C70.6391 33.9004 61.4219 33.9004 56.4875 33.9004C54.4766 33.9004 52.6906 35.1832 52.0469 37.0879L51.6016 38.4645H23.1094C21.8656 38.4645 20.6734 38.9582 19.7937 39.8379C18.9156 40.716 18.4219 41.9082 18.4219 43.152H80.9219Z" fill="#F9F9F9"/>
<path fill-rule="evenodd" clip-rule="evenodd" d="M18.2017 77.8398C18.2017 77.8398 19.4189 85.6273 20.2751 91.1133C20.811 94.5352 23.7579 97.0586 27.2235 97.0586H72.7735C76.2392 97.0586 79.186 94.5352 79.722 91.1133C81.1282 82.1102 83.9907 63.7867 85.5814 53.6133C85.897 51.5836 85.311 49.5164 83.9751 47.9555C82.6392 46.3945 80.6876 45.4961 78.6329 45.4961C64.8501 45.4961 35.147 45.4961 21.3642 45.4961C19.3095 45.4961 17.3579 46.3945 16.022 47.9555C14.686 49.5164 14.1001 51.5836 14.4157 53.6133C15.6954 61.8023 17.6079 74.0398 17.6079 74.0398C17.6751 74.4648 18.0751 74.757 18.5001 74.6914C18.9267 74.6242 19.2189 74.2242 19.1517 73.7977L15.9595 53.3711C15.7142 51.793 16.1704 50.1852 17.2079 48.9711C18.247 47.757 19.7657 47.0586 21.3642 47.0586H78.6329C80.2314 47.0586 81.7501 47.757 82.7892 48.9711C83.8267 50.1852 84.2829 51.793 84.0376 53.3711C82.447 63.5445 79.5845 81.868 78.1782 90.8711C77.761 93.5336 75.4689 95.4961 72.7735 95.4961C62.0345 95.4961 37.9626 95.4961 27.2235 95.4961C24.5282 95.4961 22.236 93.5336 21.8189 90.8711C20.9626 85.3867 19.7454 77.5992 19.7454 77.5992C19.6798 77.1727 19.2798 76.8805 18.8532 76.9477C18.4267 77.0148 18.136 77.4148 18.2017 77.8398Z" fill="#666666"/>
<path fill-rule="evenodd" clip-rule="evenodd" d="M26.8984 85.0647V86.6631C26.8984 88.8209 28.6484 90.5693 30.8047 90.5693H43.3047C45.4625 90.5693 47.2109 88.8209 47.2109 86.6631V83.5381C47.2109 81.3818 45.4625 79.6318 43.3047 79.6318H30.8047C29.7297 79.6318 28.7547 80.0678 28.0469 80.7725C27.7422 81.0771 27.7422 81.5709 28.0453 81.8771C28.35 82.1818 28.8453 82.1834 29.15 81.8787C29.575 81.4553 30.1594 81.1943 30.8047 81.1943H43.3047C44.6 81.1943 45.6484 82.2443 45.6484 83.5381V86.6631C45.6484 87.9584 44.6 89.0068 43.3062 89.0068C43.3047 89.0068 30.8047 89.0068 30.8047 89.0068C29.5109 89.0068 28.4625 87.9584 28.4609 86.6631V85.0647C28.4609 84.635 28.1109 84.2834 27.6797 84.2834C27.25 84.2834 26.8984 84.635 26.8984 85.0647Z" fill="#666666"/>
<path fill-rule="evenodd" clip-rule="evenodd" d="M36.8418 34.9875C37.3402 34.1203 38.0121 33.3328 38.8402 32.6485C39.1731 32.3735 39.2184 31.8797 38.9449 31.5485C38.6699 31.2156 38.1762 31.1688 37.8449 31.4438C36.8668 32.2516 36.0777 33.1844 35.4871 34.2078C35.2715 34.5813 35.4012 35.0594 35.7746 35.275C36.1481 35.4891 36.6262 35.361 36.8418 34.9875Z" fill="#666666"/>
<path fill-rule="evenodd" clip-rule="evenodd" d="M41.8444 30.8999C43.0975 30.3999 44.5256 30.0577 46.1116 29.8983C46.5397 29.8561 46.8538 29.4733 46.81 29.0436C46.7678 28.6155 46.385 28.3015 45.9553 28.3436C44.2131 28.5186 42.6444 28.8999 41.2663 29.4468C40.8663 29.6061 40.6694 30.0608 40.8288 30.4624C40.9881 30.8624 41.4428 31.0593 41.8444 30.8999Z" fill="#666666"/>
<path fill-rule="evenodd" clip-rule="evenodd" d="M49.9373 29.8691C51.7857 30.0081 53.4763 30.0378 55.0201 29.9722C55.4513 29.955 55.7857 29.591 55.7685 29.1597C55.7498 28.7285 55.3857 28.3941 54.9544 28.4113C53.4654 28.4738 51.8357 28.4441 50.056 28.3097C49.6248 28.2785 49.2498 28.6003 49.2169 29.03C49.1857 29.4613 49.5076 29.8363 49.9373 29.8691Z" fill="#666666"/>
<path fill-rule="evenodd" clip-rule="evenodd" d="M59.241 29.5096C61.0644 29.1674 62.6081 28.6612 63.9066 28.0377C64.2956 27.8502 64.4597 27.3831 64.2738 26.9956C64.0863 26.6065 63.6191 26.4424 63.23 26.6284C62.041 27.2002 60.6238 27.6612 58.9535 27.9752C58.5285 28.0549 58.2503 28.4627 58.33 28.8862C58.4097 29.3112 58.8175 29.5893 59.241 29.5096Z" fill="#666666"/>
<path fill-rule="evenodd" clip-rule="evenodd" d="M67.0888 25.8674C68.4888 24.5159 69.3107 22.9596 69.681 21.3768C69.7794 20.9565 69.5185 20.5362 69.0982 20.4378C68.6794 20.3393 68.2575 20.6003 68.1607 21.0206C67.8529 22.3346 67.1654 23.6221 66.0044 24.7424C65.6935 25.0424 65.6857 25.5378 65.9841 25.8471C66.2841 26.1581 66.7794 26.1674 67.0888 25.8674Z" fill="#666666"/>
<path fill-rule="evenodd" clip-rule="evenodd" d="M69.3093 15.9977C68.6905 14.3509 67.6374 12.9524 66.3577 12.0681C66.003 11.8243 65.5155 11.9134 65.2702 12.2681C65.0264 12.6227 65.1155 13.1102 65.4702 13.354C66.5077 14.0696 67.3452 15.2134 67.8468 16.5477C67.9983 16.9509 68.4499 17.1556 68.853 17.004C69.2561 16.8524 69.4608 16.4009 69.3093 15.9977Z" fill="#666666"/>
<path fill-rule="evenodd" clip-rule="evenodd" d="M48.9519 12.0644C49.8113 8.03935 53.23 6.08154 55.6956 6.06748C56.5034 6.06279 57.205 6.25342 57.5706 6.74092C57.7847 7.02998 57.8503 7.41748 57.7691 7.89248C57.6956 8.31748 57.98 8.72217 58.405 8.7956C58.83 8.86904 59.2347 8.5831 59.3081 8.1581C59.4769 7.18154 59.2644 6.39873 58.8222 5.80654C58.2003 4.97373 57.0644 4.49716 55.6863 4.50498C52.6863 4.52216 48.4691 6.83935 47.4238 11.7394C47.3331 12.1612 47.6034 12.5753 48.0253 12.6659C48.4472 12.7565 48.8613 12.4862 48.9519 12.0644Z" fill="#666666"/>
<path fill-rule="evenodd" clip-rule="evenodd" d="M47.4322 12.0675C48.4884 16.9425 52.6916 19.2487 55.6837 19.2675C57.1666 19.2753 58.3681 18.7237 58.9572 17.769C59.3103 17.194 59.465 16.4612 59.3009 15.5659C59.0962 14.4643 58.3712 13.0534 56.8541 11.3768C56.565 11.0581 56.0712 11.0331 55.7509 11.3221C55.4322 11.6112 55.4072 12.1065 55.6962 12.4268C56.7541 13.594 57.3806 14.5893 57.6541 15.4253C57.8634 16.0628 57.8572 16.5737 57.6259 16.9503C57.4181 17.2878 57.0416 17.494 56.5916 17.6065C56.0244 17.7471 55.3431 17.7362 54.6275 17.5846C52.3337 17.1003 49.7056 15.1831 48.9587 11.7362C48.8681 11.3143 48.4509 11.0471 48.0291 11.1378C47.6087 11.23 47.34 11.6456 47.4322 12.0675Z" fill="#666666"/>
<path fill-rule="evenodd" clip-rule="evenodd" d="M47.9844 13.4648H58.4453C59.3078 13.4648 60.0078 12.7648 60.0078 11.9023C60.0078 11.0398 59.3078 10.3398 58.4453 10.3398H47.9844C47.1219 10.3398 46.4219 11.0398 46.4219 11.9023C46.4219 12.7648 47.1219 13.4648 47.9844 13.4648Z" fill="#F9F9F9"/>
</svg>
