<svg width="24" height="24" viewBox="0 0 24 24" fill="none" xmlns="http://www.w3.org/2000/svg">
<g id="Icon/ Game Lobby - Esports">
<g id="Vector">
<path d="M17.2055 9.78727C17.1562 9.78727 17.1102 9.78727 17.0904 9.79057H12.4637V8.75801C12.4637 8.50481 12.6708 8.29764 12.9273 8.29764H15.6074C16.2256 8.29764 16.7452 7.88224 16.7452 7.26731C16.7452 6.64909 16.2256 6.23813 15.6074 6.23813H8.75435C8.44853 6.23813 8.19291 6.06512 8.19291 5.7593C8.19291 5.45676 8.44853 5.28074 8.75435 5.28074H11.3456L11.4766 5.22961L11.5977 5.13586L11.6513 4.9771C11.6513 4.79624 11.5265 4.62305 11.3456 4.62305L8.75435 4.62306C8.08682 4.62306 7.53524 5.09504 7.53524 5.7593C7.53524 6.42684 8.08682 6.89581 8.75435 6.89581H15.6074C15.8606 6.89581 16.0875 7.01082 16.0875 7.26731C16.0875 7.52052 15.8606 7.63996 15.6074 7.63996H12.9273C12.3091 7.63996 11.806 8.14308 11.806 8.75801V9.79057H6.93588C6.88655 9.78727 6.84052 9.78727 6.79119 9.78727C4.1506 9.78727 2 11.9379 2 14.5818C2 17.2256 4.1506 19.3762 6.79119 19.3762C6.84052 19.3762 6.88327 19.3762 6.90627 19.3729L17.0641 19.3697C17.1135 19.3762 17.1562 19.3762 17.2055 19.3762C19.8494 19.3762 22 17.2256 22 14.5818C22 11.9379 19.8494 9.78727 17.2055 9.78727ZM9.59947 15.1638C9.59947 15.4236 9.38573 15.6373 9.12267 15.6373H7.85004V16.9132C7.85004 17.1763 7.63631 17.39 7.37324 17.39H6.20914C5.94936 17.39 5.73561 17.1763 5.73561 16.9132V15.6373H4.45971C4.19664 15.6373 3.98291 15.4236 3.98291 15.1638V13.9997C3.98291 13.7366 4.19664 13.5229 4.45971 13.5229H5.73561V12.247C5.73561 11.9872 5.94936 11.7735 6.20914 11.7735H7.37324C7.63631 11.7735 7.85004 11.9872 7.85004 12.247V13.5229H9.12267C9.38573 13.5229 9.59947 13.7366 9.59947 13.9997V15.1638ZM17.2055 11.4644C17.8237 11.4644 18.3269 11.9675 18.3269 12.5857C18.3269 13.2039 17.8237 13.707 17.2055 13.707C16.5906 13.707 16.0875 13.2039 16.0875 12.5857C16.0875 11.9675 16.5906 11.4644 17.2055 11.4644ZM15.2128 15.6998C14.5945 15.6998 14.0914 15.2 14.0914 14.5818C14.0914 13.9635 14.5945 13.4604 15.2128 13.4604C15.831 13.4604 16.3341 13.9635 16.3341 14.5818C16.3341 15.2 15.831 15.6998 15.2128 15.6998ZM17.2055 17.6959C16.5906 17.6959 16.0875 17.1927 16.0875 16.5745C16.0875 15.9563 16.5906 15.4532 17.2055 15.4532C17.8237 15.4532 18.3269 15.9563 18.3269 16.5745C18.3269 17.1927 17.8237 17.6959 17.2055 17.6959ZM19.2016 15.6998C18.5834 15.6998 18.0802 15.2 18.0802 14.5818C18.0802 13.9635 18.5834 13.4604 19.2016 13.4604C19.8198 13.4604 20.3229 13.9635 20.3229 14.5818C20.3229 15.2 19.8198 15.6998 19.2016 15.6998Z" fill="#CCCCCC"/>
<path d="M7.19236 13.7038V12.4312H6.39329V13.7038C6.39329 13.9668 6.17955 14.1806 5.91649 14.1806H4.64059V14.9797H5.91649C6.17955 14.9797 6.39329 15.1934 6.39329 15.4565V16.7324H7.19236V15.4565C7.19236 15.1934 7.40612 14.9797 7.66918 14.9797H8.94179V14.1806H7.66918C7.40612 14.1806 7.19236 13.9668 7.19236 13.7038Z" fill="#CCCCCC"/>
<path d="M15.2128 14.1181C14.9563 14.1181 14.7491 14.3253 14.7491 14.5818C14.7491 14.835 14.9563 15.0421 15.2128 15.0421C15.4693 15.0421 15.6764 14.835 15.6764 14.5818C15.6764 14.3253 15.4693 14.1181 15.2128 14.1181Z" fill="#CCCCCC"/>
<path d="M17.2055 16.1109C16.9523 16.1109 16.7452 16.318 16.7452 16.5745C16.7452 16.831 16.9523 17.0382 17.2055 17.0382C17.462 17.0382 17.6692 16.831 17.6692 16.5745C17.6692 16.318 17.462 16.1109 17.2055 16.1109Z" fill="#CCCCCC"/>
<path d="M19.2016 14.1181C18.9451 14.1181 18.7379 14.3253 18.7379 14.5818C18.7379 14.835 18.9451 15.0421 19.2016 15.0421C19.4581 15.0421 19.6653 14.835 19.6653 14.5818C19.6653 14.3253 19.4581 14.1181 19.2016 14.1181Z" fill="#CCCCCC"/>
<path d="M17.2055 13.0494C17.462 13.0494 17.6692 12.8422 17.6692 12.5857C17.6692 12.3325 17.462 12.122 17.2055 12.122C16.9523 12.122 16.7452 12.3325 16.7452 12.5857C16.7452 12.8422 16.9523 13.0494 17.2055 13.0494Z" fill="#CCCCCC"/>
</g>
</g>
</svg>
