<svg xmlns="http://www.w3.org/2000/svg" width="20" height="20" viewBox="0 0 20 20" fill="none">
  <g clip-path="url(#clip0_1_21261)">
    <path d="M14.4351 20.0381C15.8577 20.0381 17.0293 18.8665 17.0293 17.5276C17.0293 12.172 17.0293 8.15524 17.0293 2.54855C17.0293 1.12595 15.8577 0.0380859 14.4351 0.0380859H5.56485C4.14225 0.0380859 2.9707 1.20963 2.9707 2.54855V17.5276C2.9707 18.9502 4.14225 20.0381 5.56485 20.0381H14.4351ZM9.99999 18.3644C9.58158 18.3644 9.16317 18.0297 9.16317 17.5276C9.16317 17.0255 9.58158 16.6908 9.99999 16.6908C10.5021 16.6908 10.8368 17.0255 10.8368 17.5276C10.8368 17.946 10.5021 18.3644 9.99999 18.3644ZM4.64434 2.46486C4.64434 1.96277 5.06275 1.62804 5.56485 1.62804H14.4351C14.9372 1.62804 15.3556 2.04645 15.3556 2.46486V14.9335H4.64434V2.46486Z" fill="#2189FF"/>
    <path fill-rule="evenodd" clip-rule="evenodd" d="M10.0696 4.43384C7.90318 4.43384 6.14697 6.19005 6.14697 8.35643C6.14697 10.5228 7.90318 12.279 10.0696 12.279C12.236 12.279 13.9922 10.5228 13.9922 8.35643C13.9922 6.19005 12.236 4.43384 10.0696 4.43384ZM11.8938 6.80452C12.1492 7.05982 12.1492 7.47378 11.8938 7.72908L9.71464 9.90834C9.59206 10.0309 9.42574 10.0998 9.25236 10.0998C9.07898 10.0998 8.91266 10.0309 8.79008 9.90834L7.97287 9.09113C7.71758 8.83577 7.71758 8.42187 7.97287 8.16651C8.22817 7.91122 8.64213 7.91122 8.89743 8.16651L9.25236 8.52144L10.9693 6.80452C11.2246 6.54923 11.6385 6.54923 11.8938 6.80452Z" fill="#2189FF"/>
  </g>
  <defs>
    <clipPath id="clip0_1_21261">
      <rect width="20" height="20" fill="white" transform="translate(0 -0.000976562)"/>
    </clipPath>
  </defs>
</svg>