<svg width="20" height="20" viewBox="0 0 20 20" fill="none" xmlns="http://www.w3.org/2000/svg">
<path fill-rule="evenodd" clip-rule="evenodd" d="M0 4.6409C0 3.45744 0.959393 2.49805 2.14286 2.49805H17.8571C19.0406 2.49805 20 3.45744 20 4.6409V5.35519H0V4.6409ZM0 6.78376H20V14.6409C20 15.8244 19.0406 16.7838 17.8571 16.7838H2.14286C0.959393 16.7838 0 15.8244 0 14.6409V6.78376ZM11.4286 11.7838C11.0341 11.7838 10.7143 12.1035 10.7143 12.498C10.7143 12.8925 11.0341 13.2123 11.4286 13.2123H15.7143C16.1088 13.2123 16.4286 12.8925 16.4286 12.498C16.4286 12.1035 16.1088 11.7838 15.7143 11.7838H11.4286Z" fill="#2189FF"/>
<path fill-rule="evenodd" clip-rule="evenodd" d="M0 4.6409C0 3.45744 0.959393 2.49805 2.14286 2.49805H17.8571C19.0406 2.49805 20 3.45744 20 4.6409V5.35519H0V4.6409Z" fill="#2189FF"/>
</svg>
