<svg xmlns="http://www.w3.org/2000/svg" width="20" height="20" viewBox="0 0 20 20" fill="none">
  <path d="M17 6.49805V11.7481C16.9985 13.14 16.4449 14.4745 15.4607 15.4587C14.4764 16.4429 13.1419 16.9966 11.75 16.9981H6.5C6.26794 16.9981 6.04538 17.0903 5.88128 17.2544C5.71719 17.4185 5.625 17.641 5.625 17.8731C5.625 18.1052 5.71719 18.3277 5.88128 18.4918C6.04538 18.6559 6.26794 18.7481 6.5 18.7481H11.75C13.6059 18.746 15.3851 18.0078 16.6974 16.6955C18.0097 15.3832 18.7479 13.6039 18.7501 11.7481V6.49805C18.7501 6.26599 18.6579 6.04342 18.4938 5.87933C18.3297 5.71523 18.1071 5.62305 17.875 5.62305C17.643 5.62305 17.4204 5.71523 17.2563 5.87933C17.0922 6.04342 17 6.26599 17 6.49805Z" fill="#2189FF"/>
  <path d="M11.75 16.1231C12.91 16.1217 14.022 15.6604 14.8421 14.8402C15.6623 14.02 16.1237 12.908 16.1251 11.7481V5.62306C16.1237 4.46316 15.6623 3.35115 14.8421 2.53097C14.022 1.71079 12.91 1.24941 11.75 1.24805H5.62502C4.46511 1.24941 3.3531 1.71079 2.53292 2.53097C1.71274 3.35115 1.25137 4.46316 1.25 5.62306V11.7481C1.25137 12.908 1.71274 14.02 2.53292 14.8402C3.3531 15.6604 4.46511 16.1217 5.62502 16.1231H11.75ZM6.33377 7.73541L7.45229 9.28207L11.1557 5.85555C11.3261 5.69793 11.5521 5.61447 11.7841 5.62353C12.0161 5.63259 12.2349 5.73342 12.3926 5.90385C12.5502 6.07428 12.6336 6.30034 12.6246 6.53231C12.6155 6.76427 12.5147 6.98314 12.3443 7.14076L7.91639 11.2371C7.82551 11.3211 7.71784 11.3849 7.60049 11.4242C7.48313 11.4636 7.35877 11.4776 7.23561 11.4653C7.11245 11.453 6.99329 11.4148 6.88601 11.3531C6.77873 11.2913 6.68576 11.2075 6.61325 11.1072L4.91627 8.76074C4.78712 8.57249 4.73666 8.34123 4.77565 8.11629C4.81465 7.89136 4.94 7.69057 5.12498 7.55677C5.30995 7.42298 5.53988 7.36677 5.76572 7.40014C5.99156 7.43352 6.19541 7.55383 6.33377 7.73541Z" fill="#2189FF"/>
</svg>