<svg width="20" height="20" viewBox="0 0 20 20" fill="none" xmlns="http://www.w3.org/2000/svg">
<g clip-path="url(#clip0_15178_72066)">
<path d="M18.5938 2.77247C18.5938 1.58574 17.6321 0.624023 16.4453 0.624023H7.46094C6.27422 0.624023 5.3125 1.58574 5.3125 2.77247V13.3194C5.3125 14.5061 6.27422 15.4678 7.46094 15.4678H16.4453C17.6321 15.4678 18.5938 14.5061 18.5938 13.3194V2.77247ZM14.8828 11.9522H9.02345C8.70001 11.9522 8.43751 11.6897 8.43751 11.3662C8.43751 11.0428 8.70001 10.7803 9.02345 10.7803H14.8828C15.2063 10.7803 15.4688 11.0428 15.4688 11.3662C15.4688 11.6897 15.2063 11.9522 14.8828 11.9522ZM14.8828 9.60842H9.02345C8.70001 9.60842 8.43751 9.34592 8.43751 9.02248C8.43751 8.69904 8.70001 8.43654 9.02345 8.43654H14.8828C15.2063 8.43654 15.4688 8.69904 15.4688 9.02248C15.4688 9.34592 15.2063 9.60842 14.8828 9.60842ZM14.8828 7.26467H9.02345C8.70001 7.26467 8.43751 7.00216 8.43751 6.67873C8.43751 6.35529 8.70001 6.09279 9.02345 6.09279H14.8828C15.2063 6.09279 15.4688 6.35529 15.4688 6.67873C15.4688 7.00216 15.2063 7.26467 14.8828 7.26467Z" fill="#2189FF"/>
<path d="M7.46095 16.6397C5.6297 16.6397 4.14063 15.1498 4.14063 13.3194V2.77246C4.14063 2.70527 4.15626 2.64277 4.16016 2.57715H3.55469C2.36953 2.57715 1.40625 3.54043 1.40625 4.72559V17.2256C1.40625 18.4108 2.36953 19.3741 3.55469 19.3741H12.9297C14.1149 19.3741 15.0782 18.4108 15.0782 17.2256V16.6397H7.46095Z" fill="#2189FF"/>
</g>
<defs>
<clipPath id="clip0_15178_72066">
<rect width="20" height="20" fill="white" transform="translate(0 -0.000976562)"/>
</clipPath>
</defs>
</svg>
