<svg width="20" height="20" viewBox="0 0 20 20" fill="none" xmlns="http://www.w3.org/2000/svg">
<g clip-path="url(#clip0_14546_13808)">
<path d="M15.1426 10.4512C16.2121 9.70749 16.8578 8.49093 16.8578 7.16351C16.8578 4.95433 15.0605 3.15698 12.8513 3.15698C11.532 3.15698 10.3153 3.80034 9.57031 4.86366C12.239 5.66749 14.3459 7.77948 15.1426 10.4512Z" fill="#2189FF"/>
<path d="M8.35434 4.59559C9.27664 2.98176 10.9845 1.98594 12.8508 1.98594C15.7056 1.98594 18.0282 4.30852 18.0282 7.16332C18.0282 9.04043 17.0291 10.7457 15.4065 11.6664C15.4593 12.0441 15.4872 12.4298 15.4872 12.8218C15.4872 13.1755 15.4649 13.5241 15.4218 13.8663C18.0984 12.8229 20 10.2175 20 7.17621C20 3.21871 16.7804 -0.000976562 12.8229 -0.000976562C9.78149 -0.000976562 7.17621 1.9007 6.13281 4.57731C6.475 4.53422 6.82355 4.51184 7.17723 4.51184C7.5768 4.51184 7.96965 4.54082 8.35434 4.59559Z" fill="#2189FF"/>
<path d="M1.17086 4.61537C1.17086 3.41604 2.14656 2.44033 3.3459 2.44033H3.40434L2.97891 2.8658L3.80684 3.69373L5.64566 1.85494L3.8068 0.0161133L2.97891 0.844043L3.40434 1.26951H3.3459C1.50094 1.26947 0 2.77045 0 4.61537V5.954H1.17086V4.61537Z" fill="#2189FF"/>
<path d="M18.8303 15.3825C18.8303 16.5818 17.8546 17.5575 16.6552 17.5575H16.5968L17.0222 17.1321L16.1943 16.3041L14.3555 18.1429L16.1943 19.9817L17.0222 19.1538L16.5968 18.7284H16.6552C18.5002 18.7284 20.0011 17.2274 20.0011 15.3825V14.0438H18.8303V15.3825Z" fill="#2189FF"/>
<path d="M6.39404 12.2361H8.464C8.724 12.2361 8.93557 12.0246 8.93557 11.7646C8.93557 11.5045 8.724 11.293 8.464 11.293H6.39404V12.2361Z" fill="#2189FF"/>
<path d="M8.464 13.4072H6.39404V14.3504H8.464C8.724 14.3504 8.93557 14.1388 8.93557 13.8788C8.93557 13.6188 8.724 13.4072 8.464 13.4072Z" fill="#2189FF"/>
<path d="M14.3544 12.822C14.3544 8.86446 11.1347 5.64478 7.17719 5.64478C3.21969 5.64478 0 8.86446 0 12.822C0 16.7795 3.21969 19.9992 7.17719 19.9992C11.1347 19.9992 14.3544 16.7795 14.3544 12.822ZM8.58008 15.5168V16.457H7.40922V15.5214H6.39434V16.457H5.22344V15.5214H4.24766V14.3506H5.22348V11.2934H4.24766V10.1225H5.22348V9.18692H6.39434V10.1225H7.40922V9.18692H8.58008V10.1271C9.43184 10.1868 10.1067 10.8983 10.1067 11.765C10.1067 12.1673 9.96109 12.5361 9.72008 12.822C9.96109 13.1079 10.1067 13.4767 10.1067 13.879C10.1067 14.7456 9.43184 15.4572 8.58008 15.5168Z" fill="#2189FF"/>
</g>
<defs>
<clipPath id="clip0_14546_13808">
<rect width="20" height="20" fill="white" transform="translate(0 -0.000976562)"/>
</clipPath>
</defs>
</svg>
