<svg xmlns="http://www.w3.org/2000/svg" width="20" height="20" viewBox="0 0 20 20" fill="none">
  <path d="M18.1632 6.47631C17.7551 6.47631 17.3469 6.16952 17.3469 5.65812V3.61272C17.3469 2.89682 16.7346 2.38542 16.1224 2.38542L14.0816 2.38542C13.6734 2.38542 13.2653 2.07862 13.2653 1.56722C13.2653 1.05592 13.5714 0.749025 14.0816 0.749025L16.1224 0.749026C17.653 0.749026 18.9795 1.97632 18.9795 3.61272V5.65812C18.9795 6.06722 18.5714 6.47631 18.1632 6.47631Z" fill="#2189FF"/>
  <path d="M14.0816 17.1127L16.1224 17.1127C16.8367 17.1127 17.3469 16.499 17.3469 15.8854V13.84C17.3469 13.4309 17.6531 13.0218 18.1633 13.0218C18.6735 13.0218 18.9796 13.3286 18.9796 13.84V15.8854C18.9796 17.4195 17.7551 18.749 16.1224 18.749L14.0816 18.749C13.6735 18.749 13.2653 18.4422 13.2653 17.9309C13.2653 17.4195 13.6735 17.1127 14.0816 17.1127Z" fill="#2189FF"/>
  <path d="M5.91837 2.38542L3.87756 2.38542C3.16327 2.38542 2.65307 2.99902 2.65307 3.61272L2.65307 5.65811C2.65307 6.06721 2.34695 6.47631 1.83674 6.47631C1.32655 6.47631 1.02043 6.06721 1.02043 5.65811L1.02043 3.61272C1.02043 2.07862 2.24491 0.749023 3.87756 0.749023L5.91837 0.749024C6.32654 0.749024 6.73469 1.05592 6.73469 1.56722C6.73469 2.07862 6.32654 2.38542 5.91837 2.38542Z" fill="#2189FF"/>
  <path d="M1.83676 13.0218C2.24493 13.0218 2.65309 13.3286 2.65309 13.8399V15.8854C2.65309 16.6013 3.26534 17.1127 3.87758 17.1127H5.91839C6.32655 17.1127 6.73471 17.4195 6.73471 17.9309C6.73471 18.4422 6.32655 18.749 5.91839 18.749H3.87758C2.34697 18.749 1.02044 17.4195 1.02044 15.8854L1.02044 13.8399C1.02044 13.4309 1.4286 13.0218 1.83676 13.0218Z" fill="#2189FF"/>
  <path d="M14.0816 3.6127C15.2041 3.6127 16.1225 4.5331 16.1225 5.6581L16.1225 7.499L3.87759 7.499V5.6581C3.87759 4.5331 4.79596 3.6127 5.91841 3.6127L14.0816 3.6127Z" fill="#2189FF"/>
  <path d="M19.1837 10.5672H16.1225V13.8399C16.1225 14.9649 15.2041 15.8853 14.0816 15.8853L5.91839 15.8853C4.79594 15.8853 3.87758 14.9649 3.87758 13.8399L3.87758 10.3626H0.816361C0.408193 10.3626 3.52472e-05 10.0558 3.52919e-05 9.54439C3.53366e-05 9.03309 0.306155 8.72629 0.816363 8.72629L19.1837 8.72629C19.5918 8.72629 20 9.03309 20 9.54439C20 10.0558 19.5918 10.5672 19.1837 10.5672Z" fill="#2189FF"/>
  <path d="M19.1837 10.5659L16.1225 10.5659C13.7942 10.5661 13.6225 10.5659 12.5 10.5659L6.49999 10.5659C5.37754 10.5659 5.14407 10.5659 3.86886 10.5659H0.816328C0.18807 10.5659 -1.23253e-07 10.248 0 9.54312C8.93984e-08 9.03182 0.30612 8.72502 0.816329 8.72502L19.1837 8.72503C19.5918 8.72503 20 9.03183 20 9.54312C20 10.0545 19.5918 10.5659 19.1837 10.5659Z" fill="#2189FF"/>
</svg>