<svg width="20" height="20" viewBox="0 0 20 20" fill="none" xmlns="http://www.w3.org/2000/svg">
<g clip-path="url(#clip0_14546_13815)">
<path d="M11.0961 3.52655C11.0961 3.30806 11.0102 3.10178 10.854 2.94565C10.6979 2.78952 10.4916 2.70353 10.2732 2.70356H8.85248V4.34925H10.2866C10.7341 4.34202 11.0961 3.97588 11.0961 3.52655Z" fill="#2189FF"/>
<path d="M8.85248 5.22207L10.5058 5.22172C10.7814 5.2217 11.0417 5.33013 11.2385 5.52702C11.4354 5.72391 11.5438 5.98417 11.5438 6.25989C11.5438 6.83231 11.0781 7.29803 10.5058 7.29803H8.85248V5.22207Z" fill="#2189FF"/>
<path fill-rule="evenodd" clip-rule="evenodd" d="M4.62402 5.00098C4.62402 2.24397 6.86702 0.000976562 9.62402 0.000976562C12.381 0.000976562 14.624 2.24397 14.624 5.00098C14.624 7.75798 12.381 10.001 9.62402 10.001C6.86702 10.001 4.62402 7.75798 4.62402 5.00098ZM10.0601 8.17013H10.5058C11.559 8.17013 12.4159 7.31322 12.4158 6.25993C12.4159 5.75127 12.2168 5.27199 11.8552 4.91037C11.7575 4.81263 11.651 4.72723 11.5378 4.65397C11.8052 4.3542 11.9682 3.95932 11.9682 3.52694C11.9682 3.07554 11.7916 2.65022 11.4707 2.32935C11.1498 2.00848 10.7245 1.83179 10.2732 1.83182H10.0601V0.989349H9.18798V1.83182H7.26824V2.70391H7.98039V7.29804H7.26824V8.17013H9.18798V9.0126H10.0601V8.17013Z" fill="#2189FF"/>
<path fill-rule="evenodd" clip-rule="evenodd" d="M20 11.8383C19.9803 11.3549 19.5794 10.9633 19.0885 10.9633H15.8879C15.3875 10.9633 14.9756 11.3752 14.9756 11.8755V14.0083C14.9756 14.5117 15.3875 14.9205 15.8879 14.9205H19.0885C19.5794 14.9205 19.9803 14.5318 20 14.0457V11.8383ZM16.7513 11.8206C17.3768 11.8206 17.8863 12.3271 17.8863 12.9526C17.8863 13.5781 17.3768 14.0876 16.7513 14.0876C16.1259 14.0876 15.6194 13.5781 15.6194 12.9526C15.6194 12.3271 16.1259 11.8206 16.7513 11.8206Z" fill="#2189FF"/>
<path d="M0 17.6819C0 18.9573 1.04348 20.0008 2.32189 20.0008H16.8269C18.1053 20.0008 19.1487 18.9573 19.1487 17.6819V15.5248C19.1381 15.5248 19.1281 15.5256 19.1182 15.5263C19.1083 15.5271 19.0984 15.5278 19.0877 15.5278H15.8871C15.0542 15.5278 14.3707 14.8444 14.3707 14.0084V11.8757C14.3707 11.0427 15.0542 10.3593 15.8871 10.3593H19.0877C19.1091 10.3593 19.1274 10.3593 19.1487 10.3623V8.15637C19.1487 6.90847 18.1266 5.8833 16.8757 5.8833H15.5942C15.1823 8.83372 12.6499 11.1068 9.58658 11.1068C6.52326 11.1068 3.99085 8.83372 3.57895 5.8833H2.27307C1.02212 5.8833 0 6.90847 0 8.15637V17.6819Z" fill="#2189FF"/>
</g>
<defs>
<clipPath id="clip0_14546_13815">
<rect width="20" height="20" fill="white" transform="translate(0 -0.000976562)"/>
</clipPath>
</defs>
</svg>
