<svg width="20" height="20" viewBox="0 0 20 20" fill="none" xmlns="http://www.w3.org/2000/svg">
<path d="M10.4059 19.4289C5.20739 19.4348 0.982518 15.2171 0.971454 10.0103C0.961128 4.80791 5.1978 0.568092 10.4037 0.57178C15.6067 0.575468 19.8278 4.79758 19.8286 9.99924C19.8301 15.2002 15.6096 19.423 10.4059 19.4289ZM10.4037 5.00764C7.62225 5.00248 5.4121 7.21327 5.40841 9.99924C5.40472 12.7823 7.61857 14.999 10.4037 15.0019C13.1859 15.0049 15.3879 12.7837 15.3916 9.99924C15.3953 7.21769 13.1896 5.01281 10.4037 5.00764Z" fill="white"/>
<path d="M11.6517 9.70123C11.9167 9.94217 12.2136 10.1385 12.4208 10.4145C12.9897 11.1743 12.8127 12.3629 12.0729 12.9794C11.2322 13.6795 9.64907 13.7269 8.79104 13.0771C7.73102 12.2747 7.81044 10.7105 8.94642 10.0294C9.00857 9.99244 9.07158 9.95734 9.14668 9.91371C9.00339 9.79419 8.86441 9.69649 8.74443 9.57508C8.04178 8.86082 8.10048 7.70358 8.87046 7.00639C9.61626 6.33007 11.0984 6.2779 11.8718 6.90015C12.7557 7.61157 12.7169 8.95567 11.7924 9.60353C11.738 9.64147 11.6836 9.67847 11.6517 9.70123ZM11.2589 11.5632C11.2529 11.0453 10.7453 10.4667 10.2939 10.461C9.92874 10.4572 9.52045 11.0064 9.52908 11.4912C9.53771 12.029 9.92357 12.4359 10.4225 12.434C10.9119 12.4321 11.265 12.065 11.2589 11.5632ZM10.3897 7.55276C9.89076 7.54896 9.56793 7.94356 9.65338 8.46906C9.70776 8.80485 9.9322 8.99077 10.1955 9.12167C10.3086 9.17763 10.4441 9.25067 10.5546 9.2279C10.9232 9.15012 11.1778 8.70146 11.1295 8.27176C11.0785 7.81551 10.8127 7.55655 10.3906 7.55371L10.3897 7.55276Z" fill="white"/>
</svg>
