<svg width="18" height="20" viewBox="0 0 18 20" fill="none" xmlns="http://www.w3.org/2000/svg">
<path d="M7.04076 9.76793L2.62328 5.35045C1.46521 6.70026 0.716692 8.41122 0.573181 10.2889H6.82446C6.87654 10.1055 6.94942 9.93096 7.04076 9.76793Z" fill="white"/>
<path d="M7.04076 12.1349C6.94942 11.9718 6.87654 11.7973 6.82446 11.6139H0.573181C0.716692 13.4916 1.46521 15.2025 2.62324 16.5524L7.04076 12.1349Z" fill="white"/>
<path d="M3.56027 17.4895C4.91009 18.6476 6.62104 19.3961 8.4987 19.5396V13.2883C8.31535 13.2362 8.14078 13.1633 7.97775 13.072L3.56027 17.4895Z" fill="white"/>
<path d="M11.4981 10.2889H17.7494C17.6059 8.41118 16.8574 6.70026 15.6994 5.35045L11.2818 9.76793C11.3732 9.93096 11.4461 10.1055 11.4981 10.2889Z" fill="white"/>
<path d="M11.2818 12.1349L15.6993 16.5524C16.8574 15.2025 17.6059 13.4916 17.7494 11.6139H11.4981C11.4461 11.7973 11.3732 11.9718 11.2818 12.1349Z" fill="white"/>
<path d="M10.3448 13.072C10.1818 13.1633 10.0072 13.2362 9.82385 13.2883V19.5396C11.7015 19.3961 13.4125 18.6476 14.7623 17.4895L10.3448 13.072Z" fill="white"/>
<path d="M8.4987 8.61493V5.48383C7.98923 5.30357 7.56462 4.91964 7.34023 4.40673L6.60492 2.72598C5.4726 3.07873 4.43975 3.65918 3.56027 4.41371L7.97775 8.83119C8.14078 8.73989 8.31535 8.667 8.4987 8.61493Z" fill="white"/>
<path d="M9.82385 5.48379V8.61488C10.0072 8.66696 10.1818 8.73984 10.3448 8.83119L14.7623 4.41371C13.8828 3.65918 12.85 3.07873 11.7177 2.72598L10.9824 4.40673C10.7579 4.91959 10.3333 5.30353 9.82385 5.48379Z" fill="white"/>
<path d="M9.16119 12.0556C9.77107 12.0556 10.2655 11.5612 10.2655 10.9514C10.2655 10.3415 9.77107 9.8471 9.16119 9.8471C8.55132 9.8471 8.05692 10.3415 8.05692 10.9514C8.05692 11.5612 8.55132 12.0556 9.16119 12.0556Z" fill="white"/>
<path d="M8.55421 3.87531C8.7858 4.40466 9.53666 4.40466 9.76825 3.87531L10.8077 1.49941C10.9992 1.06167 10.6785 0.571289 10.2007 0.571289H8.12178C7.64398 0.571289 7.32326 1.06167 7.51478 1.49941L8.55421 3.87531Z" fill="white"/>
</svg>
