<svg width="20" height="20" viewBox="0 0 20 20" fill="none" xmlns="http://www.w3.org/2000/svg">
<path fill-rule="evenodd" clip-rule="evenodd" d="M7.9724 5.28557L5.34789 1.79902C6.72337 1.02131 8.30881 0.571289 10.0001 0.571289C11.6915 0.571289 13.2769 1.02131 14.6524 1.79902L12.0279 5.28557H7.9724ZM0.571411 10.6733H4.88035L6.82457 13.9941L4.22275 17.4506C2.15357 15.854 0.768225 13.4277 0.571411 10.6733ZM5.34789 18.2007L7.9724 14.7141H12.0279L14.6524 18.2007C13.2769 18.9784 11.6915 19.4284 10.0001 19.4284C8.30881 19.4284 6.72337 18.9784 5.34789 18.2007ZM15.7772 17.4506L13.1754 13.9941L15.1196 10.6733H19.4286C19.2317 13.4277 17.8464 15.854 15.7772 17.4506ZM0.571411 9.32623H4.88035L6.82457 6.00541L4.22275 2.54895C2.15357 4.14548 0.768225 6.57184 0.571411 9.32623ZM13.1754 6.00541L15.7772 2.54895C17.8464 4.14548 19.2317 6.57184 19.4286 9.32623H15.1196L13.1754 6.00541ZM14.2857 9.99986L12.1462 13.4284H7.85373L5.71427 9.99986L7.85373 6.57129H12.1462L14.2857 9.99986Z" fill="white"/>
</svg>
