<svg xmlns="http://www.w3.org/2000/svg" width="33" height="32" viewBox="0 0 33 32" fill="none">
  <path fill-rule="evenodd" clip-rule="evenodd" d="M18.7291 4.91762L24.1181 7.99023C24.6681 8.30493 25.1252 8.75918 25.4435 9.3071C25.7617 9.85502 25.9297 10.4772 25.9305 11.1108V12.119H6.72669V11.1108C6.7275 10.4772 6.8955 9.85502 7.21371 9.3071C7.53193 8.75918 7.9891 8.30493 8.53905 7.99023L13.9281 4.91762C14.658 4.49625 15.4858 4.27441 16.3286 4.27441C17.1713 4.27441 17.9992 4.49625 18.7291 4.91762ZM15.4951 9.76578C15.7418 9.93064 16.0319 10.0186 16.3286 10.0186C16.7265 10.0186 17.1081 9.86056 17.3895 9.5792C17.6708 9.29784 17.8289 8.91623 17.8289 8.51833C17.8289 8.2216 17.7409 7.93153 17.576 7.68481C17.4112 7.43809 17.1769 7.24579 16.9027 7.13224C16.6286 7.01868 16.3269 6.98897 16.0359 7.04686C15.7449 7.10475 15.4775 7.24764 15.2677 7.45746C15.0579 7.66728 14.915 7.93461 14.8571 8.22564C14.7992 8.51667 14.8289 8.81833 14.9425 9.09247C15.0561 9.36661 15.2483 9.60093 15.4951 9.76578Z" fill="url(#paint0_radial_22199_5382)"/>
  <path fill-rule="evenodd" clip-rule="evenodd" d="M25.9318 13.3201H6.78803C6.59219 13.3097 6.39678 13.3474 6.21889 13.43C6.04101 13.5126 5.88608 13.6375 5.76765 13.7939C5.64922 13.9502 5.5709 14.1331 5.53955 14.3267C5.5082 14.5203 5.52476 14.7187 5.5878 14.9044L6.00788 16.1046C6.09139 16.3531 6.25392 16.5673 6.47065 16.7147C6.68738 16.8621 6.94639 16.9345 7.20812 16.9208H7.92693V24.1222H6.20237C5.91187 24.1085 5.62439 24.1809 5.38384 24.3283C5.14329 24.4756 4.96289 24.6899 4.8702 24.9383L4.40394 26.1386C4.33397 26.3243 4.31559 26.5226 4.35039 26.7162C4.38519 26.9098 4.47211 27.0928 4.60356 27.2491C4.73501 27.4054 4.90697 27.5303 5.10441 27.6129C5.30184 27.6955 5.51874 27.7333 5.73611 27.7229H26.9843C27.1972 27.7253 27.4077 27.6817 27.5981 27.5957C27.7885 27.5097 27.9532 27.3838 28.0785 27.2287C28.2037 27.0735 28.2859 26.8935 28.318 26.7039C28.3501 26.5142 28.3313 26.3203 28.2632 26.1386L27.7969 24.9383C27.7042 24.6899 27.5238 24.4756 27.2833 24.3283C27.0427 24.1809 26.7552 24.1085 26.4647 24.1222H24.7302V16.9208H25.4637C25.7255 16.9345 25.9845 16.8621 26.2012 16.7147C26.4179 16.5673 26.5804 16.3531 26.664 16.1046L27.084 14.9044C27.1455 14.7226 27.1624 14.5288 27.1334 14.3391C27.1045 14.1494 27.0305 13.9694 26.9176 13.8143C26.8048 13.6591 26.6564 13.5332 26.4848 13.4473C26.3133 13.3613 26.1237 13.3177 25.9318 13.3201ZM10.3274 24.1222V16.9208H12.7279V24.1222H10.3274ZM15.1284 24.1222V16.9208H17.5288V24.1222H15.1284ZM19.9293 24.1222V16.9208H22.3298V24.1222H19.9293Z" fill="url(#paint1_radial_22199_5382)"/>
  <defs>
    <radialGradient id="paint0_radial_22199_5382" cx="0" cy="0" r="1" gradientUnits="userSpaceOnUse" gradientTransform="translate(14.0256 5.56984) rotate(86.3908) scale(36.6584 37.5112)">
      <stop stop-color="#D6EBFF"/>
      <stop offset="0.75787" stop-color="#718EAB"/>
    </radialGradient>
    <radialGradient id="paint1_radial_22199_5382" cx="0" cy="0" r="1" gradientUnits="userSpaceOnUse" gradientTransform="translate(14.0256 5.56984) rotate(86.3908) scale(36.6584 37.5112)">
      <stop stop-color="#D6EBFF"/>
      <stop offset="0.75787" stop-color="#718EAB"/>
    </radialGradient>
  </defs>
</svg>
