<svg xmlns="http://www.w3.org/2000/svg" width="32" height="32" viewBox="0 0 32 32" fill="none">
  <path fill-rule="evenodd" clip-rule="evenodd" d="M24.96 17.8669L27.36 20.2802C27.9763 20.9068 28.1576 21.8415 27.8202 22.6531C27.4827 23.4646 26.6922 23.9953 25.8133 24.0002H21.3333V24.4536C21.2037 27.2718 18.8186 29.4541 16 29.3336C13.1814 29.4541 10.7963 27.2718 10.6667 24.4536V24.0002H6.18666C5.30777 23.9953 4.51725 23.4646 4.17983 22.6531C3.84241 21.8415 4.02368 20.9068 4.63999 20.2802L7.03999 17.8669V11.6402C7.04471 9.05513 8.16245 6.59726 10.1076 4.89459C12.0528 3.19192 14.637 2.40938 17.2 2.7469C21.714 3.43875 25.026 7.35403 24.96 11.9202V17.8669ZM16 26.6669C17.3379 26.7613 18.513 25.7859 18.6667 24.4536V24.0002H13.3333V24.4536C13.4869 25.7859 14.6621 26.7613 16 26.6669Z" fill="url(#paint0_linear_18490_1752)"/>
  <defs>
    <linearGradient id="paint0_linear_18490_1752" x1="13.7166" y1="1.22272" x2="24.7655" y2="26.2319" gradientUnits="userSpaceOnUse">
      <stop stop-color="#AFAFAF"/>
      <stop offset="0.433185" stop-color="#F2F2F2"/>
      <stop offset="0.635995" stop-color="#F2F2F2"/>
      <stop offset="1" stop-color="#AFAFAF"/>
    </linearGradient>
  </defs>
</svg>