<svg xmlns="http://www.w3.org/2000/svg" width="33" height="32" viewBox="0 0 33 32" fill="none">
  <path fill-rule="evenodd" clip-rule="evenodd" d="M13.2685 28.2871C20.0549 29.9793 26.9277 25.8496 28.6195 19.0639C30.3113 12.2778 26.1819 5.40384 19.3959 3.71205C12.6114 2.02029 5.73857 6.15037 4.04759 12.9369C2.35504 19.7222 6.48474 26.5954 13.2685 28.2871ZM11.5305 18.4633C11.9239 18.5607 12.0985 18.3042 12.1674 18.1332L13.7269 11.8786C13.7439 11.5833 13.6422 11.2108 13.0793 11.0703C13.1011 11.0557 12.0699 10.8194 12.0699 10.8194L12.4396 9.33501L14.3563 9.81356L14.3547 9.8207C14.6429 9.89232 14.9397 9.96044 15.2421 10.0293L15.8117 7.74696L17.2007 8.09331L16.6426 10.331C17.0154 10.4161 17.3907 10.502 17.7561 10.593L18.3102 8.37003L19.7 8.71638L19.1308 10.9995C20.8855 11.604 22.1688 12.51 21.9166 14.1955C21.7342 15.4293 21.0502 16.0266 20.1421 16.236C21.389 16.8851 22.0235 17.8807 21.4191 19.6065C20.669 21.7499 18.887 21.9308 16.5171 21.4823L15.942 23.7872L14.5522 23.4409L15.1199 21.1668C14.7597 21.0774 14.3916 20.9824 14.0123 20.8795L13.4427 23.1642L12.0546 22.8179L12.6297 20.5086C12.5008 20.4756 12.3712 20.4418 12.2406 20.4077C12.0422 20.356 11.8418 20.3037 11.6389 20.2529L9.83043 19.802L10.5203 18.2112C10.5203 18.2112 11.5444 18.4835 11.5305 18.4633ZM14.735 19.2774C15.869 19.5769 18.3473 20.2315 18.7413 18.6482C19.145 17.0292 16.7414 16.4899 15.5685 16.2267C15.4375 16.1973 15.3218 16.1714 15.2271 16.1477L14.464 19.2071C14.5417 19.2264 14.6329 19.2505 14.735 19.2774ZM15.8042 14.807C16.7496 15.0593 18.8119 15.6097 19.1712 14.1706C19.538 12.6986 17.5336 12.2549 16.5547 12.0382C16.4446 12.0138 16.3475 11.9923 16.2682 11.9725L15.5762 14.7473C15.6416 14.7636 15.7183 14.784 15.8042 14.807Z" fill="url(#paint0_radial_22199_5386)"/>
  <defs>
    <radialGradient id="paint0_radial_22199_5386" cx="0" cy="0" r="1" gradientUnits="userSpaceOnUse" gradientTransform="translate(13.8978 4.73246) rotate(86.4737) scale(39.5987 39.5941)">
      <stop stop-color="#D6EBFF"/>
      <stop offset="0.75787" stop-color="#718EAB"/>
    </radialGradient>
  </defs>
</svg>
