<svg width="6" height="12" viewBox="0 0 6 12" fill="none" xmlns="http://www.w3.org/2000/svg">
<path id="Vector" d="M0.468775 6.91669H2.12511L1.78316 10.868C1.78165 10.8799 1.78123 10.9151 1.78123 10.9271C1.78123 11.2429 1.99162 11.5 2.25001 11.5C2.39702 11.5 2.53723 11.4138 2.63027 11.2612L5.90627 5.54169C5.96663 5.44308 6 5.32123 6 5.19794C6 4.88214 5.78968 4.625 5.53129 4.625H3.50403L3.84152 1.14025C3.84262 1.12699 3.84338 1.0862 3.84338 1.07294C3.84379 0.757141 3.6334 0.5 3.37501 0.5C3.228 0.5 3.08779 0.586189 2.99179 0.743378L0.0937275 6C0.0333711 6.09853 0 6.22047 0 6.34375C0 6.65955 0.210389 6.91669 0.468775 6.91669Z" fill="white"/>
</svg>
