<svg xmlns="http://www.w3.org/2000/svg" width="24" height="24" viewBox="0 0 24 24" fill="none">
  <path fill-rule="evenodd" clip-rule="evenodd" d="M16.2188 2.33468C15.1354 2.15155 13.7195 2.00023 12 2.00023C10.5869 1.99426 9.17578 2.10613 7.78128 2.33468C6.68346 2.51974 6.13503 2.61227 5.6772 3.17708C5.21841 3.74093 5.24251 4.35201 5.29167 5.57223C5.45745 9.76303 6.36153 14.9986 11.2771 15.4613V18.8675H9.89884C9.6761 18.8676 9.46029 18.9449 9.28809 19.0862C9.11589 19.2275 8.99793 19.424 8.95427 19.6424L8.77114 20.5542H6.21696C6.02524 20.5542 5.84137 20.6304 5.7058 20.766C5.57023 20.9015 5.49407 21.0854 5.49407 21.2771C5.49407 21.4688 5.57023 21.6527 5.7058 21.7883C5.84137 21.9238 6.02524 22 6.21696 22H17.7831C17.9748 22 18.1587 21.9238 18.2942 21.7883C18.4298 21.6527 18.506 21.4688 18.506 21.2771C18.506 21.0854 18.4298 20.9015 18.2942 20.766C18.1587 20.6304 17.9748 20.5542 17.7831 20.5542H15.2289L15.0458 19.6424C15.0021 19.424 14.8842 19.2275 14.712 19.0862C14.5398 18.9449 14.3239 18.8676 14.1012 18.8675H12.7229V15.4613C17.6395 14.9986 18.5436 9.76399 18.7093 5.57223L18.7096 5.56493C18.7576 4.34957 18.7817 3.74077 18.3238 3.17708C17.865 2.61227 17.3166 2.51974 16.2188 2.33468ZM12.8231 5.87777L12.9176 6.04741C13.0217 6.2344 13.0737 6.32692 13.1547 6.38861C13.2358 6.45059 13.3357 6.47295 13.5338 6.51728L13.5402 6.51873L13.7234 6.56114L13.7274 6.56206C14.436 6.72241 14.7905 6.80262 14.8752 7.0739C14.9599 7.34626 14.7178 7.62919 14.2345 8.19422L14.2323 8.19678L14.107 8.34329L14.1065 8.34391C13.969 8.50446 13.8997 8.58534 13.8689 8.68449C13.8385 8.78344 13.8484 8.88897 13.8681 9.09843L13.8689 9.10665L13.8882 9.30231L13.889 9.31101C13.9617 10.0618 13.9982 10.4384 13.7774 10.6054C13.5557 10.7731 13.2222 10.6209 12.5562 10.3134L12.3846 10.2344L12.3819 10.2331C12.1938 10.1472 12.0998 10.1042 12 10.1042C11.9003 10.1042 11.8062 10.1472 11.6182 10.2331L11.6154 10.2344L11.4439 10.3134C10.7779 10.6199 10.4444 10.7731 10.2227 10.6054C10.002 10.4377 10.0386 10.0589 10.1119 9.30231L10.1311 9.10665L10.1319 9.09842C10.1516 8.88897 10.1616 8.78344 10.1311 8.68449C10.1008 8.58584 10.0331 8.5068 9.89957 8.3509L9.89306 8.34329L9.76776 8.19678L9.76556 8.19422C9.28221 7.62919 9.04018 7.34626 9.12488 7.0739C9.20953 6.80262 9.564 6.72241 10.2726 6.56206L10.2767 6.56114L10.4598 6.51873C10.6622 6.47343 10.7634 6.4503 10.8453 6.38861C10.9263 6.32692 10.9783 6.2344 11.0824 6.04741L11.1769 5.87777C11.5432 5.21947 11.7263 4.89176 12 4.89176C12.2738 4.89176 12.4569 5.21947 12.8231 5.87777ZM21.6385 8.00977V7.93941C21.6385 6.93412 21.6385 6.431 21.3657 6.05221C21.1459 5.74763 20.7932 5.58474 20.1657 5.36691L20.1638 5.41703L20.1541 5.63004C20.0896 7.26665 19.9132 9.18085 19.3869 10.962L20.1513 10.5379L20.1609 10.5326C20.8793 10.1323 21.2403 9.93114 21.4389 9.59337C21.6385 9.2541 21.6385 8.83868 21.6385 8.00977ZM2.36157 8.00977V7.93941C2.36157 6.93509 2.36157 6.431 2.63434 6.05221C2.8541 5.74763 3.20686 5.58474 3.83529 5.36691L3.83625 5.41703L3.84589 5.63004C3.91047 7.26665 4.08685 9.18085 4.61408 10.962L3.84878 10.5379L3.83916 10.5326C3.12075 10.1323 2.75972 9.93114 2.56109 9.59337C2.36157 9.2541 2.36157 8.83868 2.36157 8.00977Z" fill="white"/>
</svg>