<svg width="24" height="24" viewBox="0 0 24 24" fill="none" xmlns="http://www.w3.org/2000/svg">
<path d="M18.2243 15.0015V20.6918C18.2243 21.0986 18.5541 21.4284 18.9609 21.4284H19.8265C20.7113 21.4284 21.4286 20.7111 21.4286 19.8262V18.7839C21.4286 16.9094 20.0734 15.3096 18.2243 15.0015Z" fill="white"/>
<path d="M12.1473 4.26549C14.1058 4.26549 15.8505 5.19696 16.9626 6.63986C16.4537 4.31318 14.3815 2.57129 11.9021 2.57129H5.3337C4.41836 2.57129 3.67634 3.31331 3.67634 4.22866V4.26549C3.67634 5.18083 4.41836 5.92285 5.3337 5.92285H4.22879C3.31345 5.92285 2.57143 6.66487 2.57143 7.58022C2.57143 8.49556 3.31345 9.23758 4.22879 9.23758H5.3337C4.41836 9.23758 3.67634 9.97961 3.67634 10.8949C3.67634 11.8103 4.41836 12.5523 5.3337 12.5523H6.07031V10.3425C6.07031 6.99163 8.79646 4.26549 12.1473 4.26549Z" fill="white"/>
<path d="M12.1473 17.8208C10.8801 19.2683 8.64195 19.4392 7.17522 18.1402V20.8761C7.17522 21.1812 7.42257 21.4285 7.72767 21.4285H16.567C16.8721 21.4285 17.1194 21.1812 17.1194 20.8761V18.1404C15.6511 19.4397 13.4136 19.2674 12.1473 17.8208Z" fill="white"/>
<path d="M14.4691 11.7771L16.8199 8.64265C16.124 6.73569 14.2921 5.37061 12.1473 5.37061C9.4057 5.37061 7.17522 7.60109 7.17522 10.3427V16.1313C7.74483 18.2575 10.6625 18.565 11.6535 16.5905C11.8569 16.1853 12.4374 16.1848 12.6411 16.5905C13.6333 18.5674 16.5511 18.2545 17.1195 16.1321V15.6908L14.4711 12.2215C14.371 12.0905 14.3702 11.909 14.4691 11.7771ZM12.1473 12.0001C11.2334 12.0001 10.4899 11.2566 10.4899 10.3427C10.4899 9.42883 11.2334 8.68534 12.1473 8.68534C13.0612 8.68534 13.8047 9.42883 13.8047 10.3427C13.8047 11.2566 13.0612 12.0001 12.1473 12.0001Z" fill="white"/>
<path d="M12.1473 10.8949C12.4524 10.8949 12.6998 10.6476 12.6998 10.3425C12.6998 10.0374 12.4524 9.79004 12.1473 9.79004C11.8422 9.79004 11.5949 10.0374 11.5949 10.3425C11.5949 10.6476 11.8422 10.8949 12.1473 10.8949Z" fill="white"/>
<path d="M16.0974 12.5522L17.3401 14.2095L17.3404 14.2096L21.3918 12.5522H16.0974Z" fill="white"/>
<path d="M21.3917 11.4474L17.3404 9.79004L16.0974 11.4474H21.3917Z" fill="white"/>
</svg>
