<svg width="13" height="14" viewBox="0 0 13 14" fill="none" xmlns="http://www.w3.org/2000/svg">
<g id="Warning">
<g id="Group">
<path id="Vector" d="M6.5 13.0938C9.86463 13.0938 12.5938 10.3646 12.5938 7C12.5938 3.63537 9.86463 0.90625 6.5 0.90625C3.13537 0.90625 0.40625 3.63537 0.40625 7C0.40625 10.3646 3.13537 13.0938 6.5 13.0938ZM6.06472 3.51786C6.06472 3.27846 6.26059 3.08258 6.5 3.08258C6.73941 3.08258 6.93528 3.27846 6.93528 3.51786V6.79108L8.9484 8.40157C9.13557 8.55174 9.16602 8.82594 9.01585 9.01311C8.93096 9.11975 8.80475 9.17633 8.67633 9.17633C8.58057 9.17633 8.48481 9.14585 8.4043 9.08057L6.22797 7.33952C6.12569 7.2568 6.06475 7.13277 6.06475 7L6.06472 3.51786Z" fill="#B0B6BF"/>
</g>
</g>
</svg>
