<svg xmlns="http://www.w3.org/2000/svg" width="14" height="14" viewBox="0 0 14 14" fill="none">
  <path
    d="M1.25586 12.7385C0.831055 12.3211 0.845703 11.5813 1.24121 11.1858L5.43066 6.99636L1.24121 2.82156C0.845703 2.41873 0.831055 1.6863 1.25586 1.2615C1.68066 0.82937 2.42041 0.844018 2.81592 1.24685L6.99805 5.42898L11.1802 1.24685C11.5903 0.836694 12.3081 0.836694 12.7329 1.2615C13.165 1.6863 13.165 2.40408 12.7476 2.82156L8.57275 6.99636L12.7476 11.1785C13.165 11.596 13.1577 12.3064 12.7329 12.7385C12.3154 13.1634 11.5903 13.1634 11.1802 12.7532L6.99805 8.57107L2.81592 12.7532C2.42041 13.156 1.68799 13.1634 1.25586 12.7385Z"
    fill="white" />
</svg>
