<svg xmlns="http://www.w3.org/2000/svg" width="32" height="32" viewBox="0 0 32 32" fill="none">
  <path fill-rule="evenodd" clip-rule="evenodd"
    d="M2 11.6124C2 12.1209 2.42171 12.5426 2.93023 12.5426C3.43876 12.5426 3.86047 12.1209 3.86047 11.6124V8.51163C3.86047 5.94419 5.94419 3.86047 8.51163 3.86047H11.6124C12.1209 3.86047 12.5426 3.43876 12.5426 2.93023C12.5426 2.42171 12.1209 2 11.6124 2H8.51163C4.92713 2 2 4.91473 2 8.51163V11.6124ZM26.8062 11.6124C26.8062 12.1209 27.2279 12.5426 27.7364 12.5426C28.245 12.5426 28.6667 12.1209 28.6667 11.6124V8.51163C28.6667 4.91473 25.7395 2 22.155 2H19.0543C18.5457 2 18.124 2.42171 18.124 2.93023C18.124 3.43876 18.5457 3.86047 19.0543 3.86047H22.155C24.7225 3.86047 26.8062 5.94419 26.8062 8.51163V11.6124ZM22.155 28.6667H20.2946C19.786 28.6667 19.3643 28.245 19.3643 27.7364C19.3643 27.2279 19.786 26.8062 20.2946 26.8062H22.155C24.7225 26.8062 26.8062 24.7225 26.8062 22.155V20.2946C26.8062 19.786 27.2279 19.3643 27.7364 19.3643C28.245 19.3643 28.6667 19.786 28.6667 20.2946V22.155C28.6667 25.7519 25.7395 28.6667 22.155 28.6667ZM8.51163 28.6667H11.6124C12.1209 28.6667 12.5426 28.245 12.5426 27.7364C12.5426 27.2279 12.1209 26.8062 11.6124 26.8062H8.51163C5.94419 26.8062 3.86047 24.7225 3.86047 22.155V19.0543C3.86047 18.5457 3.43876 18.124 2.93023 18.124C2.42171 18.124 2 18.5457 2 19.0543V22.155C2 25.7519 4.92713 28.6667 8.51163 28.6667ZM11.6124 6.96124H9.13178C7.71783 6.96124 6.96124 7.70543 6.96124 9.13178V11.6124C6.96124 13.0388 7.71783 13.7829 9.13178 13.7829H11.6124C13.0264 13.7829 13.7829 13.0388 13.7829 11.6124V9.13178C13.7829 7.70543 13.0264 6.96124 11.6124 6.96124ZM19.0543 6.96124H21.5349C22.9488 6.96124 23.7054 7.70543 23.7054 9.13178V11.6124C23.7054 13.0388 22.9488 13.7829 21.5349 13.7829H19.0543C17.6403 13.7829 16.8837 13.0388 16.8837 11.6124V9.13178C16.8837 7.70543 17.6403 6.96124 19.0543 6.96124ZM11.6124 16.8837H9.13178C7.71783 16.8837 6.96124 17.6279 6.96124 19.0543V21.5349C6.96124 22.9612 7.71783 23.7054 9.13178 23.7054H11.6124C13.0264 23.7054 13.7829 22.9612 13.7829 21.5349V19.0543C13.7829 17.6279 13.0264 16.8837 11.6124 16.8837ZM19.0543 16.8837H21.5349C22.9488 16.8837 23.7054 17.6279 23.7054 19.0543V21.5349C23.7054 22.9612 22.9488 23.7054 21.5349 23.7054H19.0543C17.6403 23.7054 16.8837 22.9612 16.8837 21.5349V19.0543C16.8837 17.6279 17.6403 16.8837 19.0543 16.8837Z"
    fill="url(#paint0_radial_22266_80952)" />
  <defs>
    <radialGradient id="paint0_radial_22266_80952" cx="0" cy="0" r="1" gradientUnits="userSpaceOnUse"
      gradientTransform="translate(12.7692 3.47311) rotate(86.4733) scale(41.6829 41.6829)">
      <stop stop-color="#D6EBFF" />
      <stop offset="0.75787" stop-color="#718EAB" />
    </radialGradient>
  </defs>
</svg>
