<svg xmlns="http://www.w3.org/2000/svg" width="32" height="32" viewBox="0 0 32 32" fill="none">
  <path d="M4.4625 13.5C3.925 13.5 3.5 13.075 3.5 12.5375V9.65C3.5 6.2625 6.2625 3.5 9.65 3.5H12.5375C13.075 3.5 13.5 3.925 13.5 4.4625C13.5 5 13.075 5.425 12.5375 5.425H9.65C7.3125 5.425 5.425 7.325 5.425 9.65V12.5375C5.425 13.075 4.9875 13.5 4.4625 13.5Z" fill="url(#paint0_radial_22199_5360)"/>
  <path d="M27.5375 13.5C27.0125 13.5 26.575 13.075 26.575 12.5375V9.65C26.575 7.3125 24.675 5.425 22.35 5.425H19.4625C18.925 5.425 18.5 4.9875 18.5 4.4625C18.5 3.9375 18.925 3.5 19.4625 3.5H22.35C25.7375 3.5 28.5 6.2625 28.5 9.65V12.5375C28.5 13.075 28.075 13.5 27.5375 13.5Z" fill="url(#paint1_radial_22199_5360)"/>
  <path d="M22.35 28.5H20.6125C20.0875 28.5 19.65 28.075 19.65 27.5375C19.65 27.0125 20.075 26.575 20.6125 26.575H22.35C24.6875 26.575 26.575 24.675 26.575 22.35V20.625C26.575 20.1 27 19.6625 27.5375 19.6625C28.0625 19.6625 28.5 20.0875 28.5 20.625V22.35C28.5 25.7375 25.7375 28.5 22.35 28.5Z" fill="url(#paint2_radial_22199_5360)"/>
  <path d="M12.5375 28.5H9.65C6.2625 28.5 3.5 25.7375 3.5 22.35V19.4625C3.5 18.925 3.925 18.5 4.4625 18.5C5 18.5 5.425 18.925 5.425 19.4625V22.35C5.425 24.6875 7.325 26.575 9.65 26.575H12.5375C13.0625 26.575 13.5 27 13.5 27.5375C13.5 28.075 13.075 28.5 12.5375 28.5Z" fill="url(#paint3_radial_22199_5360)"/>
  <path d="M24.075 15.0375H7.925C7.3875 15.0375 6.9625 15.475 6.9625 16C6.9625 16.525 7.3875 16.9625 7.925 16.9625H24.075C24.6125 16.9625 25.0375 16.525 25.0375 16C25.0375 15.475 24.6125 15.0375 24.075 15.0375Z" fill="url(#paint4_radial_22199_5360)"/>
  <path d="M9.625 18.425V18.8375C9.625 20.9125 11.3 22.5875 13.375 22.5875H18.625C20.7 22.5875 22.375 20.9125 22.375 18.8375V18.425C22.375 18.275 22.2625 18.1625 22.1125 18.1625H9.8875C9.7375 18.1625 9.625 18.275 9.625 18.425Z" fill="url(#paint5_radial_22199_5360)"/>
  <path d="M9.625 13.575V13.1625C9.625 11.0875 11.3 9.4125 13.375 9.4125H18.625C20.7 9.4125 22.375 11.0875 22.375 13.1625V13.575C22.375 13.725 22.2625 13.8375 22.1125 13.8375H9.8875C9.7375 13.8375 9.625 13.725 9.625 13.575Z" fill="url(#paint6_radial_22199_5360)"/>
  <defs>
    <radialGradient id="paint0_radial_22199_5360" cx="0" cy="0" r="1" gradientUnits="userSpaceOnUse" gradientTransform="translate(13.5962 4.88104) rotate(86.4733) scale(39.0777)">
      <stop stop-color="#D6EBFF"/>
      <stop offset="0.75787" stop-color="#718EAB"/>
    </radialGradient>
    <radialGradient id="paint1_radial_22199_5360" cx="0" cy="0" r="1" gradientUnits="userSpaceOnUse" gradientTransform="translate(13.5962 4.88104) rotate(86.4733) scale(39.0777)">
      <stop stop-color="#D6EBFF"/>
      <stop offset="0.75787" stop-color="#718EAB"/>
    </radialGradient>
    <radialGradient id="paint2_radial_22199_5360" cx="0" cy="0" r="1" gradientUnits="userSpaceOnUse" gradientTransform="translate(13.5962 4.88104) rotate(86.4733) scale(39.0777)">
      <stop stop-color="#D6EBFF"/>
      <stop offset="0.75787" stop-color="#718EAB"/>
    </radialGradient>
    <radialGradient id="paint3_radial_22199_5360" cx="0" cy="0" r="1" gradientUnits="userSpaceOnUse" gradientTransform="translate(13.5962 4.88104) rotate(86.4733) scale(39.0777)">
      <stop stop-color="#D6EBFF"/>
      <stop offset="0.75787" stop-color="#718EAB"/>
    </radialGradient>
    <radialGradient id="paint4_radial_22199_5360" cx="0" cy="0" r="1" gradientUnits="userSpaceOnUse" gradientTransform="translate(13.5962 4.88104) rotate(86.4733) scale(39.0777)">
      <stop stop-color="#D6EBFF"/>
      <stop offset="0.75787" stop-color="#718EAB"/>
    </radialGradient>
    <radialGradient id="paint5_radial_22199_5360" cx="0" cy="0" r="1" gradientUnits="userSpaceOnUse" gradientTransform="translate(13.5962 4.88104) rotate(86.4733) scale(39.0777)">
      <stop stop-color="#D6EBFF"/>
      <stop offset="0.75787" stop-color="#718EAB"/>
    </radialGradient>
    <radialGradient id="paint6_radial_22199_5360" cx="0" cy="0" r="1" gradientUnits="userSpaceOnUse" gradientTransform="translate(13.5962 4.88104) rotate(86.4733) scale(39.0777)">
      <stop stop-color="#D6EBFF"/>
      <stop offset="0.75787" stop-color="#718EAB"/>
    </radialGradient>
  </defs>
</svg>
