<svg width="20" height="20" viewBox="0 0 20 20" fill="none" xmlns="http://www.w3.org/2000/svg">
<path d="M13.6255 15.3999C13.5424 16.3029 12.7897 17.0149 11.8653 17.0149H5.40539C4.42568 17.0149 3.62891 16.2181 3.62891 15.2384V7.48644C3.62891 6.56202 4.34086 5.80937 5.24389 5.7263V12.6544C5.24389 14.1682 6.47529 15.3999 7.98937 15.3999H13.6255ZM16.2258 6.67895V12.6544C16.2258 13.6341 15.429 14.4309 14.4493 14.4309H7.98937C7.00965 14.4309 6.21289 13.6341 6.21289 12.6544V4.90246C6.21289 3.92275 7.00965 3.12598 7.98937 3.12598H12.6728V6.19445C12.6728 6.46196 12.8898 6.67895 13.1573 6.67895H16.2258ZM13.6418 11.3624C13.6418 11.0949 13.4248 10.8779 13.1573 10.8779H9.28136C9.01385 10.8779 8.79686 11.0949 8.79686 11.3624C8.79686 11.6299 9.01385 11.8469 9.28136 11.8469H13.1573C13.4248 11.8469 13.6418 11.6299 13.6418 11.3624ZM13.6418 8.77843C13.6418 8.51092 13.4248 8.29393 13.1573 8.29393H9.28136C9.01385 8.29393 8.79686 8.51092 8.79686 8.77843C8.79686 9.04594 9.01385 9.26293 9.28136 9.26293H13.1573C13.4248 9.26293 13.6418 9.04594 13.6418 8.77843ZM13.6418 3.40989V5.70996H15.9419L13.6418 3.40989Z" fill="#B0B6BF"/>
</svg>
