<svg width="20" height="20" viewBox="0 0 20 20" fill="none" xmlns="http://www.w3.org/2000/svg">
<path d="M17.7083 7.62458C15.7833 4.59958 12.9667 2.85791 10 2.85791C8.51666 2.85791 7.075 3.29124 5.75833 4.09958C4.44166 4.91624 3.25833 6.10791 2.29166 7.62458C1.45833 8.93291 1.45833 11.0579 2.29166 12.3662C4.21666 15.3996 7.03333 17.1329 10 17.1329C11.4833 17.1329 12.925 16.6996 14.2417 15.8912C15.5583 15.0746 16.7417 13.8829 17.7083 12.3662C18.5417 11.0662 18.5417 8.93291 17.7083 7.62458ZM10 13.3662C8.13333 13.3662 6.63333 11.8579 6.63333 9.99958C6.63333 8.14124 8.13333 6.63291 10 6.63291C11.8667 6.63291 13.3667 8.14124 13.3667 9.99958C13.3667 11.8579 11.8667 13.3662 10 13.3662Z" fill="#CCCCCC"/>
<path d="M10 7.61624C8.69166 7.61624 7.625 8.68291 7.625 9.99958C7.625 11.3079 8.69166 12.3746 10 12.3746C11.3083 12.3746 12.3833 11.3079 12.3833 9.99958C12.3833 8.69124 11.3083 7.61624 10 7.61624Z" fill="#CCCCCC"/>
</svg>
