<svg width="18" height="20" viewBox="0 0 18 20" fill="none" xmlns="http://www.w3.org/2000/svg">
<path d="M7.81535 1.53943C3.28597 1.69512 1.27176 4.09073 0.603816 5.14165C0.486561 5.32851 0.429571 5.54794 0.440797 5.76932C0.452023 5.99071 0.530905 6.203 0.666438 6.3766C1.50134 7.44878 3.853 9.94699 7.64488 10H7.71098C8.52484 8.71805 8.93837 7.2156 8.89723 5.69012C8.92692 4.23067 8.55198 2.79221 7.81535 1.53943ZM5.04623 5.79627C4.83982 5.79627 4.63804 5.73401 4.46642 5.61737C4.29479 5.50072 4.16103 5.33493 4.08204 5.14095C4.00305 4.94698 3.98238 4.73354 4.02265 4.52761C4.06292 4.32169 4.16231 4.13254 4.30827 3.98408C4.45422 3.83561 4.64018 3.73451 4.84263 3.69355C5.04507 3.65259 5.25491 3.67361 5.44561 3.75396C5.63631 3.83431 5.7993 3.97037 5.91398 4.14494C6.02866 4.31951 6.08986 4.52476 6.08986 4.73471C6.08905 5.016 5.97884 5.28554 5.78329 5.48444C5.58775 5.68334 5.32277 5.79545 5.04623 5.79627Z" fill="white"/>
<path d="M8.99469 1.53943C9.60773 2.81293 9.91865 4.2323 9.89932 5.66912C9.92492 7.15494 9.5894 8.62185 8.92659 9.92205C9.52968 9.86923 10.0939 9.76361 10.6094 9.66505C12.2404 9.35171 13.1223 9.24257 13.7319 10.422C14.6073 12.1084 13.3104 13.7208 12.9764 14.094C12.2987 14.1961 9.14058 14.8967 8.90065 19.0862C8.897 19.1505 8.90957 19.2146 8.937 19.2717C8.96443 19.3288 9.00567 19.3766 9.05629 19.4102C9.10733 19.443 9.16557 19.4603 9.2249 19.4603C9.28422 19.4603 9.34246 19.443 9.3935 19.4102C10.5296 18.6513 11.7102 17.9739 12.9278 17.3823C12.9319 16.9092 12.9775 16.4377 13.0639 15.974C13.0718 15.9285 13.0879 15.8851 13.1112 15.8463C13.1345 15.8075 13.1647 15.774 13.1999 15.7479C13.2351 15.7217 13.2748 15.7034 13.3165 15.6938C13.3583 15.6843 13.4014 15.6838 13.4433 15.6924C13.4852 15.7009 13.5252 15.7184 13.561 15.7437C13.5967 15.769 13.6275 15.8018 13.6516 15.84C13.6757 15.8783 13.6926 15.9213 13.7013 15.9666C13.7101 16.012 13.7106 16.0587 13.7027 16.1043C13.6304 16.5225 13.5892 16.9463 13.5795 17.3717C14.3188 17.7414 15.4568 18.5054 15.4666 19.4137C15.4681 19.4982 15.4973 19.5794 15.549 19.6427C15.6007 19.7059 15.6715 19.7471 15.7487 19.7587C15.7626 19.7615 15.7767 19.7627 15.7908 19.7622C15.861 19.7624 15.9294 19.7378 15.9856 19.6921C16.0417 19.6463 16.0826 19.582 16.1021 19.5087C16.6274 17.5196 15.4925 15.6924 15.0386 15.0657C16.1596 13.2654 16.7426 11.1338 16.7084 8.96092C16.7084 4.96147 13.2747 1.69081 8.99469 1.53943Z" fill="white"/>
<path d="M5.32054 5.44433C5.50025 5.44433 5.64594 5.29864 5.64594 5.11892C5.64594 4.9392 5.50025 4.79351 5.32054 4.79351C5.14082 4.79351 4.99513 4.9392 4.99513 5.11892C4.99513 5.29864 5.14082 5.44433 5.32054 5.44433Z" fill="white"/>
<path d="M12.7449 11.7809C12.7777 11.7288 12.7978 11.6687 12.8033 11.6061C12.8089 11.5434 12.7998 11.4803 12.7768 11.4225C12.6028 10.9612 12.4594 10.4871 12.3478 10.004C11.5215 9.96211 10.5152 10.2638 9.55084 10.3968C9.89254 10.876 10.3313 11.2652 10.8337 11.5348C11.3362 11.8043 11.8891 11.9472 12.4506 11.9525C12.5091 11.9528 12.5667 11.9372 12.6182 11.9072C12.6696 11.8772 12.7132 11.8338 12.7449 11.7809Z" fill="white"/>
<path d="M17.3606 6.74596C17.0511 3.62931 14.5817 1.4193 13.3039 0.471637C13.0857 0.31109 12.815 0.228599 12.5393 0.238607C12.2635 0.248615 12.0003 0.350484 11.7956 0.526378L10.8525 1.32692C14.0166 2.08982 16.4787 4.14594 17.3606 6.74596Z" fill="white"/>
</svg>
