<svg xmlns="http://www.w3.org/2000/svg" width="10" height="13" viewBox="0 0 10 13" fill="none">
  <path
    d="M8.85009 5.01502H5.72678L6.21798 1.11306C6.21961 1.10363 6.22009 1.06456 6.22009 1.05459C6.22009 0.77694 5.98923 0.55957 5.69413 0.55957C5.52954 0.55957 5.37168 0.633356 5.26497 0.768963L1.06538 6.69823C0.997574 6.78334 0.960205 6.88877 0.960205 6.99518C0.960205 7.27292 1.19116 7.49029 1.48617 7.49029H4.08669L3.59174 11.8947C3.59068 11.9036 3.5902 11.9368 3.5902 11.9457C3.5902 12.2234 3.82106 12.4408 4.11616 12.4408C4.28076 12.4408 4.43861 12.367 4.54272 12.2348L9.27087 5.80708C9.33877 5.72197 9.37605 5.61654 9.37605 5.51004C9.37605 5.23239 9.14519 5.01502 8.85009 5.01502Z"
    fill="white" />
</svg>
