<svg xmlns="http://www.w3.org/2000/svg" width="16" height="16" viewBox="0 0 16 16" fill="none">
  <path
    d="M14.3428 6.00758L12.8869 3.49217C12.7407 3.23543 12.5619 3.33618 11.613 3.51167C11.1456 3.13354 10.6213 2.83189 10.0595 2.61796C9.77677 1.80224 9.75402 1.5 9.43879 1.5H6.5334C6.23116 1.5 6.20841 1.72099 5.91267 2.61796C5.35088 2.83189 4.82656 3.13354 4.35923 3.51167C3.44277 3.33943 3.23478 3.22893 3.08528 3.49217L1.62934 6.00758C1.48634 6.26107 1.65209 6.36506 2.27931 7.10278C2.18341 7.69692 2.18341 8.30258 2.27931 8.89671C1.67809 9.59544 1.47334 9.72868 1.62934 9.99192L3.08528 12.5073C3.23153 12.7641 3.42977 12.6633 4.35923 12.4878C4.82656 12.866 5.35088 13.1676 5.91267 13.3815L6.23766 14.2818C6.26084 14.3484 6.30509 14.4057 6.36372 14.445C6.42236 14.4843 6.49218 14.5034 6.56265 14.4995H9.46804C9.77027 14.4995 9.79302 14.2785 10.0888 13.3815C10.6506 13.1676 11.1749 12.866 11.6422 12.4878C12.5587 12.6601 12.7667 12.7706 12.9162 12.5073L14.3721 9.99192C14.5151 9.73843 14.3493 9.63444 13.7221 8.89671C13.818 8.30258 13.818 7.69692 13.7221 7.10278C14.2876 6.40406 14.4858 6.27082 14.3428 6.00758ZM12.2012 8.28249C12.1445 9.11122 11.8448 9.90485 11.3395 10.5642C10.8342 11.2235 10.1457 11.7192 9.36024 11.9893C8.57473 12.2595 7.72702 12.2921 6.92308 12.0831C6.11914 11.8741 5.39466 11.4327 4.84021 10.8141C3.52077 9.49469 3.30627 6.96954 4.77847 5.25361C7.55711 2.12723 12.4709 4.35339 12.2109 8.28249H12.2012Z"
    fill="#585E66" />
  <path
    d="M9.01623 5.83384C8.97057 5.81209 8.92015 5.80224 8.86966 5.8052C8.81917 5.80817 8.77025 5.82385 8.72744 5.85079C8.68464 5.87773 8.64934 5.91505 8.62483 5.95929C8.60032 6.00353 8.58739 6.05325 8.58725 6.10383V7.83776L7.98727 8.23975L7.38729 7.83776V6.10383C7.38715 6.05325 7.37422 6.00353 7.34971 5.95929C7.3252 5.91505 7.2899 5.87773 7.2471 5.85079C7.20429 5.82385 7.15537 5.80817 7.10488 5.8052C7.05439 5.80224 7.00397 5.81209 6.95831 5.83384C6.56407 6.02193 6.22864 6.31404 5.98818 6.67871C5.74772 7.04337 5.61134 7.46674 5.59374 7.9032C5.57615 8.33965 5.67801 8.77263 5.88834 9.15546C6.09867 9.53829 6.4095 9.85646 6.78732 10.0757V11.0716C7.5586 11.3746 8.41594 11.3746 9.18722 11.0716V10.0757C9.56504 9.85646 9.87587 9.53829 10.0862 9.15546C10.2965 8.77263 10.3984 8.33965 10.3808 7.9032C10.3632 7.46674 10.2268 7.04337 9.98636 6.67871C9.7459 6.31404 9.41047 6.02193 9.01623 5.83384Z"
    fill="#585E66" />
</svg>
