<svg xmlns="http://www.w3.org/2000/svg" width="24" height="24" viewBox="0 0 24 24" fill="none">
  <path d="M6.00146 15.3349V16.6679H11.9999C15.3077 16.6679 17.9984 13.9771 17.9984 10.6694C17.9984 7.36164 15.3077 4.6709 11.9999 4.6709C8.6922 4.6709 6.00146 7.36164 6.00146 10.6694C6.00146 12.018 6.45446 13.3211 7.28238 14.3748C7.12162 14.9365 6.60873 15.3349 6.00146 15.3349ZM13.9994 10.0029H15.3324V11.3359H13.9994V10.0029ZM11.3334 10.0029H12.6664V11.3359H11.3334V10.0029ZM8.66745 10.0029H10.0004V11.3359H8.66745V10.0029Z" fill="url(#paint0_radial_22268_82686)"/>
  <path d="M21.3753 7.33729H19.9792C18.7917 4.51783 16.1771 2.46889 13.1669 2.07756C10.184 1.67989 7.25305 2.82804 5.33558 5.13927C4.7719 5.81879 4.32477 6.55754 3.99739 7.33729H2.62449C1.52193 7.33729 0.625 8.23422 0.625 9.33679V12.0028C0.625 13.1053 1.52193 14.0023 2.62449 14.0023H5.36162L5.07525 13.1281C4.24146 10.5819 4.71076 7.98033 6.36203 5.99061C7.98469 4.03471 10.4625 3.06687 12.9938 3.39883C15.6708 3.74754 17.9944 5.6407 18.9151 8.22311L18.9207 8.23809C19.0691 8.63252 19.1732 9.03802 19.2331 9.45525C19.4329 10.7017 19.319 11.965 18.9044 13.1086L18.9015 13.1166C17.8724 16.0385 15.1044 18.0013 12.0129 18.0013C10.9031 18.0013 10.0004 18.8982 10.0004 20.0007C10.0004 21.1033 10.8973 22.0002 11.9999 22.0002C13.1025 22.0002 13.9994 21.1033 13.9994 20.0007V19.1019C16.6607 18.4693 18.896 16.5828 19.9704 14.0022H21.3753C22.4778 14.0022 23.3748 13.1053 23.3748 12.0027V9.33674C23.3748 8.23418 22.4778 7.33729 21.3753 7.33729Z" fill="url(#paint1_radial_22268_82686)"/>
  <defs>
    <radialGradient id="paint0_radial_22268_82686" cx="0" cy="0" r="1" gradientUnits="userSpaceOnUse" gradientTransform="translate(10.8464 5.33363) rotate(86.4733) scale(18.7525)">
      <stop stop-color="#D6EBFF"/>
      <stop offset="0.75787" stop-color="#718EAB"/>
    </radialGradient>
    <radialGradient id="paint1_radial_22268_82686" cx="0" cy="0" r="1" gradientUnits="userSpaceOnUse" gradientTransform="translate(9.81241 3.10485) rotate(85.9899) scale(31.2799 35.5406)">
      <stop stop-color="#D6EBFF"/>
      <stop offset="0.75787" stop-color="#718EAB"/>
    </radialGradient>
  </defs>
</svg>
