<svg xmlns="http://www.w3.org/2000/svg" width="16" height="16" viewBox="0 0 16 16" fill="none">
  <path fill-rule="evenodd" clip-rule="evenodd" d="M14.545 8C14.545 11.615 11.6145 14.5455 7.99956 14.5455C4.3846 14.5455 1.4541 11.615 1.4541 8C1.4541 4.38504 4.3846 1.45454 7.99956 1.45454C11.6145 1.45454 14.545 4.38504 14.545 8ZM7.99956 5.21818C7.54769 5.21818 7.18137 5.58449 7.18137 6.03636C7.18137 6.30748 6.96159 6.52727 6.69047 6.52727C6.41934 6.52727 6.19956 6.30748 6.19956 6.03636C6.19956 5.04225 7.00544 4.23636 7.99956 4.23636C8.99367 4.23636 9.79956 5.04225 9.79956 6.03636C9.79956 6.39397 9.69477 6.72859 9.51406 7.00943C9.40087 7.18533 9.26854 7.35327 9.14651 7.50492L9.0807 7.58649C8.97946 7.7118 8.88652 7.82684 8.80064 7.94487C8.58884 8.23596 8.49047 8.45471 8.49047 8.65454V8.98182C8.49047 9.25294 8.27068 9.47273 7.99956 9.47273C7.72844 9.47273 7.50865 9.25294 7.50865 8.98182V8.65454C7.50865 8.13139 7.7655 7.69876 8.00673 7.36722C8.10866 7.22713 8.22036 7.08896 8.32192 6.96333L8.38158 6.88942C8.50279 6.73878 8.60598 6.60624 8.6884 6.47815C8.77022 6.35099 8.81774 6.19998 8.81774 6.03636C8.81774 5.58449 8.45143 5.21818 7.99956 5.21818ZM8.49047 10.6182C8.49047 10.3471 8.27068 10.1273 7.99956 10.1273C7.72844 10.1273 7.50865 10.3471 7.50865 10.6182V11.2727C7.50865 11.5438 7.72844 11.7636 7.99956 11.7636C8.27068 11.7636 8.49047 11.5438 8.49047 11.2727V10.6182Z" fill="#B0B6BF"/>
</svg>