<svg xmlns="http://www.w3.org/2000/svg" width="28" height="28" viewBox="0 0 28 28" fill="none">
  <path
    d="M6.31449 19.2188L7.09941 22.9581L10.8985 22.5484L13.7321 24.9299L16.5657 22.5484L20.3648 22.9581L21.1497 19.2188L24.4642 17.3165L22.9005 13.8292L24.4642 10.3419L21.1497 8.43961L20.3648 4.7003L16.5657 5.11004L13.7321 2.72852L10.8985 5.11004L7.09941 4.7003L6.31449 8.43961L3 10.3419L4.56375 13.8292L3 17.3165L6.31449 19.2188ZM16.3338 11.2275H20.2364V12.5283H18.9356V16.4309H17.6347V12.5283H16.3338V11.2275ZM11.7808 13.1788C11.7808 12.1029 12.6562 11.2275 13.7321 11.2275C14.808 11.2275 15.6834 12.1029 15.6834 13.1788V14.4796C15.6834 15.5556 14.808 16.4309 13.7321 16.4309C12.6562 16.4309 11.7808 15.5556 11.7808 14.4796V13.1788ZM7.2278 11.2275H8.52867V13.1788H9.82953V11.2275H11.1304V16.4309H9.82953V14.4796H8.52867V16.4309H7.2278V11.2275Z"
    fill="white" />
  <path
    d="M13.7321 15.1303C14.091 15.1303 14.3825 14.8388 14.3825 14.4798V13.179C14.3825 12.82 14.091 12.5285 13.7321 12.5285C13.3732 12.5285 13.0817 12.82 13.0817 13.179V14.4798C13.0817 14.8388 13.3732 15.1303 13.7321 15.1303Z"
    fill="white" />
</svg>
