<svg xmlns="http://www.w3.org/2000/svg" width="17" height="17" viewBox="0 0 17 17" fill="none">
  <path
    d="M5.5937 6.06384C5.53473 6.69286 5.49335 7.80606 5.86476 8.27989C5.86476 8.27989 5.68992 7.05703 7.25729 5.52276C7.88838 4.90512 8.03425 4.06505 7.81389 3.435C7.68871 3.07807 7.46007 2.78322 7.26143 2.57734C7.14556 2.45629 7.23453 2.25662 7.40317 2.26386C8.42325 2.30938 10.0765 2.59286 10.779 4.35577C11.0873 5.12962 11.11 5.92935 10.9631 6.74252C10.87 7.26187 10.5389 8.41645 11.2942 8.55819C11.8332 8.65958 12.0939 8.23127 12.2108 7.92297C12.2594 7.79468 12.4281 7.76261 12.5191 7.86503C13.4295 8.90063 13.5071 10.1204 13.3188 11.1705C12.9547 13.2003 10.899 14.6777 8.85674 14.6777C6.30549 14.6777 4.27462 13.2179 3.74803 10.5756C3.53594 9.50896 3.64354 7.39844 5.2885 5.90866C5.41058 5.79692 5.61025 5.89624 5.5937 6.06384Z"
    fill="white" />
</svg>
