<svg width="25" height="19" viewBox="0 0 25 19" fill="none" xmlns="http://www.w3.org/2000/svg">
<path d="M24.6 1.60889C24.6 0.780465 23.9285 0.108887 23.1 0.108887C22.2716 0.108887 21.6 0.780465 21.6 1.60889C21.6 2.18315 21.9229 2.68186 22.3969 2.93395V7.53951C22.11 7.39982 21.7936 7.3117 21.4594 7.28779V12.43C22.7939 12.3339 23.85 11.2173 23.85 9.85889C23.85 9.84857 23.85 9.83873 23.8496 9.82842C23.8496 9.82654 23.8494 9.82476 23.8494 9.82289C23.8495 9.81923 23.85 9.81567 23.85 9.81201V2.9077C24.2983 2.64834 24.6 2.16398 24.6 1.60889Z" fill="white"/>
<path d="M5.89691 5.40576H2.00629C1.22961 5.40576 0.600037 6.03539 0.600037 6.81201V13.6558C0.600037 14.4324 1.22961 15.062 2.00629 15.062H5.89691V5.40576ZM4.30316 11.3589C4.30316 11.7472 3.98835 12.062 3.60004 12.062C3.21172 12.062 2.89691 11.7472 2.89691 11.3589V9.10889C2.89691 8.72057 3.21172 8.40576 3.60004 8.40576C3.98835 8.40576 4.30316 8.72057 4.30316 9.10889V11.3589Z" fill="white"/>
<path d="M13.3969 15.062V5.40576H7.30316V15.062H13.3969ZM9.64691 9.10889C9.64691 8.72057 9.96173 8.40576 10.35 8.40576C10.7384 8.40576 11.0532 8.72057 11.0532 9.10889V11.3589C11.0532 11.7472 10.7384 12.062 10.35 12.062C9.96173 12.062 9.64691 11.7472 9.64691 11.3589V9.10889Z" fill="white"/>
<path d="M18.6469 5.40576H14.8032V15.062H18.6469C19.4236 15.062 20.0532 14.4324 20.0532 13.6558V6.81201C20.0532 6.03539 19.4236 5.40576 18.6469 5.40576ZM17.8032 11.3589C17.8032 11.7472 17.4883 12.062 17.1 12.062C16.7117 12.062 16.3969 11.7472 16.3969 11.3589V9.10889C16.3969 8.72057 16.7117 8.40576 17.1 8.40576C17.4883 8.40576 17.8032 8.72057 17.8032 9.10889V11.3589Z" fill="white"/>
<path d="M18.5532 3.10889C18.5532 2.72076 18.2382 2.40576 17.85 2.40576H2.85004C2.46191 2.40576 2.14691 2.72076 2.14691 3.10889V3.99951H18.5532V3.10889Z" fill="white"/>
<path d="M2.14694 17.4055C2.14694 17.7936 2.46194 18.1086 2.85006 18.1086H17.8501C18.2382 18.1086 18.5532 17.7936 18.5532 17.4055V16.468H2.14694V17.4055Z" fill="white"/>
</svg>
