<svg xmlns="http://www.w3.org/2000/svg" width="33" height="32" viewBox="0 0 33 32" fill="none">
  <path
    d="M24.2737 6.66999C22.1119 4.94034 19.4254 3.99863 16.6569 4C13.3933 4 10.3451 5.25732 8.0662 7.54053C5.86388 9.74981 4.65692 12.6668 4.66656 15.7519C4.66664 18.0139 5.33069 20.226 6.57638 22.1141L6.58656 22.1285C6.60156 22.1505 6.61709 22.1725 6.63263 22.1939C6.64816 22.2153 6.66745 22.2432 6.67174 22.2501L6.68352 22.2716C6.74406 22.3787 6.79066 22.5094 6.74941 22.6412L5.76263 26.2123C5.72315 26.3451 5.70153 26.4825 5.69834 26.621C5.69763 26.9854 5.84143 27.3351 6.09822 27.5936C6.355 27.8521 6.70381 27.9982 7.06816 27.9999C7.2607 27.9936 7.45043 27.952 7.62798 27.8773L11.2435 26.5723L11.289 26.5546C11.3874 26.5133 11.4931 26.4923 11.5998 26.493C11.6981 26.4932 11.7956 26.5114 11.8874 26.5466C11.9742 26.5803 12.7623 26.8819 13.5937 27.1144C14.2848 27.3073 15.7226 27.5966 16.8492 27.5966C20.0447 27.5966 23.0287 26.3591 25.2508 24.1112C27.4536 21.8805 28.6665 18.9153 28.6665 15.7584C28.6668 14.948 28.5809 14.1399 28.4104 13.3477C27.8565 10.743 26.3876 8.37088 24.2737 6.66999ZM11.5237 17.7143C11.1846 17.7143 10.8532 17.6137 10.5713 17.4253C10.2894 17.237 10.0696 16.9692 9.9399 16.656C9.81015 16.3428 9.7762 15.9981 9.84235 15.6655C9.90849 15.333 10.0718 15.0275 10.3115 14.7878C10.5513 14.548 10.8567 14.3848 11.1892 14.3186C11.5218 14.2525 11.8665 14.2864 12.1797 14.4162C12.493 14.5459 12.7607 14.7657 12.9491 15.0476C13.1374 15.3295 13.238 15.6609 13.238 16C13.238 16.4546 13.0574 16.8907 12.7359 17.2122C12.4144 17.5336 11.9783 17.7143 11.5237 17.7143ZM16.6665 17.7143C16.3275 17.7143 15.996 17.6137 15.7141 17.4253C15.4322 17.237 15.2125 16.9692 15.0827 16.656C14.953 16.3428 14.919 15.9981 14.9852 15.6655C15.0513 15.333 15.2146 15.0275 15.4544 14.7878C15.6941 14.548 15.9996 14.3848 16.3321 14.3186C16.6646 14.2525 17.0093 14.2864 17.3226 14.4162C17.6358 14.5459 17.9035 14.7657 18.0919 15.0476C18.2803 15.3295 18.3808 15.6609 18.3808 16C18.3808 16.4546 18.2002 16.8907 17.8787 17.2122C17.5572 17.5336 17.1212 17.7143 16.6665 17.7143ZM21.8094 17.7143C21.4703 17.7143 21.1389 17.6137 20.857 17.4253C20.5751 17.237 20.3553 16.9692 20.2256 16.656C20.0958 16.3428 20.0619 15.9981 20.128 15.6655C20.1942 15.333 20.3575 15.0275 20.5972 14.7878C20.8369 14.548 21.1424 14.3848 21.4749 14.3186C21.8075 14.2525 22.1522 14.2864 22.4654 14.4162C22.7786 14.5459 23.0464 14.7657 23.2347 15.0476C23.4231 15.3295 23.5237 15.6609 23.5237 16C23.5237 16.4546 23.343 16.8907 23.0216 17.2122C22.7001 17.5336 22.264 17.7143 21.8094 17.7143Z"
    fill="url(#paint0_radial_22199_5397)" />
  <defs>
    <radialGradient id="paint0_radial_22199_5397" cx="0" cy="0" r="1" gradientUnits="userSpaceOnUse"
      gradientTransform="translate(14.3588 5.3258) rotate(86.4732) scale(37.5145 37.5146)">
      <stop stop-color="#D6EBFF" />
      <stop offset="0.75787" stop-color="#718EAB" />
    </radialGradient>
  </defs>
</svg>
