<svg width="16" height="18" viewBox="0 0 16 18" fill="none" xmlns="http://www.w3.org/2000/svg">
<path fill-rule="evenodd" clip-rule="evenodd" d="M12.6023 5.16318V6.44096C14.0375 6.88897 15.0833 8.18828 15.0833 9.74017V13.8543C15.0833 15.7755 13.4905 17.3332 11.5268 17.3332H4.47399C2.50945 17.3332 0.916656 15.7755 0.916656 13.8543V9.74017C0.916656 8.18828 1.96328 6.88897 3.39773 6.44096V5.16318C3.4062 2.67883 5.46388 0.666504 7.98729 0.666504C10.5446 0.666504 12.6023 2.67883 12.6023 5.16318ZM8.0045 2.11507C9.72347 2.11507 11.1207 3.48146 11.1207 5.16254V6.26062H4.87987V5.14598C4.88834 3.47318 6.28553 2.11507 8.0045 2.11507ZM8.7413 12.7127C8.7413 13.1185 8.41105 13.4414 7.99613 13.4414C7.58967 13.4414 7.25943 13.1185 7.25943 12.7127V10.8743C7.25943 10.4768 7.58967 10.1538 7.99613 10.1538C8.41105 10.1538 8.7413 10.4768 8.7413 10.8743V12.7127Z" fill="#CCCCCC"/>
</svg>
