<svg width="14" height="14" viewBox="0 0 14 14" fill="none" xmlns="http://www.w3.org/2000/svg">
<path d="M7 1.3125C5.87512 1.3125 4.7755 1.64607 3.8402 2.27102C2.90489 2.89597 2.17591 3.78423 1.74544 4.82349C1.31496 5.86274 1.20233 7.00631 1.42179 8.10957C1.64124 9.21284 2.18292 10.2263 2.97833 11.0217C3.77374 11.8171 4.78716 12.3588 5.89042 12.5782C6.99369 12.7977 8.13726 12.685 9.17651 12.2546C10.2158 11.8241 11.104 11.0951 11.729 10.1598C12.3539 9.2245 12.6875 8.12488 12.6875 7C12.6861 5.49201 12.0864 4.04619 11.0201 2.97988C9.95381 1.91357 8.50799 1.3139 7 1.3125ZM4.71971 4.71971C4.80492 4.63285 4.90659 4.56384 5.01878 4.51674C5.13098 4.46963 5.25143 4.44537 5.37311 4.44537C5.49479 4.44537 5.61525 4.46963 5.72744 4.51674C5.83963 4.56384 5.9413 4.63285 6.02651 4.71971C6.12138 4.80336 6.1981 4.90555 6.25195 5.02C6.3058 5.13444 6.33563 5.25871 6.33959 5.38512C6.34356 5.51154 6.32159 5.63743 6.27503 5.75503C6.22847 5.87262 6.1583 5.97943 6.06887 6.06887C5.97943 6.1583 5.87262 6.22846 5.75503 6.27502C5.63743 6.32159 5.51154 6.34356 5.38513 6.33959C5.25871 6.33562 5.13445 6.3058 5.02 6.25195C4.90556 6.1981 4.80336 6.12138 4.71971 6.02651C4.63285 5.9413 4.56385 5.83963 4.51674 5.72744C4.46964 5.61525 4.44538 5.49479 4.44538 5.37311C4.44538 5.25143 4.46964 5.13097 4.51674 5.01878C4.56385 4.90659 4.63285 4.80492 4.71971 4.71971ZM5.77785 9.36494C5.72858 9.42729 5.6659 9.47775 5.59445 9.51255C5.52301 9.54736 5.44464 9.56562 5.36518 9.56599C5.26506 9.56633 5.1669 9.53825 5.0821 9.48503C4.9973 9.4318 4.92935 9.3556 4.88613 9.26529C4.84291 9.17498 4.82621 9.07426 4.83796 8.97483C4.84971 8.87541 4.88943 8.78135 4.9525 8.7036L8.21686 4.63506C8.30416 4.52604 8.43101 4.45597 8.56977 4.44011C8.70852 4.42425 8.84792 4.4639 8.95756 4.55041C9.0123 4.59368 9.05794 4.64737 9.09185 4.70836C9.12576 4.76935 9.14726 4.83644 9.15513 4.90578C9.163 4.97512 9.15707 5.04533 9.13769 5.11237C9.11831 5.17941 9.08586 5.24195 9.04221 5.29639L5.77785 9.36494ZM9.275 9.28029C9.18979 9.36715 9.08812 9.43615 8.97593 9.48326C8.86374 9.53036 8.74328 9.55462 8.6216 9.55462C8.49992 9.55462 8.37946 9.53036 8.26727 9.48326C8.15508 9.43615 8.05341 9.36715 7.9682 9.28029C7.81245 9.10364 7.72986 8.87429 7.73725 8.6389C7.74464 8.40351 7.84145 8.17979 8.00798 8.01326C8.1745 7.84674 8.39823 7.74993 8.63361 7.74254C8.869 7.73515 9.09836 7.81773 9.275 7.97349C9.36221 8.05834 9.43162 8.15974 9.47918 8.27174C9.52674 8.38374 9.55149 8.5041 9.55198 8.62578C9.55248 8.74746 9.5287 8.86801 9.48205 8.98039C9.4354 9.09278 9.36681 9.19473 9.28029 9.28029H9.275Z" fill="white" fill-opacity="0.9"/>
</svg>
