<svg xmlns="http://www.w3.org/2000/svg" width="32" height="32" viewBox="0 0 32 32" fill="none">
  <path fill-rule="evenodd" clip-rule="evenodd" d="M11.5554 2.66602C6.6462 2.66602 2.6665 6.64571 2.6665 11.5549V20.4438C2.6665 25.353 6.64619 29.3327 11.5554 29.3327H20.4443C25.3535 29.3327 29.3332 25.353 29.3332 20.4438V11.5549C29.3332 6.64571 25.3535 2.66602 20.4443 2.66602H11.5554ZM17.3864 11.5343C17.3864 9.39783 19.1894 7.66602 21.4136 7.66602C23.6378 7.66602 25.4408 9.39783 25.4408 11.5343C25.4408 13.6707 23.6378 15.4025 21.4136 15.4025C19.1894 15.4025 17.3864 13.6707 17.3864 11.5343ZM19.7033 11.5424C19.7033 12.4487 20.47 13.1851 21.4136 13.1851C22.3572 13.1851 23.1239 12.4487 23.1239 11.5424C23.1239 10.636 22.3572 9.89956 21.4136 9.89956C20.47 9.89956 19.7033 10.636 19.7033 11.5424ZM16.2238 15.4106V10.5712C16.2238 8.96892 14.8674 7.66602 13.1992 7.66602C12.5252 7.66602 11.8933 7.88451 11.3878 8.24868C10.8823 7.88451 10.2589 7.66602 9.57645 7.66602C7.9083 7.66602 6.55187 8.96892 6.55187 10.5712V15.4106H8.86033V10.547C8.86033 10.1828 9.16363 9.89146 9.54275 9.89146C9.92188 9.89146 10.2252 10.1828 10.2252 10.547V15.4106H12.542V10.547C12.542 10.1828 12.8454 9.89146 13.2245 9.89146C13.6036 9.89146 13.9069 10.1828 13.9069 10.547V15.4106H16.2238ZM17.3864 20.9459C17.3864 18.8095 19.1894 17.0777 21.4136 17.0777C23.6378 17.0777 25.4408 18.8095 25.4408 20.9459C25.4408 23.0824 23.6378 24.8142 21.4136 24.8142C19.1894 24.8142 17.3864 23.0824 17.3864 20.9459ZM19.7033 20.954C19.7033 21.8604 20.47 22.5968 21.4136 22.5968C22.3572 22.5968 23.1239 21.8604 23.1239 20.954C23.1239 20.0477 22.3572 19.3112 21.4136 19.3112C20.47 19.3112 19.7033 20.0477 19.7033 20.954ZM16.2238 24.8223V19.9829C16.2238 18.3806 14.8674 17.0777 13.1992 17.0777C12.5168 17.0777 11.8933 17.2962 11.3878 17.6603C10.8823 17.2962 10.2589 17.0777 9.57645 17.0777C7.9083 17.0777 6.55187 18.3806 6.55187 19.9829V24.8223H8.86033V19.9586C8.86033 19.5945 9.16363 19.3031 9.54275 19.3031C9.92188 19.3031 10.2252 19.5945 10.2252 19.9586V24.8223H12.542V19.9586C12.542 19.5945 12.8454 19.3031 13.2245 19.3031C13.6036 19.3031 13.9069 19.5945 13.9069 19.9586V24.8223H16.2238Z" fill="url(#paint0_radial_22199_5366)"/>
  <defs>
    <radialGradient id="paint0_radial_22199_5366" cx="0" cy="0" r="1" gradientUnits="userSpaceOnUse" gradientTransform="translate(13.4357 4.13913) rotate(86.4733) scale(41.6829 41.6829)">
      <stop stop-color="#D6EBFF"/>
      <stop offset="0.75787" stop-color="#718EAB"/>
    </radialGradient>
  </defs>
</svg>
