<svg width="16" height="19" viewBox="0 0 16 19" fill="none" xmlns="http://www.w3.org/2000/svg">
<path d="M11.8833 5.26694H4.42718C2.90465 6.98985 0.329163 10.4091 0.329163 13.9148C0.329163 16.9548 2.80505 18.5713 4.59793 18.5713H11.7125C13.5054 18.5713 15.9813 16.9548 15.9813 13.9148C15.9813 10.4091 13.4058 6.98985 11.8833 5.26694ZM8.8667 14.58V15.2452C8.8667 15.4216 8.79174 15.5908 8.65832 15.7156C8.52489 15.8403 8.34393 15.9104 8.15524 15.9104C7.96655 15.9104 7.78559 15.8403 7.65216 15.7156C7.51873 15.5908 7.44378 15.4216 7.44378 15.2452V14.58C7.07009 14.579 6.70321 14.4864 6.37984 14.3113C6.05647 14.1362 5.78794 13.8847 5.60109 13.5821C5.54254 13.5069 5.50154 13.4209 5.48073 13.3299C5.45993 13.2389 5.45978 13.1448 5.48031 13.0537C5.50084 12.9626 5.54158 12.8766 5.5999 12.8012C5.65822 12.7257 5.73282 12.6626 5.81889 12.6158C5.90495 12.569 6.00055 12.5396 6.09952 12.5296C6.19848 12.5195 6.29861 12.529 6.39342 12.5574C6.48823 12.5857 6.57561 12.6324 6.64992 12.6943C6.72423 12.7563 6.78381 12.8321 6.82481 12.9169C6.88749 13.0184 6.97775 13.1027 7.08644 13.1611C7.19514 13.2195 7.31841 13.25 7.44378 13.2495H8.8667C9.05539 13.2495 9.23635 13.1795 9.36978 13.0547C9.50321 12.93 9.57816 12.7607 9.57816 12.5843C9.57816 12.4079 9.50321 12.2387 9.36978 12.1139C9.23635 11.9892 9.05539 11.9191 8.8667 11.9191H7.44378C6.8777 11.9191 6.33481 11.7089 5.93454 11.3346C5.53427 10.9603 5.30939 10.4527 5.30939 9.92346C5.30939 9.39418 5.53427 8.88658 5.93454 8.51232C6.33481 8.13806 6.8777 7.92781 7.44378 7.92781V7.26259C7.44378 7.08616 7.51873 6.91697 7.65216 6.79221C7.78559 6.66746 7.96655 6.59737 8.15524 6.59737C8.34393 6.59737 8.52489 6.66746 8.65832 6.79221C8.79174 6.91697 8.8667 7.08616 8.8667 7.26259V7.92781C9.24039 7.92875 9.60726 8.02141 9.93063 8.19652C10.254 8.37162 10.5225 8.62304 10.7094 8.92563C10.7679 9.00091 10.8089 9.08684 10.8297 9.17786C10.8506 9.26889 10.8507 9.36298 10.8302 9.45406C10.8096 9.54514 10.7689 9.63117 10.7106 9.70661C10.6523 9.78204 10.5777 9.84519 10.4916 9.89197C10.4055 9.93876 10.3099 9.96813 10.211 9.9782C10.112 9.98827 10.0119 9.97881 9.91706 9.95043C9.82225 9.92205 9.73487 9.87538 9.66056 9.81344C9.58625 9.7515 9.52667 9.67567 9.48567 9.59085C9.42299 9.48933 9.33273 9.40511 9.22404 9.3467C9.11534 9.28829 8.99207 9.25778 8.8667 9.25824H7.44378C7.25509 9.25824 7.07412 9.32833 6.9407 9.45308C6.80727 9.57783 6.73232 9.74703 6.73232 9.92346C6.73232 10.0999 6.80727 10.2691 6.9407 10.3938C7.07412 10.5186 7.25509 10.5887 7.44378 10.5887H8.8667C9.43277 10.5887 9.97566 10.7989 10.3759 11.1732C10.7762 11.5474 11.0011 12.055 11.0011 12.5843C11.0011 13.1136 10.7762 13.6212 10.3759 13.9955C9.97566 14.3697 9.43277 14.58 8.8667 14.58Z" fill="white"/>
<path d="M4.54025 4.48433H11.7742L13.5513 1.51972C13.6335 1.38264 13.6549 1.22587 13.612 1.07692C13.569 0.927982 13.4644 0.796394 13.3165 0.705268C13.1679 0.613095 12.985 0.56775 12.8 0.577294C12.6151 0.586838 12.4402 0.650653 12.3065 0.757393C11.7943 1.08989 11.1545 1.25656 10.5059 1.22652C9.86096 1.25623 9.22468 1.09205 8.71307 0.763908C8.56638 0.642554 8.36796 0.574439 8.16113 0.574439C7.9543 0.574439 7.75587 0.642554 7.60919 0.763908C7.09583 1.09408 6.45619 1.25841 5.80853 1.22652C5.16361 1.25623 4.52733 1.09205 4.01571 0.763908C3.88414 0.65356 3.7095 0.585999 3.52332 0.573425C3.33714 0.560851 3.15169 0.604092 3.00046 0.695341C2.84923 0.786589 2.74219 0.919832 2.69866 1.07101C2.65512 1.22219 2.67798 1.38134 2.76308 1.51972L4.54025 4.48433Z" fill="white"/>
</svg>
