<svg xmlns="http://www.w3.org/2000/svg" width="33" height="32" viewBox="0 0 33 32" fill="none">
  <path d="M16.3333 2.66699C13.6963 2.66699 11.1184 3.44898 8.92574 4.91406C6.73308 6.37915 5.02411 8.46153 4.01495 10.8979C3.00578 13.3342 2.74173 16.0151 3.2562 18.6015C3.77067 21.1879 5.04055 23.5637 6.90525 25.4284C8.76995 27.2931 11.1457 28.563 13.7321 29.0775C16.3185 29.5919 18.9994 29.3279 21.4358 28.3187C23.8721 27.3095 25.9545 25.6006 27.4196 23.4079C28.8847 21.2153 29.6667 18.6374 29.6667 16.0003C29.6667 12.4641 28.2619 9.07272 25.7614 6.57223C23.2609 4.07175 19.8696 2.66699 16.3333 2.66699ZM10.2727 12.364H19.4727L19.1091 12.0124C18.8808 11.7842 18.7526 11.4746 18.7526 11.1518C18.7526 10.992 18.7841 10.8337 18.8453 10.6861C18.9064 10.5384 18.9961 10.4042 19.1091 10.2912C19.2221 10.1782 19.3563 10.0886 19.5039 10.0274C19.6516 9.96624 19.8099 9.93476 19.9697 9.93476C20.2925 9.93476 20.6021 10.063 20.8303 10.2912L23.2545 12.7155C23.4227 12.8859 23.5367 13.1024 23.582 13.3375C23.6273 13.5727 23.6019 13.8159 23.5091 14.0367C23.4182 14.258 23.2637 14.4475 23.0653 14.5813C22.8668 14.715 22.6332 14.787 22.3939 14.7882H10.2727C9.95126 14.7882 9.64295 14.6605 9.41563 14.4332C9.18832 14.2059 9.06061 13.8976 9.06061 13.5761C9.06061 13.2546 9.18832 12.9463 9.41563 12.719C9.64295 12.4917 9.95126 12.364 10.2727 12.364ZM22.3939 19.6367H13.1939L13.5576 19.9882C13.6712 20.1009 13.7614 20.2349 13.8229 20.3827C13.8844 20.5304 13.9161 20.6888 13.9161 20.8488C13.9161 21.0088 13.8844 21.1673 13.8229 21.315C13.7614 21.4627 13.6712 21.5967 13.5576 21.7094C13.4449 21.823 13.3108 21.9132 13.1631 21.9747C13.0154 22.0363 12.857 22.068 12.697 22.068C12.537 22.068 12.3785 22.0363 12.2308 21.9747C12.0831 21.9132 11.949 21.823 11.8364 21.7094L9.41213 19.2852C9.24393 19.1147 9.13 18.8983 9.0847 18.6631C9.0394 18.428 9.06476 18.1847 9.15758 17.964C9.24851 17.7426 9.40294 17.5531 9.60138 17.4194C9.79983 17.2856 10.0334 17.2136 10.2727 17.2124H22.3939C22.7154 17.2124 23.0237 17.3401 23.251 17.5675C23.4784 17.7948 23.6061 18.1031 23.6061 18.4246C23.6061 18.746 23.4784 19.0543 23.251 19.2817C23.0237 19.509 22.7154 19.6367 22.3939 19.6367Z" fill="url(#paint0_radial_22199_5384)"/>
  <defs>
    <radialGradient id="paint0_radial_22199_5384" cx="0" cy="0" r="1" gradientUnits="userSpaceOnUse" gradientTransform="translate(13.7692 4.1401) rotate(86.4733) scale(41.6829 41.6829)">
      <stop stop-color="#D6EBFF"/>
      <stop offset="0.75787" stop-color="#718EAB"/>
    </radialGradient>
  </defs>
</svg>
