<svg width="20" height="20" viewBox="0 0 20 20" fill="none" xmlns="http://www.w3.org/2000/svg">
<path d="M16.5667 10.5907C16.4422 12.0486 15.8647 13.3776 14.9726 14.4362L16.7864 16.2494C18.1357 14.7207 18.9943 12.7562 19.1286 10.5907H16.5667Z" fill="white"/>
<path d="M16.7855 3.74985L14.9715 5.56337C15.8638 6.6219 16.4414 7.951 16.566 9.40888H19.1279C18.9937 7.24325 18.1349 5.27855 16.7855 3.74985Z" fill="white"/>
<path d="M10.2908 3.13348C11.7484 3.25803 13.0773 3.83543 14.1358 4.72734L15.9498 2.91375C14.4211 1.56426 12.4564 0.705509 10.2908 0.571289V3.13348Z" fill="white"/>
<path d="M2.83321 9.40884C2.9578 7.95104 3.53541 6.62201 4.42764 5.56348L2.6138 3.74985C1.26436 5.27855 0.405643 7.24325 0.271423 9.40884H2.83321Z" fill="white"/>
<path d="M14.1364 15.2726C13.0778 16.1648 11.7487 16.7424 10.2908 16.867V19.4284C12.4565 19.2942 14.4214 18.4353 15.9501 17.0858L14.1364 15.2726Z" fill="white"/>
<path d="M9.10919 16.867C7.65133 16.7424 6.32223 16.1648 5.26366 15.2726L3.44997 17.0858C4.9787 18.4353 6.94346 19.2942 9.10919 19.4284V16.867Z" fill="white"/>
<path d="M4.42728 14.4362C3.53523 13.3776 2.95776 12.0486 2.83321 10.5907H0.271423C0.405679 12.7561 1.26429 14.7207 2.61359 16.2494L4.42728 14.4362Z" fill="white"/>
<path d="M5.26384 4.72745C6.32234 3.83547 7.65129 3.25803 9.10894 3.13348V0.571289C6.94332 0.705509 4.97866 1.5643 3.44997 2.91379L5.26384 4.72745Z" fill="white"/>
<path d="M9.69998 4.28554C6.54776 4.28554 3.98569 6.85099 3.98569 9.99955C3.98569 13.152 6.55165 15.7141 9.69998 15.7141C12.8508 15.7141 15.4143 13.1503 15.4143 9.99955C15.4143 6.84846 12.8503 4.28554 9.69998 4.28554ZM12.4159 10.4083C11.8778 10.9435 10.4389 12.3648 10.356 12.4476C9.99259 12.8072 9.40743 12.8072 9.044 12.4476C6.36802 9.80003 7.20822 10.6298 6.98413 10.4083C5.86383 9.29385 6.5171 7.63652 7.80503 7.33388C8.56889 7.15438 9.28509 7.45334 9.70001 7.9925C10.1149 7.45334 10.8311 7.15438 11.595 7.33388C12.8784 7.63544 13.5402 9.28988 12.4159 10.4083Z" fill="white"/>
</svg>
