<svg width="24" height="15" viewBox="0 0 24 15" fill="none" xmlns="http://www.w3.org/2000/svg">
<path d="M10.6797 1.16326C10.5677 1.03923 10.4086 0.968218 10.2415 0.967647L8.27869 0.960941L9.58007 3.66957C9.66846 3.85345 9.65593 4.06987 9.54693 4.24236C9.43795 4.41493 9.24777 4.51919 9.04361 4.51846L7.89497 4.51451C6.0272 4.50813 4.50252 6.02148 4.49614 7.88798C4.48979 9.75451 6.00409 11.2783 7.87184 11.2846L16.8488 11.3153C18.7166 11.3217 20.2413 9.80825 20.2477 7.9418C20.254 6.0753 18.7397 4.55156 16.872 4.54518L15.7233 4.54125C15.5192 4.54056 15.3297 4.43495 15.2219 4.26172C15.1141 4.08849 15.103 3.87202 15.1926 3.68871L16.5125 0.989045L14.5497 0.982338C14.3826 0.981767 14.2226 1.05197 14.1102 1.17495C13.6639 1.66232 13.0538 1.93007 12.3924 1.92778C11.7309 1.92552 11.1227 1.65405 10.6797 1.16326ZM16.5246 7.13913L16.5192 8.71907C16.5181 9.0463 16.2518 9.31064 15.9243 9.30952C15.5969 9.3084 15.3324 9.04225 15.3335 8.71502L15.3389 7.13508C15.34 6.80785 15.6063 6.54351 15.9338 6.54463C16.2612 6.54575 16.5257 6.8119 16.5246 7.13913ZM14.1532 7.13103L14.1478 8.71097C14.1466 9.03819 13.8803 9.30254 13.5529 9.30142C13.2254 9.3003 12.9609 9.03414 12.962 8.70692L12.9674 7.12698C12.9686 6.79975 13.2349 6.53541 13.5623 6.53653C13.8897 6.53762 14.1543 6.8038 14.1532 7.13103ZM11.7817 7.1229L11.7763 8.70284C11.7752 9.03006 11.5088 9.29441 11.1814 9.29329C10.854 9.29217 10.5894 9.02601 10.5906 8.69879L10.596 7.11885C10.5971 6.79162 10.8634 6.52728 11.1908 6.52839C11.5183 6.52954 11.7828 6.7957 11.7817 7.1229ZM9.4102 7.11482L9.4048 8.69476C9.40368 9.02199 9.13735 9.28633 8.80991 9.28521C8.48247 9.2841 8.21795 9.01794 8.21907 8.69071L8.22447 7.11077C8.22559 6.78354 8.49192 6.5192 8.81936 6.52032C9.1468 6.52144 9.41132 6.7876 9.4102 7.11482Z" fill="white"/>
<path d="M16.6732 3.35937L16.876 3.36006C19.3975 3.36868 21.442 5.4258 21.4334 7.94569C21.4292 9.16466 20.9491 10.3102 20.0816 11.1713C19.2141 12.0323 18.0646 12.5042 16.8448 12.5001L7.86781 12.4694C5.3463 12.4608 3.30183 10.4037 3.31044 7.88377C3.31905 5.36388 5.37747 3.3208 7.89907 3.32936L8.10177 3.33008L6.99012 1.01634C5.48201 1.20868 4.0864 1.88681 2.9897 2.97533C1.67359 4.28163 0.945258 6.02196 0.938952 7.8757C0.932591 9.72938 1.64901 11.4746 2.95617 12.7899C4.26332 14.1052 6.00479 14.833 7.85968 14.8393L16.8366 14.87C18.6916 14.8763 20.4379 14.1605 21.7541 12.8541C23.0702 11.5478 23.7985 9.8075 23.8048 7.95379C23.8112 6.10009 23.0948 4.35482 21.7876 3.03956C20.6984 1.94354 19.3074 1.25589 17.8007 1.05328L16.6732 3.35937Z" fill="white"/>
</svg>
