<svg xmlns="http://www.w3.org/2000/svg" width="24" height="24" viewBox="0 0 24 24" fill="none">
  <path fill-rule="evenodd" clip-rule="evenodd" d="M12 22.5C17.799 22.5 22.5 17.799 22.5 12C22.5 6.20101 17.799 1.5 12 1.5C6.20101 1.5 1.5 6.20101 1.5 12C1.5 17.799 6.20101 22.5 12 22.5ZM14.1157 5.59227L12.5622 7.14571C12.3283 7.37968 12.0808 7.68729 12 7.98527C11.9192 7.68729 11.7866 7.37969 11.5526 7.14572L9.99919 5.59228C9.28424 4.87733 8.12507 4.87733 7.41012 5.59228C6.76523 6.23717 6.72804 7.26952 7.24656 7.98525L12 7.98527L6.50776 7.98526C5.49667 7.98526 4.67701 8.80491 4.67701 9.816C4.67701 10.315 4.87662 10.7673 5.20035 11.0975H11.9965L12 11.0975L12.0035 11.0975H18.7997C19.1234 10.7673 19.323 10.315 19.323 9.816C19.323 8.80491 18.5033 7.98526 17.4922 7.98526L16.7047 7.98526L16.8943 7.98525C17.4128 7.26952 17.3496 6.23716 16.7047 5.59227C15.9898 4.87732 14.8306 4.87732 14.1157 5.59227ZM5.39543 12.2587L5.39316 12.1699H11.4508V18.9437H10.9015C9.19551 18.9437 8.34249 18.9437 7.66962 18.6517C6.77245 18.2624 6.05965 17.5157 5.68803 16.5758C5.40934 15.8709 5.40934 14.9769 5.40934 13.1899C5.40934 12.7983 5.40177 12.5045 5.39543 12.2587ZM13.0985 18.9437C14.8045 18.9437 15.6575 18.9437 16.3304 18.6517C17.2276 18.2624 17.9404 17.5157 18.312 16.5758C18.5907 15.8709 18.5907 14.9772 18.5907 13.1899C18.5907 12.75 18.5907 12.4337 18.5865 12.1699H12.5492V18.9437H13.0985Z" fill="url(#paint0_radial_22268_82681)"/>
  <defs>
    <radialGradient id="paint0_radial_22268_82681" cx="0" cy="0" r="1" gradientUnits="userSpaceOnUse" gradientTransform="translate(9.98077 2.66007) rotate(86.4733) scale(32.8253)">
      <stop stop-color="#D6EBFF"/>
      <stop offset="0.75787" stop-color="#718EAB"/>
    </radialGradient>
  </defs>
</svg>
