<svg width="18" height="18" viewBox="0 0 18 18" fill="none" xmlns="http://www.w3.org/2000/svg">
<path d="M4.11974 11.153C3.93221 10.9655 3.62821 10.9655 3.44069 11.153C3.25317 11.3405 3.25317 11.6445 3.44069 11.832L6.46853 14.8595C6.65605 15.047 6.96005 15.047 7.14757 14.8595C7.33509 14.672 7.33509 14.368 7.14757 14.1805L4.11974 11.153Z" fill="white"/>
<path d="M11.699 1.42987C10.4254 1.91147 9.14996 2.62581 8.0964 3.681C5.7746 6.00251 4.34222 8.64872 4.1077 10.7177C4.20689 10.7592 4.29711 10.8205 4.37468 10.8981L7.40182 13.9249C7.48117 14.0042 7.54072 14.0962 7.58222 14.1936C9.64963 13.9573 12.2997 12.5269 14.6214 10.2054C15.675 9.15019 16.3911 7.87669 16.871 6.59962L16.8566 6.59422C12.8994 4.94821 11.9731 1.8457 11.699 1.42987ZM12.8607 7.83341C12.1987 8.49543 11.1289 8.49543 10.4668 7.83341C9.80658 7.17322 9.80658 6.10176 10.4668 5.44157C11.1289 4.77955 12.1987 4.77955 12.8607 5.44157C13.521 6.10173 13.521 7.17318 12.8607 7.83341Z" fill="white"/>
<path d="M16.8896 0.429262C15.1114 0.492977 13.4029 0.824564 12.0384 1.30461C13.0079 3.63837 14.6597 5.28998 16.9955 6.26113C17.4836 4.87348 17.8114 3.17127 17.8709 1.41048C17.8894 0.861024 17.4391 0.41075 16.8896 0.429262Z" fill="white"/>
<path d="M5.46816 14.8885C5.06499 15.2917 3.66811 15.6461 2.89746 15.8149C2.65181 15.8693 2.43243 15.6499 2.48682 15.4042C2.6556 14.6334 3.00806 13.2363 3.41309 12.8312C3.48996 12.7543 3.57248 12.6887 3.65874 12.6343L3.27058 12.2461C2.89743 12.3436 2.54493 12.5386 2.25243 12.8312C1.62055 13.4632 1.06743 15.6499 0.803053 16.8539C0.718681 17.2402 1.06182 17.5834 1.44809 17.499C2.65188 17.2327 4.83631 16.6814 5.46819 16.0493C5.76069 15.7568 5.9557 15.4061 6.05694 15.0348L5.66692 14.6428C5.61067 14.729 5.54506 14.8116 5.46816 14.8885Z" fill="white"/>
<path d="M1.22493 10.6258C1.44806 10.849 1.81367 10.8396 2.02555 10.6052L2.79244 9.76126L3.83121 9.72752C4.08061 8.68293 4.56998 7.55959 5.25254 6.43812L2.87496 6.42872C2.28246 6.42686 1.75364 6.80193 1.56242 7.36455L0.758002 9.72184C0.690497 9.92063 0.741135 10.1419 0.891153 10.2901L1.22493 10.6258Z" fill="white"/>
<path d="M8.57327 14.4684L8.5395 15.5074L7.69388 16.2763C7.45949 16.4882 7.45198 16.852 7.67512 17.0752L8.00885 17.4109C8.15887 17.559 8.37822 17.6096 8.57884 17.5421L10.9358 16.7395C11.4964 16.5482 11.8733 16.0193 11.8715 15.4249L11.8621 13.0469C10.7409 13.7295 9.61768 14.2171 8.57327 14.4684Z" fill="white"/>
</svg>
