<svg width="20" height="20" viewBox="0 0 20 20" fill="none" xmlns="http://www.w3.org/2000/svg">
<path d="M9.58268 18.1253C4.87435 18.1253 1.04102 14.292 1.04102 9.58366C1.04102 4.87533 4.87435 1.04199 9.58268 1.04199C14.291 1.04199 18.1243 4.87533 18.1243 9.58366C18.1243 14.292 14.291 18.1253 9.58268 18.1253ZM9.58268 2.29199C5.55768 2.29199 2.29102 5.56699 2.29102 9.58366C2.29102 13.6003 5.55768 16.8753 9.58268 16.8753C13.6077 16.8753 16.8743 13.6003 16.8743 9.58366C16.8743 5.56699 13.6077 2.29199 9.58268 2.29199Z" fill="#B0B6BF"/>
<path d="M18.3327 18.9587C18.1743 18.9587 18.016 18.9003 17.891 18.7753L16.2243 17.1087C15.9827 16.867 15.9827 16.467 16.2243 16.2253C16.466 15.9837 16.866 15.9837 17.1077 16.2253L18.7744 17.892C19.016 18.1337 19.016 18.5337 18.7744 18.7753C18.6494 18.9003 18.491 18.9587 18.3327 18.9587Z" fill="#B0B6BF"/>
</svg>
