<svg width="22" height="21" viewBox="0 0 22 21" fill="none" xmlns="http://www.w3.org/2000/svg">
<path d="M21.8 12.9856C21.8 15.9911 19.3636 18.4276 16.3582 18.4276C14.126 18.4276 12.139 17.0798 11.3 15.1567C10.4609 17.0798 8.47396 18.4276 6.24177 18.4276C3.23636 18.4276 0.799988 15.9911 0.799988 12.9856C0.799988 9.98015 3.23636 7.54372 6.24177 7.54372C6.25488 7.54372 6.26747 7.54557 6.28055 7.54568C6.00892 6.89841 5.8582 6.18786 5.8582 5.44192C5.8582 2.43643 8.29457 0 11.3 0C14.3054 0 16.7418 2.43643 16.7418 5.44192C16.7418 6.18786 16.5911 6.89841 16.3194 7.54568C16.3325 7.54557 16.3451 7.54372 16.3582 7.54372C19.3636 7.54372 21.8 9.98015 21.8 12.9856Z" fill="white"/>
<path d="M6.81464 21C6.81464 21 10.6701 20.3043 11.3 15.1567C11.9299 20.3043 15.7854 21 15.7854 21H6.81464Z" fill="white"/>
</svg>
