<svg xmlns="http://www.w3.org/2000/svg" width="40" height="40" viewBox="0 0 40 40" fill="none">
  <path
    d="M40 20C40 31.0457 31.0457 40 20 40C8.9543 40 0 31.0457 0 20C0 8.9543 8.9543 0 20 0C31.0457 0 40 8.9543 40 20ZM3 20C3 29.3888 10.6112 37 20 37C29.3888 37 37 29.3888 37 20C37 10.6112 29.3888 3 20 3C10.6112 3 3 10.6112 3 20Z"
    fill="#42474D" />
  <path
    d="M38.5 20C39.3284 20 40.0059 20.6725 39.9438 21.4986C39.7357 24.2678 38.9527 26.9692 37.6384 29.4279C36.088 32.3286 33.8461 34.8021 31.1114 36.6294C28.3767 38.4567 25.2335 39.5813 21.9603 39.9037C18.6872 40.2261 15.385 39.7362 12.3463 38.4776C9.30767 37.2189 6.62632 35.2303 4.53979 32.6879C2.45326 30.1454 1.02595 27.1276 0.384295 23.9018C-0.257361 20.676 -0.0935589 17.3417 0.861193 14.1943C1.6705 11.5264 3.02694 9.06257 4.83793 6.9573C5.37818 6.32927 6.33274 6.33274 6.91852 6.91853C7.50431 7.50431 7.49853 8.45013 6.96664 9.08525C5.50008 10.8365 4.39806 12.8695 3.73201 15.0652C2.92048 17.7404 2.78124 20.5746 3.32665 23.3165C3.87206 26.0585 5.08527 28.6236 6.85882 30.7847C8.63237 32.9458 10.9115 34.6361 13.4944 35.706C16.0772 36.7758 18.8841 37.1922 21.6663 36.9181C24.4485 36.6441 27.1202 35.6882 29.4447 34.135C31.7692 32.5818 33.6748 30.4793 34.9927 28.0137C36.0743 25.9902 36.7326 23.7734 36.9339 21.4981C37.0069 20.6729 37.6716 20 38.5 20Z"
    fill="white" />
</svg>
