<svg xmlns="http://www.w3.org/2000/svg" width="33" height="32" viewBox="0 0 33 32" fill="none">
<path fill-rule="evenodd" clip-rule="evenodd" d="M26.7226 5.51512C27.0434 5.38462 27.3938 5.3405 27.7377 5.38726C28.0816 5.43403 28.4067 5.57 28.6797 5.78126C28.9527 5.99251 29.1637 6.27145 29.2912 6.58949C29.4188 6.90754 29.4582 7.25326 29.4054 7.59124C28.6447 12.4642 27.25 21.3937 26.5096 26.1336C26.4584 26.4616 26.3221 26.771 26.114 27.0319C25.9058 27.2929 25.6329 27.4965 25.3215 27.6232C25.0101 27.7498 24.6707 27.7952 24.3363 27.7549C24.0019 27.7146 23.6837 27.59 23.4125 27.3931C20.7935 25.4925 16.8669 22.6429 14.8733 21.1956C14.7195 21.084 14.5924 20.9404 14.501 20.775C14.4097 20.6097 14.3563 20.4266 14.3447 20.2387C14.3331 20.0508 14.3635 19.8627 14.4337 19.6876C14.504 19.5126 14.6124 19.3549 14.7514 19.2256C16.5781 17.5263 20.2165 14.1417 22.7197 11.8129C22.7787 11.7577 22.8146 11.6828 22.8204 11.6029C22.8262 11.523 22.8015 11.4438 22.7512 11.3809C22.7008 11.318 22.6284 11.2758 22.5482 11.2627C22.4679 11.2496 22.3856 11.2665 22.3174 11.3101C19.1077 13.3721 14.192 16.5297 11.7828 18.0773C11.3313 18.3673 10.8239 18.5624 10.2923 18.6504C9.76071 18.7383 9.2164 18.7173 8.69346 18.5884C7.36687 18.2618 5.45337 17.7905 3.75053 17.3713C3.48392 17.3057 3.24514 17.1589 3.06818 16.9518C2.89123 16.7447 2.78512 16.4879 2.76499 16.218C2.74485 15.948 2.81171 15.6787 2.95603 15.4484C3.10036 15.218 3.31479 15.0384 3.5688 14.9351C9.49662 12.5234 21.0973 7.80406 26.7226 5.51512Z" fill="url(#paint0_radial_22199_5403)"/>
<defs>
<radialGradient id="paint0_radial_22199_5403" cx="0" cy="0" r="1" gradientUnits="userSpaceOnUse" gradientTransform="translate(13.5307 6.60655) rotate(85.8037) scale(35.0413 41.65)">
<stop stop-color="#D6EBFF"/>
<stop offset="0.75787" stop-color="#718EAB"/>
</radialGradient>
</defs>
</svg>
