<svg xmlns="http://www.w3.org/2000/svg" width="33" height="32" viewBox="0 0 33 32" fill="none">
  <path fill-rule="evenodd" clip-rule="evenodd" d="M2.33325 9.99967C2.33325 8.52691 3.52716 7.33301 4.99992 7.33301H26.3333C27.806 7.33301 28.9999 8.52692 28.9999 9.99967V23.333C28.9999 24.8058 27.806 25.9997 26.3333 25.9997H4.99992C3.52716 25.9997 2.33325 24.8058 2.33325 23.333V9.99967ZM25.708 13.0913C25.2605 12.6439 24.5351 12.6439 24.0876 13.0913L23.2822 13.8968C23.1137 14.0653 22.8309 13.9656 22.7957 13.7299C22.7607 13.4962 22.6533 13.2713 22.4734 13.0913C22.0258 12.6439 21.3004 12.6439 20.853 13.0913L20.0475 13.8968C19.879 14.0653 19.5963 13.9656 19.561 13.7299C19.526 13.4962 19.4187 13.2713 19.2386 13.0913C18.7911 12.6439 18.0657 12.6439 17.6182 13.0913L16.8128 13.8968C16.6443 14.0653 16.3615 13.9656 16.3263 13.7299C16.2913 13.4962 16.1839 13.2713 16.004 13.0913C15.5565 12.6439 14.831 12.6439 14.3836 13.0913L13.5781 13.8968C13.4096 14.0653 13.1269 13.9656 13.0916 13.7299C13.0566 13.4962 12.9493 13.2713 12.7693 13.0913C12.3218 12.6439 11.5964 12.6439 11.1489 13.0913L10.3538 13.8864C10.1879 14.0523 9.90372 13.9594 9.86857 13.7275C9.8333 13.4947 9.72611 13.2707 9.54671 13.0913C9.09918 12.6439 8.37377 12.6439 7.92631 13.0913L6.19682 14.8208C5.74857 15.2691 5.72474 16.0033 6.16936 16.4552C6.39396 16.6834 6.69004 16.7976 6.98623 16.7976H6.99348C7.16005 16.7965 7.24704 16.9932 7.1293 17.1109L5.63607 18.6042C5.18783 19.0524 5.164 19.7867 5.60862 20.2386C5.83322 20.4668 6.1293 20.5809 6.42549 20.5809C6.71867 20.5809 7.01195 20.469 7.23566 20.2453L8.04109 19.4399C8.20961 19.2714 8.49235 19.3712 8.52767 19.6069C8.56266 19.8405 8.67002 20.0654 8.85003 20.2453C9.07379 20.4691 9.36697 20.5809 9.66021 20.5809C9.95338 20.5809 10.2467 20.469 10.4704 20.2453L11.2758 19.4399C11.4443 19.2714 11.7271 19.3712 11.7624 19.6069C11.7974 19.8405 11.9047 20.0654 12.0848 20.2453C12.3085 20.4691 12.6017 20.5809 12.8949 20.5809C13.1881 20.5809 13.4814 20.469 13.7051 20.2453L14.5105 19.4399C14.679 19.2714 14.9618 19.3712 14.9971 19.6069C15.0321 19.8405 15.1395 20.0654 15.3195 20.2453C15.5432 20.4691 15.8364 20.5809 16.1296 20.5809C16.4228 20.5809 16.7161 20.469 16.9398 20.2453L17.7452 19.4399C17.9138 19.2714 18.1965 19.3712 18.2318 19.6069C18.2668 19.8405 18.3742 20.0654 18.5542 20.2453C18.7779 20.4691 19.0711 20.5809 19.3644 20.5809C19.6575 20.5809 19.9508 20.469 20.1745 20.2453L20.9801 19.4398C21.1486 19.2712 21.4314 19.3712 21.4667 19.6069C21.5016 19.8405 21.609 20.0654 21.789 20.2453C22.0128 20.4691 22.306 20.5809 22.5992 20.5809C22.8924 20.5809 23.1857 20.469 23.4094 20.2453L25.1597 18.4951C25.6071 18.0476 25.6071 17.3221 25.1597 16.8747C24.7319 16.447 24.0508 16.4292 23.6006 16.8192L25.7081 14.7117C26.1554 14.2643 26.1554 13.5388 25.708 13.0913ZM11.6464 15.9408L11.3406 15.32C11.2613 15.1591 11.0319 15.1591 10.9526 15.32L10.6467 15.9408C10.6153 16.0046 10.5544 16.0489 10.4839 16.0592L9.79941 16.1588C9.62213 16.1845 9.55132 16.4023 9.67949 16.5275L10.1752 17.0115C10.2261 17.0612 10.2493 17.1327 10.2373 17.2027L10.1204 17.8858C10.0901 18.0625 10.2756 18.1972 10.4343 18.1136L11.0458 17.7916C11.1089 17.7584 11.1843 17.7584 11.2473 17.7916L11.8589 18.1136C12.0175 18.1972 12.203 18.0625 12.1728 17.8858L12.0558 17.2027C12.0438 17.1327 12.067 17.0612 12.1179 17.0115L12.6137 16.5275C12.7418 16.4023 12.671 16.1845 12.4937 16.1588L11.8092 16.0592C11.7388 16.0489 11.6779 16.0046 11.6464 15.9408ZM15.8262 15.32L16.1321 15.9408C16.1636 16.0046 16.2244 16.0489 16.2949 16.0592L16.9794 16.1588C17.1567 16.1845 17.2275 16.4023 17.0993 16.5275L16.6036 17.0115C16.5527 17.0612 16.5295 17.1327 16.5415 17.2027L16.6585 17.8858C16.6887 18.0625 16.5032 18.1972 16.3446 18.1136L15.733 17.7916C15.6699 17.7584 15.5946 17.7584 15.5315 17.7916L14.9199 18.1136C14.7613 18.1972 14.5758 18.0625 14.6061 17.8858L14.723 17.2027C14.735 17.1327 14.7118 17.0612 14.6609 17.0115L14.1652 16.5275C14.037 16.4023 14.1078 16.1845 14.2851 16.1588L14.9696 16.0592C15.0401 16.0489 15.1009 16.0046 15.1324 15.9408L15.4383 15.32C15.5176 15.1591 15.747 15.1591 15.8262 15.32ZM20.6829 15.9408L20.377 15.32C20.2977 15.1591 20.0683 15.1591 19.989 15.32L19.6832 15.9408C19.6517 16.0046 19.5909 16.0489 19.5204 16.0592L18.8359 16.1588C18.6586 16.1845 18.5878 16.4023 18.716 16.5275L19.2117 17.0115C19.2626 17.0612 19.2858 17.1327 19.2738 17.2027L19.1568 17.8858C19.1265 18.0625 19.3121 18.1972 19.4707 18.1136L20.0823 17.7916C20.1453 17.7584 20.2207 17.7584 20.2838 17.7916L20.8954 18.1136C21.0539 18.1972 21.2395 18.0625 21.2092 17.8858L21.0923 17.2027C21.0803 17.1327 21.1035 17.0612 21.1544 17.0115L21.6501 16.5275C21.7783 16.4023 21.7075 16.1845 21.5302 16.1588L20.8457 16.0592C20.7752 16.0489 20.7143 16.0046 20.6829 15.9408Z" fill="url(#paint0_radial_22199_5388)"/>
  <defs>
    <radialGradient id="paint0_radial_22199_5388" cx="0" cy="0" r="1" gradientUnits="userSpaceOnUse" gradientTransform="translate(13.1025 8.36419) rotate(84.9684) scale(29.2354 41.6011)">
      <stop stop-color="#D6EBFF"/>
      <stop offset="0.75787" stop-color="#718EAB"/>
    </radialGradient>
  </defs>
</svg>
