<svg xmlns="http://www.w3.org/2000/svg" width="22" height="22" viewBox="0 0 22 22" fill="none">
  <path d="M18.5422 4.96983C18.3773 4.80478 18.1814 4.67385 17.9658 4.58452C17.7502 4.4952 17.5191 4.44922 17.2858 4.44922C17.0524 4.44922 16.8213 4.4952 16.6057 4.58452C16.3901 4.67385 16.1943 4.80478 16.0293 4.96983L10.7352 10.2634L8.97084 8.49905C8.80586 8.334 8.60998 8.20307 8.39439 8.11374C8.1788 8.02441 7.94772 7.97844 7.71436 7.97844C7.48099 7.97844 7.24991 8.02441 7.03432 8.11374C6.81873 8.20307 6.62285 8.334 6.45787 8.49905C6.2929 8.66402 6.16203 8.85987 6.07274 9.07541C5.98345 9.29096 5.9375 9.52199 5.9375 9.7553C5.9375 9.98861 5.98345 10.2196 6.07274 10.4352C6.16203 10.6507 6.2929 10.8466 6.45787 11.0115L9.47897 14.0326C9.64395 14.1977 9.83983 14.3286 10.0554 14.4179C10.271 14.5073 10.5021 14.5532 10.7355 14.5532C10.9688 14.5532 11.1999 14.5073 11.4155 14.4179C11.6311 14.3286 11.827 14.1977 11.9919 14.0326L18.5422 7.48233C18.7072 7.31736 18.8381 7.12151 18.9274 6.90596C19.0167 6.69041 19.0626 6.45939 19.0626 6.22608C19.0626 5.99277 19.0167 5.76174 18.9274 5.5462C18.8381 5.33065 18.7072 5.1348 18.5422 4.96983Z" fill="white"/>
</svg>