<svg xmlns="http://www.w3.org/2000/svg" width="24" height="24" viewBox="0 0 24 24" fill="none">
  <path d="M16 2.25H6C4.48 2.25 3.25 3.48 3.25 5V18C3.25 19.52 4.48 20.75 6 20.75H9.54C8.42 19.48 7.75 17.82 7.75 16C7.75 12 11 8.75 15 8.75C16.38 8.75 17.66 9.13 18.75 9.81V5C18.75 3.48 17.52 2.25 16 2.25ZM8 12.75H7C6.59 12.75 6.25 12.41 6.25 12C6.25 11.59 6.59 11.25 7 11.25H8C8.41 11.25 8.75 11.59 8.75 12C8.75 12.41 8.41 12.75 8 12.75ZM11 9.75H7C6.59 9.75 6.25 9.41 6.25 9C6.25 8.59 6.59 8.25 7 8.25H11C11.41 8.25 11.75 8.59 11.75 9C11.75 9.41 11.41 9.75 11 9.75ZM15 6.75H7C6.59 6.75 6.25 6.41 6.25 6C6.25 5.59 6.59 5.25 7 5.25H15C15.41 5.25 15.75 5.59 15.75 6C15.75 6.41 15.41 6.75 15 6.75Z" fill="url(#paint0_radial_22268_82671)"/>
  <path d="M15 10.25C11.829 10.25 9.25 12.83 9.25 16C9.25 19.17 11.829 21.75 15 21.75C18.171 21.75 20.75 19.17 20.75 16C20.75 12.83 18.171 10.25 15 10.25ZM16.955 16.75H15C14.586 16.75 14.25 16.414 14.25 16V13.965C14.25 13.551 14.586 13.215 15 13.215C15.414 13.215 15.75 13.551 15.75 13.965V15.25H16.955C17.369 15.25 17.705 15.586 17.705 16C17.705 16.414 17.369 16.75 16.955 16.75Z" fill="url(#paint1_radial_22268_82671)"/>
  <defs>
    <radialGradient id="paint0_radial_22268_82671" cx="0" cy="0" r="1" gradientUnits="userSpaceOnUse" gradientTransform="translate(9.50962 3.27197) rotate(87.044) scale(28.9012 24.2419)">
      <stop stop-color="#D6EBFF"/>
      <stop offset="0.75787" stop-color="#718EAB"/>
    </radialGradient>
    <radialGradient id="paint1_radial_22268_82671" cx="0" cy="0" r="1" gradientUnits="userSpaceOnUse" gradientTransform="translate(13.8942 10.8853) rotate(86.4733) scale(17.9757)">
      <stop stop-color="#D6EBFF"/>
      <stop offset="0.75787" stop-color="#718EAB"/>
    </radialGradient>
  </defs>
</svg>
