<svg xmlns="http://www.w3.org/2000/svg" width="20" height="20" viewBox="0 0 20 20" fill="none">
  <path
    d="M18.134 13.2666L12.8007 3.66663C12.084 2.37496 11.0924 1.66663 10.0007 1.66663C8.90905 1.66663 7.91738 2.37496 7.20071 3.66663L1.86738 13.2666C1.19238 14.4916 1.11738 15.6666 1.65905 16.5916C2.20071 17.5166 3.26738 18.025 4.66738 18.025H15.334C16.734 18.025 17.8007 17.5166 18.3424 16.5916C18.884 15.6666 18.809 14.4833 18.134 13.2666ZM9.37571 7.49996C9.37571 7.15829 9.65905 6.87496 10.0007 6.87496C10.3424 6.87496 10.6257 7.15829 10.6257 7.49996V11.6666C10.6257 12.0083 10.3424 12.2916 10.0007 12.2916C9.65905 12.2916 9.37571 12.0083 9.37571 11.6666V7.49996ZM10.5924 14.7583C10.5507 14.7916 10.509 14.825 10.4674 14.8583C10.4174 14.8916 10.3674 14.9166 10.3174 14.9333C10.2674 14.9583 10.2174 14.975 10.159 14.9833C10.109 14.9916 10.0507 15 10.0007 15C9.95071 15 9.89238 14.9916 9.83405 14.9833C9.78405 14.975 9.73405 14.9583 9.68405 14.9333C9.63405 14.9166 9.58405 14.8916 9.53405 14.8583C9.49238 14.825 9.45071 14.7916 9.40905 14.7583C9.25905 14.6 9.16738 14.3833 9.16738 14.1666C9.16738 13.95 9.25905 13.7333 9.40905 13.575C9.45071 13.5416 9.49238 13.5083 9.53405 13.475C9.58405 13.4416 9.63405 13.4166 9.68405 13.4C9.73405 13.375 9.78405 13.3583 9.83405 13.35C9.94238 13.325 10.059 13.325 10.159 13.35C10.2174 13.3583 10.2674 13.375 10.3174 13.4C10.3674 13.4166 10.4174 13.4416 10.4674 13.475C10.509 13.5083 10.5507 13.5416 10.5924 13.575C10.7424 13.7333 10.834 13.95 10.834 14.1666C10.834 14.3833 10.7424 14.6 10.5924 14.7583Z"
    fill="#FF4A2B" />
</svg>
