<svg xmlns="http://www.w3.org/2000/svg" width="24" height="24" viewBox="0 0 24 24" fill="none">
  <path d="M15.0938 9.4375C12.2506 9.4375 9.9375 11.7506 9.9375 14.5938C9.9375 17.4369 12.2506 19.75 15.0938 19.75C17.9369 19.75 20.25 17.4369 20.25 14.5938C20.25 11.7506 17.9369 9.4375 15.0938 9.4375ZM15.0938 14.125C15.8692 14.125 16.5 14.7558 16.5 15.5312C16.5 16.1416 16.1069 16.657 15.5625 16.8512V17.875H14.625V16.8512C14.0806 16.657 13.6875 16.1416 13.6875 15.5312H14.625C14.625 15.7899 14.8351 16 15.0938 16C15.3524 16 15.5625 15.7899 15.5625 15.5312C15.5625 15.2726 15.3524 15.0625 15.0938 15.0625C14.3183 15.0625 13.6875 14.4317 13.6875 13.6562C13.6875 13.0459 14.0806 12.5305 14.625 12.3363V11.3125H15.5625V12.3363C16.1069 12.5305 16.5 13.0459 16.5 13.6562H15.5625C15.5625 13.3976 15.3524 13.1875 15.0938 13.1875C14.8351 13.1875 14.625 13.3976 14.625 13.6562C14.625 13.9149 14.8351 14.125 15.0938 14.125Z" fill="#2189FF"/>
  <path d="M9.46875 9.4375C12.36 9.4375 14.625 8.202 14.625 6.625C14.625 5.048 12.36 3.75 9.46875 3.75C6.5775 3.75 4.25 5.048 4.25 6.625C4.25 8.202 6.5775 9.4375 9.46875 9.4375Z" fill="#2189FF"/>
  <path d="M4.25 14.2988V15.0626C4.25 16.6396 6.5775 17.8751 9.46875 17.8751C9.63275 17.8751 9.79166 17.86 9.95312 17.8521C9.59356 17.2868 9.32541 16.6595 9.1675 15.9888C7.07672 15.9311 5.26131 15.2886 4.25 14.2988Z" fill="#2189FF"/>
  <path d="M9.02253 15.0387C9.01178 14.8913 9 14.744 9 14.5939C9 14.1052 9.06403 13.6323 9.17322 13.1766C7.07984 13.1199 5.26222 12.477 4.25 11.4863V12.2501C4.25 13.7435 6.35194 14.917 9.02253 15.0387Z" fill="#2189FF"/>
  <path d="M9.46875 12.2501C9.46925 12.2501 9.46966 12.25 9.47019 12.25C9.77934 11.5112 10.2288 10.8451 10.7868 10.287C10.3635 10.3405 9.926 10.3751 9.46875 10.3751C7.24322 10.3751 5.31019 9.71145 4.25 8.67383V9.43761C4.25 11.0146 6.5775 12.2501 9.46875 12.2501Z" fill="#2189FF"/>
</svg>