<svg xmlns="http://www.w3.org/2000/svg" width="32" height="32" viewBox="0 0 32 32" fill="none">
  <path fill-rule="evenodd" clip-rule="evenodd" d="M11.5554 2.66602C6.64619 2.66602 2.6665 6.64571 2.6665 11.5549V20.4438C2.6665 25.353 6.64619 29.3327 11.5554 29.3327H20.4443C25.3535 29.3327 29.3332 25.353 29.3332 20.4438V11.5549C29.3332 6.64571 25.3535 2.66602 20.4443 2.66602H11.5554ZM21.8332 8.05636C21.8332 6.92385 20.9346 5.99935 19.817 5.99935H17.7026C17.4232 5.99935 17.1967 6.23047 17.1967 6.51553V8.05636C17.1967 8.34141 17.4232 8.57254 17.7026 8.57254H20.9874V23.4185H17.7026C17.4232 23.4185 17.1967 23.6496 17.1967 23.9346V25.4755C17.1967 25.7605 17.4232 25.9916 17.7026 25.9916H19.817C20.927 25.9916 21.8332 25.0749 21.8332 23.9346V8.05636ZM14.803 6.51553C14.803 6.23047 14.5764 5.99935 14.297 5.99935V6.00705H12.1827C11.0727 6.00705 10.1665 6.92385 10.1665 8.06406V23.9423C10.1665 25.0749 11.0651 25.9993 12.1827 25.9993H14.297C14.5764 25.9993 14.803 25.7682 14.803 25.4832V23.9423C14.803 23.6573 14.5764 23.4262 14.297 23.4262H11.0122V8.57254H14.297C14.5764 8.57254 14.803 8.34141 14.803 8.05636V6.51553Z" fill="url(#paint0_radial_22199_5368)"/>
  <defs>
    <radialGradient id="paint0_radial_22199_5368" cx="0" cy="0" r="1" gradientUnits="userSpaceOnUse" gradientTransform="translate(13.4357 4.13913) rotate(86.4733) scale(41.6829 41.6829)">
      <stop stop-color="#D6EBFF"/>
      <stop offset="0.75787" stop-color="#718EAB"/>
    </radialGradient>
  </defs>
</svg>
