<svg xmlns="http://www.w3.org/2000/svg" width="32" height="32" viewBox="0 0 32 32" fill="none">
  <path d="M4 10.7332C4 8.32208 5.95197 6.44971 8.46562 6.44971H22.741C25.2546 6.44971 27.2066 8.32208 27.2066 10.7332V11.1904C27.1822 11.1899 27.1578 11.1897 27.1334 11.1897H21.0937C18.3605 11.1897 16.0792 13.378 16.0792 15.9998C16.0792 18.6216 18.3605 20.8099 21.0937 20.8099H27.1334C27.1578 20.8099 27.1822 20.8097 27.2066 20.8093V21.2664C27.2066 23.6775 25.2546 25.55 22.741 25.55H8.46562C5.95197 25.55 4 23.6776 4 21.2664V10.7332Z" fill="url(#paint0_radial_22266_80966)"/>
  <path fill-rule="evenodd" clip-rule="evenodd" d="M21.2946 13.5674C19.9284 13.5674 18.7584 14.7032 18.7584 16.0298C18.7584 17.3564 19.9284 18.4921 21.2946 18.4921H27.0272C27.5597 18.4921 28 18.0647 28 17.5477V14.5119C28 13.9949 27.5597 13.5674 27.0272 13.5674H21.2946ZM22.337 16.0298C22.337 16.5887 21.8703 17.0417 21.2946 17.0417C20.719 17.0417 20.2525 16.5887 20.2525 16.0298C20.2525 15.4709 20.7191 15.0178 21.2946 15.0178C21.8703 15.0178 22.337 15.4709 22.337 16.0298Z" fill="url(#paint1_radial_22266_80966)"/>
  <defs>
    <radialGradient id="paint0_radial_22266_80966" cx="0" cy="0" r="1" gradientUnits="userSpaceOnUse" gradientTransform="translate(13.6923 7.50484) rotate(85.5718) scale(29.8884 37.4736)">
      <stop stop-color="#D6EBFF"/>
      <stop offset="0.75787" stop-color="#718EAB"/>
    </radialGradient>
    <radialGradient id="paint1_radial_22266_80966" cx="0" cy="0" r="1" gradientUnits="userSpaceOnUse" gradientTransform="translate(13.6923 7.50484) rotate(85.5718) scale(29.8884 37.4736)">
      <stop stop-color="#D6EBFF"/>
      <stop offset="0.75787" stop-color="#718EAB"/>
    </radialGradient>
  </defs>
</svg>
