<svg xmlns="http://www.w3.org/2000/svg" width="29" height="28" viewBox="0 0 29 28" fill="none">
  <path fill-rule="evenodd" clip-rule="evenodd" d="M16.6666 4.30304L21.3821 6.99157C21.8633 7.26693 22.2633 7.6644 22.5417 8.14384C22.8202 8.62327 22.9672 9.16769 22.9679 9.72211V10.6043H6.16457V9.72211C6.16528 9.16769 6.31228 8.62327 6.59072 8.14384C6.86916 7.6644 7.26918 7.26693 7.75039 6.99157L12.4658 4.30304C13.1044 3.93434 13.8288 3.74023 14.5662 3.74023C15.3036 3.74023 16.028 3.93434 16.6666 4.30304ZM13.8369 8.54518C14.0528 8.68943 14.3066 8.76642 14.5662 8.76642C14.9144 8.76642 15.2483 8.62811 15.4945 8.38192C15.7407 8.13573 15.879 7.80183 15.879 7.45366C15.879 7.19402 15.802 6.94021 15.6578 6.72433C15.5135 6.50845 15.3085 6.34019 15.0686 6.24083C14.8287 6.14147 14.5648 6.11547 14.3101 6.16613C14.0555 6.21678 13.8216 6.34181 13.638 6.5254C13.4544 6.70899 13.3294 6.9429 13.2787 7.19755C13.228 7.4522 13.254 7.71616 13.3534 7.95603C13.4528 8.19591 13.621 8.40093 13.8369 8.54518Z" fill="white"/>
  <path fill-rule="evenodd" clip-rule="evenodd" d="M22.9691 11.6552H6.21825C6.04688 11.6461 5.8759 11.6791 5.72025 11.7514C5.5646 11.8236 5.42904 11.933 5.32541 12.0697C5.22178 12.2065 5.15326 12.3666 5.12582 12.536C5.09839 12.7054 5.11288 12.879 5.16804 13.0415L5.53561 14.0917C5.60868 14.309 5.7509 14.4965 5.94054 14.6255C6.13017 14.7544 6.3568 14.8178 6.58582 14.8058H7.21478V21.107H5.70579C5.4516 21.0951 5.20006 21.1584 4.98957 21.2873C4.77909 21.4163 4.62125 21.6038 4.54014 21.8211L4.13216 22.8714C4.07094 23.0339 4.05485 23.2074 4.0853 23.3768C4.11576 23.5462 4.19182 23.7063 4.30683 23.8431C4.42185 23.9799 4.57232 24.0892 4.74507 24.1614C4.91783 24.2337 5.10761 24.2667 5.29781 24.2576H23.89C24.0763 24.2597 24.2605 24.2216 24.427 24.1463C24.5936 24.0711 24.7378 23.961 24.8474 23.8252C24.957 23.6894 25.0288 23.532 25.057 23.366C25.0851 23.2 25.0686 23.0304 25.009 22.8714L24.601 21.8211C24.5199 21.6038 24.3621 21.4163 24.1516 21.2873C23.9411 21.1584 23.6895 21.0951 23.4354 21.107H21.9177V14.8058H22.5595C22.7885 14.8178 23.0151 14.7544 23.2048 14.6255C23.3944 14.4965 23.5366 14.309 23.6097 14.0917L23.9773 13.0415C24.031 12.8824 24.0458 12.7128 24.0205 12.5468C23.9951 12.3809 23.9304 12.2234 23.8316 12.0876C23.7329 11.9518 23.603 11.8417 23.4529 11.7665C23.3029 11.6912 23.1369 11.6531 22.9691 11.6552ZM9.3152 21.107V14.8058H11.4156V21.107H9.3152ZM13.516 21.107V14.8058H15.6164V21.107H13.516ZM17.7169 21.107V14.8058H19.8173V21.107H17.7169Z" fill="white"/>
</svg>