<svg xmlns="http://www.w3.org/2000/svg" width="29" height="28" viewBox="0 0 29 28" fill="none">
  <path fill-rule="evenodd" clip-rule="evenodd" d="M14.7138 25.665C21.1562 25.665 26.3788 20.4424 26.3788 14C26.3788 7.55756 21.1562 2.33496 14.7138 2.33496C8.27142 2.33496 3.04883 7.55756 3.04883 14C3.04883 20.4424 8.27142 25.665 14.7138 25.665ZM8.55798 9.56238H10.3585C10.0715 9.08542 9.91205 8.48843 9.95258 7.74435C10.005 6.78259 10.3995 6.23224 10.8615 5.94299C11.3462 5.63943 11.9851 5.58762 12.6669 5.83844C14.1097 6.36926 14.6918 7.51227 14.6918 7.51227C15.2599 6.70767 16.0182 6.09549 16.7167 5.83844C17.3986 5.58762 18.0375 5.63943 18.5222 5.94299C18.9841 6.23224 19.3787 6.78259 19.431 7.74435C19.4716 8.48843 19.3121 9.08542 19.0252 9.56238H20.8687C21.2596 9.56238 21.6345 9.71765 21.9109 9.99408C22.1874 10.2705 22.3427 10.6454 22.3427 11.0363V13.7567C22.3427 14.1476 22.1874 14.5225 21.9109 14.7989C21.8049 14.905 21.6843 14.9932 21.554 15.0616V19.9417C21.554 21.2542 20.49 22.3181 19.1775 22.3181H14.788C14.7634 22.3201 14.7385 22.3212 14.7133 22.3212C14.6882 22.3212 14.6633 22.3201 14.6387 22.3181H10.2492C8.93671 22.3181 7.87268 21.2542 7.87268 19.9417V15.0616C7.74231 14.9932 7.62177 14.905 7.51575 14.7989C7.23932 14.5225 7.08398 14.1476 7.08398 13.7567V11.0363C7.08398 10.6454 7.23932 10.2705 7.51575 9.99408C7.79211 9.71765 8.16705 9.56238 8.55798 9.56238ZM13.8207 20.5329V15.2306H9.6579V19.9417C9.6579 20.2682 9.92261 20.5329 10.2492 20.5329H13.8207ZM19.7688 15.2306H15.606V20.5329H19.1775C19.504 20.5329 19.7688 20.2682 19.7688 19.9417V15.2306ZM15.606 13.4454V11.3476H20.5575V13.4454H15.606ZM8.8692 11.3476H13.8207V13.4454H8.8692V11.3476ZM11.7352 7.84152C11.743 7.6972 11.7966 7.52634 11.8171 7.46591C11.8476 7.46683 11.8974 7.46991 11.9302 7.47745C12.0963 7.51566 12.2705 7.60516 12.4446 7.72354C12.9939 8.09705 13.5331 8.75668 13.7253 9.51074C13.4893 9.47778 13.2278 9.42554 12.9681 9.34332C12.3431 9.14554 11.6854 8.75525 11.7352 7.84152ZM17.4534 7.47745C17.4863 7.46991 17.536 7.46683 17.5665 7.46591C17.587 7.52634 17.6406 7.6972 17.6485 7.84152C17.6983 8.75525 17.0406 9.14554 16.4156 9.34332C16.1558 9.42554 15.8944 9.47778 15.6583 9.51074C15.8506 8.75668 16.3898 8.09705 16.939 7.72354C17.1132 7.60516 17.2874 7.51566 17.4534 7.47745Z" fill="white"/>
</svg>