<svg xmlns="http://www.w3.org/2000/svg" width="25" height="24" viewBox="0 0 25 24" fill="none">
  <path fill-rule="evenodd" clip-rule="evenodd" d="M2.5 9.2093C2.5 9.5907 2.81628 9.90698 3.19767 9.90698C3.57907 9.90698 3.89535 9.5907 3.89535 9.2093V6.88372C3.89535 4.95814 5.45814 3.39535 7.38372 3.39535H9.7093C10.0907 3.39535 10.407 3.07907 10.407 2.69767C10.407 2.31628 10.0907 2 9.7093 2H7.38372C4.69535 2 2.5 4.18605 2.5 6.88372V9.2093ZM21.1047 9.2093C21.1047 9.5907 21.4209 9.90698 21.8023 9.90698C22.1837 9.90698 22.5 9.5907 22.5 9.2093V6.88372C22.5 4.18605 20.3047 2 17.6163 2H15.2907C14.9093 2 14.593 2.31628 14.593 2.69767C14.593 3.07907 14.9093 3.39535 15.2907 3.39535H17.6163C19.5419 3.39535 21.1047 4.95814 21.1047 6.88372V9.2093ZM17.6163 22H16.2209C15.8395 22 15.5233 21.6837 15.5233 21.3023C15.5233 20.9209 15.8395 20.6047 16.2209 20.6047H17.6163C19.5419 20.6047 21.1047 19.0419 21.1047 17.1163V15.7209C21.1047 15.3395 21.4209 15.0233 21.8023 15.0233C22.1837 15.0233 22.5 15.3395 22.5 15.7209V17.1163C22.5 19.814 20.3047 22 17.6163 22ZM7.38372 22H9.7093C10.0907 22 10.407 21.6837 10.407 21.3023C10.407 20.9209 10.0907 20.6047 9.7093 20.6047H7.38372C5.45814 20.6047 3.89535 19.0419 3.89535 17.1163V14.7907C3.89535 14.4093 3.57907 14.093 3.19767 14.093C2.81628 14.093 2.5 14.4093 2.5 14.7907V17.1163C2.5 19.814 4.69535 22 7.38372 22ZM9.7093 5.72093H7.84884C6.78837 5.72093 6.22093 6.27907 6.22093 7.34884V9.2093C6.22093 10.2791 6.78837 10.8372 7.84884 10.8372H9.7093C10.7698 10.8372 11.3372 10.2791 11.3372 9.2093V7.34884C11.3372 6.27907 10.7698 5.72093 9.7093 5.72093ZM15.2907 5.72093H17.1512C18.2116 5.72093 18.7791 6.27907 18.7791 7.34884V9.2093C18.7791 10.2791 18.2116 10.8372 17.1512 10.8372H15.2907C14.2302 10.8372 13.6628 10.2791 13.6628 9.2093V7.34884C13.6628 6.27907 14.2302 5.72093 15.2907 5.72093ZM9.7093 13.1628H7.84884C6.78837 13.1628 6.22093 13.7209 6.22093 14.7907V16.6512C6.22093 17.7209 6.78837 18.2791 7.84884 18.2791H9.7093C10.7698 18.2791 11.3372 17.7209 11.3372 16.6512V14.7907C11.3372 13.7209 10.7698 13.1628 9.7093 13.1628ZM15.2907 13.1628H17.1512C18.2116 13.1628 18.7791 13.7209 18.7791 14.7907V16.6512C18.7791 17.7209 18.2116 18.2791 17.1512 18.2791H15.2907C14.2302 18.2791 13.6628 17.7209 13.6628 16.6512V14.7907C13.6628 13.7209 14.2302 13.1628 15.2907 13.1628Z" fill="white"/>
</svg>
