<svg xmlns="http://www.w3.org/2000/svg" width="29" height="28" viewBox="0 0 29 28" fill="none">
  <path d="M14.2858 2.33301C7.85255 2.33301 2.61914 7.56642 2.61914 13.9997C2.61914 20.4329 7.85255 25.6663 14.2858 25.6663C20.7191 25.6663 25.9525 20.4329 25.9525 13.9997C25.9525 7.56642 20.7191 2.33301 14.2858 2.33301ZM19.39 14.9718H15.258V19.1038C15.258 19.6406 14.8225 20.076 14.2858 20.076C13.7491 20.076 13.3136 19.6406 13.3136 19.1038V14.9718H9.18164C8.64491 14.9718 8.20948 14.5364 8.20948 13.9997C8.20948 13.4629 8.64491 13.0275 9.18164 13.0275H13.3136V8.89551C13.3136 8.35878 13.7491 7.92334 14.2858 7.92334C14.8225 7.92334 15.258 8.35878 15.258 8.89551V13.0275H19.39C19.9267 13.0275 20.3621 13.4629 20.3621 13.9997C20.3621 14.5364 19.9267 14.9718 19.39 14.9718Z" fill="white"/>
</svg>