<svg xmlns="http://www.w3.org/2000/svg" width="29" height="28" viewBox="0 0 29 28" fill="none">
  <path d="M14.8561 2.33301C12.5487 2.33301 10.293 3.01725 8.37447 4.2992C6.4559 5.58115 4.96055 7.40323 4.07753 9.53503C3.19451 11.6668 2.96347 14.0126 3.41363 16.2757C3.86379 18.5388 4.97493 20.6176 6.60654 22.2492C8.23816 23.8809 10.317 24.992 12.5801 25.4422C14.8432 25.8923 17.189 25.6613 19.3208 24.7783C21.4526 23.8952 23.2746 22.3999 24.5566 20.4813C25.8385 18.5627 26.5228 16.3071 26.5228 13.9997C26.5228 10.9055 25.2936 7.93802 23.1057 5.75009C20.9178 3.56217 17.9503 2.33301 14.8561 2.33301ZM18.5457 17.6893C18.4444 17.791 18.3239 17.8718 18.1913 17.9269C18.0586 17.982 17.9164 18.0103 17.7728 18.0103C17.6292 18.0103 17.4869 17.982 17.3543 17.9269C17.2217 17.8718 17.1012 17.791 16.9999 17.6893L14.0832 14.7726C13.9815 14.6712 13.9009 14.5507 13.8458 14.4181C13.7908 14.2854 13.7624 14.1433 13.7624 13.9997V8.16634C13.7624 7.87626 13.8776 7.59806 14.0827 7.39294C14.2878 7.18782 14.566 7.07259 14.8561 7.07259C15.1462 7.07259 15.4244 7.18782 15.6295 7.39294C15.8346 7.59806 15.9499 7.87626 15.9499 8.16634V13.5476L18.5457 16.1434C18.7491 16.3492 18.8632 16.627 18.8632 16.9163C18.8632 17.2057 18.7491 17.4834 18.5457 17.6893Z" fill="white"/>
</svg>