<svg width="28" height="28" viewBox="0 0 28 28" fill="none" xmlns="http://www.w3.org/2000/svg">
<path d="M8.68035 18.2083H6.37537C6.17988 18.2075 5.99267 18.1248 5.85471 17.9783C5.71675 17.8318 5.6393 17.6334 5.6393 17.4267V6.57022C5.64007 6.36399 5.71787 6.16643 5.85574 6.0206C5.99362 5.87477 6.18039 5.79248 6.37537 5.79166H8.68035C9.03034 5.79166 9.366 5.6446 9.61348 5.38283C9.86097 5.12106 10 4.76603 10 4.39583C10 4.02563 9.86097 3.6706 9.61348 3.40883C9.366 3.14706 9.03034 3 8.68035 3H6.37537C5.93148 3.00041 5.49201 3.09334 5.0821 3.27349C4.67218 3.45363 4.29984 3.71746 3.98637 4.04989C3.6729 4.38232 3.42444 4.77684 3.2552 5.21089C3.08595 5.64494 2.99923 6.11001 3.00001 6.57953V17.436C3.0031 18.3813 3.3599 19.2868 3.9924 19.9547C4.6249 20.6225 5.48166 20.9984 6.37537 21H8.68035C8.85365 21 9.02525 20.9639 9.18536 20.8937C9.34547 20.8236 9.49094 20.7208 9.61348 20.5912C9.73603 20.4616 9.83323 20.3077 9.89955 20.1383C9.96587 19.969 10 19.7875 10 19.6042C10 19.4209 9.96587 19.2394 9.89955 19.07C9.83323 18.9007 9.73603 18.7468 9.61348 18.6172C9.49094 18.4876 9.34547 18.3847 9.18536 18.3146C9.02525 18.2444 8.85365 18.2083 8.68035 18.2083Z" fill="#C5C8D4"/>
<path d="M20.5387 10.8895L16.8116 7.34423C16.5125 7.10563 16.131 6.98344 15.7426 7.00181C15.3542 7.02017 14.9872 7.17776 14.7139 7.44341C14.4407 7.70907 14.2813 8.06346 14.2671 8.43653C14.2529 8.8096 14.3851 9.1742 14.6374 9.45825L15.6531 10.4482H8.55295C8.14108 10.4482 7.74608 10.6052 7.45485 10.8848C7.16361 11.1644 7 11.5436 7 11.939C7 12.3344 7.16361 12.7136 7.45485 12.9932C7.74608 13.2728 8.14108 13.4299 8.55295 13.4299H15.6965L14.6095 14.4734C14.3266 14.7546 14.1701 15.1312 14.1736 15.5221C14.1771 15.913 14.3405 16.2869 14.6284 16.5633C14.9163 16.8398 15.3058 16.9965 15.713 16.9999C16.1202 17.0033 16.5125 16.8531 16.8053 16.5815L20.5138 13.0333C20.6652 12.8959 20.7863 12.7306 20.8698 12.5473C20.9534 12.364 20.9976 12.1665 20.9999 11.9664C21.0022 11.7664 20.9626 11.5679 20.8833 11.3829C20.8041 11.1979 20.6869 11.0301 20.5387 10.8895Z" fill="#C5C8D4"/>
</svg>
