<svg xmlns="http://www.w3.org/2000/svg" width="28" height="28" viewBox="0 0 28 28" fill="none">
  <path d="M14.0007 2.33301C11.6932 2.33301 9.43758 3.01725 7.519 4.2992C5.60043 5.58114 4.10508 7.40323 3.22206 9.53503C2.33904 11.6668 2.108 14.0126 2.55816 16.2757C3.00832 18.5388 4.11946 20.6176 5.75108 22.2492C7.38269 23.8809 9.46149 24.992 11.7246 25.4422C13.9877 25.8923 16.3335 25.6613 18.4653 24.7783C20.5971 23.8952 22.4192 22.3999 23.7011 20.4813C24.9831 18.5627 25.6673 16.3071 25.6673 13.9997C25.6673 10.9055 24.4382 7.93802 22.2502 5.75009C20.0623 3.56217 17.0948 2.33301 14.0007 2.33301ZM8.69762 10.8179H16.7476L16.4294 10.5103C16.2297 10.3106 16.1175 10.0397 16.1175 9.75725C16.1175 9.6174 16.1451 9.47892 16.1986 9.34971C16.2521 9.22051 16.3306 9.10311 16.4294 9.00422C16.5283 8.90533 16.6457 8.82689 16.7749 8.77337C16.9041 8.71985 17.0426 8.6923 17.1825 8.6923C17.4649 8.6923 17.7358 8.8045 17.9355 9.00422L20.0567 11.1254C20.2039 11.2746 20.3036 11.464 20.3432 11.6697C20.3829 11.8755 20.3607 12.0883 20.2794 12.2815C20.1999 12.4752 20.0648 12.641 19.8911 12.758C19.7175 12.875 19.5131 12.938 19.3037 12.9391H8.69762C8.41633 12.9391 8.14657 12.8273 7.94766 12.6284C7.74876 12.4295 7.63702 12.1597 7.63702 11.8785C7.63702 11.5972 7.74876 11.3274 7.94766 11.1285C8.14657 10.9296 8.41633 10.8179 8.69762 10.8179ZM19.3037 17.1815H11.2537L11.5719 17.4891C11.6713 17.5877 11.7502 17.705 11.804 17.8342C11.8579 17.9635 11.8856 18.1021 11.8856 18.2421C11.8856 18.3821 11.8579 18.5207 11.804 18.65C11.7502 18.7792 11.6713 18.8965 11.5719 18.9951C11.4733 19.0945 11.356 19.1734 11.2267 19.2273C11.0975 19.2811 10.9588 19.3088 10.8188 19.3088C10.6788 19.3088 10.5402 19.2811 10.411 19.2273C10.2817 19.1734 10.1644 19.0945 10.0658 18.9951L7.94459 16.8739C7.79743 16.7248 7.69773 16.5354 7.6581 16.3296C7.61846 16.1239 7.64065 15.911 7.72187 15.7179C7.80143 15.5242 7.93655 15.3584 8.1102 15.2413C8.28384 15.1243 8.48823 15.0613 8.69762 15.0603H19.3037C19.585 15.0603 19.8547 15.172 20.0536 15.3709C20.2526 15.5698 20.3643 15.8396 20.3643 16.1209C20.3643 16.4022 20.2526 16.6719 20.0536 16.8708C19.8547 17.0697 19.585 17.1815 19.3037 17.1815Z" fill="white"/>
</svg>