<svg xmlns="http://www.w3.org/2000/svg" width="29" height="28" viewBox="0 0 29 28" fill="none">
  <path d="M26.0951 13.9997C26.0951 7.57134 20.8567 2.33301 14.4284 2.33301C8.00005 2.33301 2.76172 7.57134 2.76172 13.9997C2.76172 17.383 4.22005 20.428 6.53005 22.563C6.53005 22.5747 6.53005 22.5747 6.51838 22.5863C6.63505 22.703 6.77505 22.7963 6.89172 22.9013C6.96172 22.9597 7.02005 23.018 7.09005 23.0647C7.30005 23.2397 7.53339 23.403 7.75505 23.5663C7.83672 23.6247 7.90672 23.6713 7.98839 23.7297C8.21005 23.8813 8.44339 24.0213 8.68839 24.1497C8.77005 24.1963 8.86339 24.2547 8.94505 24.3013C9.17839 24.4297 9.42339 24.5463 9.68005 24.6513C9.77339 24.698 9.86672 24.7447 9.96005 24.7797C10.2167 24.8847 10.4734 24.978 10.7301 25.0597C10.8234 25.0947 10.9167 25.1297 11.0101 25.153C11.2901 25.2347 11.5701 25.3047 11.8501 25.3747C11.9317 25.398 12.0134 25.4213 12.1067 25.433C12.4334 25.503 12.7601 25.5497 13.0984 25.5847C13.1451 25.5847 13.1917 25.5963 13.2384 25.608C13.6351 25.643 14.0317 25.6663 14.4284 25.6663C14.8251 25.6663 15.2217 25.643 15.6067 25.608C15.6534 25.608 15.7001 25.5963 15.7467 25.5847C16.0851 25.5497 16.4117 25.503 16.7384 25.433C16.8201 25.4213 16.9017 25.3863 16.9951 25.3747C17.2751 25.3047 17.5667 25.2463 17.8351 25.153C17.9284 25.118 18.0217 25.083 18.1151 25.0597C18.3717 24.9663 18.6401 24.8847 18.8851 24.7797C18.9784 24.7447 19.0717 24.698 19.1651 24.6513C19.4101 24.5463 19.6551 24.4297 19.9001 24.3013C19.9934 24.2547 20.0751 24.1963 20.1567 24.1497C20.3901 24.0097 20.6234 23.8813 20.8567 23.7297C20.9384 23.683 21.0084 23.6247 21.09 23.5663C21.3234 23.403 21.5451 23.2397 21.7551 23.0647C21.8251 23.0063 21.8834 22.948 21.9534 22.9013C22.0817 22.7963 22.2101 22.6913 22.3267 22.5863C22.3267 22.5747 22.3267 22.5747 22.3151 22.563C24.6367 20.428 26.0951 17.383 26.0951 13.9997ZM20.1917 19.798C17.0301 17.6747 11.8501 17.6747 8.66505 19.798C8.15172 20.1363 7.73172 20.533 7.38172 20.9647C5.60839 19.168 4.51172 16.7063 4.51172 13.9997C4.51172 8.52801 8.95672 4.08301 14.4284 4.08301C19.9001 4.08301 24.3451 8.52801 24.3451 13.9997C24.3451 16.7063 23.2484 19.168 21.4751 20.9647C21.1367 20.533 20.7051 20.1363 20.1917 19.798Z" fill="white"/>
  <path d="M14.4284 8.08467C12.0134 8.08467 10.0534 10.0447 10.0534 12.4597C10.0534 14.828 11.9084 16.753 14.3701 16.823C14.4051 16.823 14.4517 16.823 14.4751 16.823C14.4984 16.823 14.5334 16.823 14.5567 16.823C14.5684 16.823 14.5801 16.823 14.5801 16.823C16.9367 16.7413 18.7917 14.828 18.8034 12.4597C18.8034 10.0447 16.8434 8.08467 14.4284 8.08467Z" fill="white"/>
</svg>